<?xml version="1.0" encoding="utf-8"?>
<!-- Generator: Adobe Illustrator 23.0.3, SVG Export Plug-In . SVG Version: 6.00 Build 0)  -->
<svg version="1.1" id="Layer_1" xmlns="http://www.w3.org/2000/svg" xmlns:xlink="http://www.w3.org/1999/xlink" x="0px" y="0px"
	 viewBox="0 0 976.8 854.4" style="enable-background:new 0 0 976.8 854.4;" xml:space="preserve">
<style type="text/css">
	.st0{fill:#EBEBED;stroke:#000000;stroke-width:0.5;stroke-miterlimit:10;}
	.st1{fill:#0C8252;stroke:#000000;stroke-width:0.5;stroke-miterlimit:10;}
	.st2{fill:#A5C96E;stroke:#000000;stroke-width:0.5;stroke-miterlimit:10;}
	.st3{fill:#99A4CD;stroke:#000000;stroke-width:0.5;stroke-miterlimit:10;}
	.st4{fill:#4C3A88;stroke:#000000;stroke-width:0.5;stroke-miterlimit:10;}
	.st5{fill:#1F776F;stroke:#000000;stroke-width:0.5;stroke-miterlimit:10;}
	.st6{fill:#E1BB83;stroke:#000000;stroke-width:0.5;stroke-miterlimit:10;}
	.st7{fill:#DAE8D8;stroke:#000000;stroke-width:0.5;stroke-miterlimit:10;}
	.st8{fill:#F8DB00;stroke:#000000;stroke-width:0.5;stroke-miterlimit:10;}
	.st9{fill:#EDA8C4;stroke:#000000;stroke-width:0.5;stroke-miterlimit:10;}
	.st10{fill:#04ACE4;stroke:#000000;stroke-width:0.5;stroke-miterlimit:10;}
	.st11{fill:#F2CF81;stroke:#000000;stroke-width:0.5;stroke-miterlimit:10;}
	.st12{fill:#FCEE23;stroke:#000000;stroke-width:0.5;stroke-miterlimit:10;}
	.st13{fill:#231F20;stroke:#000000;stroke-width:0.5;stroke-miterlimit:10;}
	.st14{fill:#ED2025;stroke:#000000;stroke-width:0.5;stroke-miterlimit:10;}
	.st15{fill:#FFFFFF;stroke:#000000;stroke-width:0.5;stroke-miterlimit:10;}
	.st16{fill:#EB679E;stroke:#000000;stroke-width:0.5;stroke-miterlimit:10;}
	.st17{fill:#E0D4C8;stroke:#000000;stroke-width:0.5;stroke-miterlimit:10;}
	.st18{fill:#CF265E;stroke:#000000;stroke-width:0.5;stroke-miterlimit:10;}
	.st19{fill:#5BB544;stroke:#000000;stroke-width:0.5;stroke-miterlimit:10;}
	.st20{fill:#0A80D9;stroke:#000000;stroke-width:0.5;stroke-miterlimit:10;}
	.st21{fill:#FEBE4E;stroke:#000000;stroke-width:0.5;stroke-miterlimit:10;}
	.st22{fill:#F78F42;stroke:#000000;stroke-width:0.5;stroke-miterlimit:10;}
	.st23{fill:#FCEF56;stroke:#000000;stroke-width:0.5;stroke-miterlimit:10;}
	.st24{fill:#F15A42;stroke:#000000;stroke-width:0.5;stroke-miterlimit:10;}
	.st25{fill:#A2CF62;stroke:#000000;stroke-width:0.5;stroke-miterlimit:10;}
	.st26{fill:#EC5AA0;stroke:#000000;stroke-width:0.5;stroke-miterlimit:10;}
	.st27{fill:#1AAF69;stroke:#000000;stroke-width:0.5;stroke-miterlimit:10;}
	.st28{fill:#A155A1;stroke:#000000;stroke-width:0.5;stroke-miterlimit:10;}
	.st29{fill:#01B5AC;stroke:#000000;stroke-width:0.5;stroke-miterlimit:10;}
	.st30{fill:#524FA1;stroke:#000000;stroke-width:0.5;stroke-miterlimit:10;}
	.st31{fill:#2DB6EA;stroke:#000000;stroke-width:0.5;stroke-miterlimit:10;}
	.st32{fill:#2086C6;stroke:#000000;stroke-width:0.5;stroke-miterlimit:10;}
	.st33{fill:#0997EB;stroke:#000000;stroke-width:0.5;stroke-miterlimit:10;}
	.st34{fill:#EA324C;stroke:#000000;stroke-width:0.5;stroke-miterlimit:10;}
</style>
<title>flower_index</title>
<g>
	<path class="st0" d="M744,94c-1.1-1.6-3.2-2.2-5-1.5c-0.6-1.4-1.9-2.2-3.4-2.3c-1,0-2,0.5-2.6,1.2c-1.2-1.8-3.2-2.8-5.4-2.9
		c-0.8,0-1.5,0.2-2.2,0.4c-0.9-2.8-3.5-4.7-6.4-4.7c-2.3,0-4.4,1.3-5.6,3.2c-2.8-2.2-6.5-2.7-9.8-1.4c-1-3.3-4-5.6-7.5-5.7
		c-1.2,0-2.4,0.3-3.4,0.9c-0.4-4.1-3.7-7.3-7.8-7.4c-1.6,0-3.2,0.6-4.5,1.6c-2-6.1-7.3-10.4-13.6-10.4c-2.4,0-4.8,0.7-6.9,1.9
		c-3.1-5.5-8.8-9-15.2-9.1c-4.7,0-9.1,2-12.4,5.4c-3.1-1.9-7-1.9-10.1,0c-1.5-6.6-6.9-11.4-13.4-11.4c-2,0-4,0.4-5.8,1.3
		c-2.3-6-7.8-10.3-14.2-10.3c-2.7,0-5.3,0.8-7.6,2.2c-5.2-8.4-14.1-13.9-24.1-13.9c-11.5,0-21.3,7.2-26.1,17.6
		c-1.4-0.4-2.9-0.7-4.3-0.7c-6.4,0-11.8,4.1-14.3,10c-3.5-2.1-8.5-2.7-13.7-1.3c-6.2,1.7-10.9,5.7-12.6,10.3
		c-3.5-1.1-7.4-0.1-10,2.6c-2-2.2-4.8-3.5-7.8-3.5c-5.6,0-10.3,4.5-11.1,10.3c-1.7-3.2-5-5.3-8.6-5.3c-5.5,0-10,4.8-10,10.8v0.2
		c-15.6,0.8-27.3,4.6-27.3,9c0,4.2,10.5,7.7,24.9,8.8c1.7,2.8,4.7,4.6,8,4.7c2.6,0,5-1.1,6.7-3c2.2,4,6.4,6.6,11,6.7
		c3.4,0,6.6-1.4,8.9-3.8c1.6,3.9,5.4,6.5,9.6,6.6c1.9,0,3.7-0.5,5.3-1.6c1.4,0.8,2.9,1.2,4.5,1.2c0.9,0,1.8-0.1,2.6-0.4
		c1,0.4,2.1,0.8,3.2,1c3.4,3.1,7.8,4.8,12.4,4.8c6.1-0.1,11.8-3.1,15.3-8.1c3.4,3.4,8.1,5.3,12.9,5.3c3.4,0,6.7-1,9.6-2.8
		c4.5,3.4,10.7,3.7,15.5,0.7c3.7,5.1,9.6,8.1,15.8,8.1c5.1,0,9.9-2,13.5-5.6c1.8,1.4,4.1,2.2,6.5,2.2c3,0,5.8-1.3,7.9-3.5
		c2.8,3.9,7.3,6.2,12.1,6.3c5.5-0.1,10.6-3.1,13.2-8c1.7,3,4.9,4.8,8.3,4.8c2,0,4-0.7,5.6-1.9c5.5,3,11.6,4.6,17.8,4.4
		c9.9,0,18.6-3.5,23-8.6c1.9,2.8,5.1,4.4,8.4,4.5c4.1-0.1,7.8-2.5,9.5-6.3c1.2,0.5,2.5,0.8,3.8,0.8c3.3,0,6.4-1.6,8.3-4.3
		c1.2,1.9,3.3,3,5.5,3c2.6,0,4.9-1.5,6-3.9l0.5,0.1c1.9,0,3.7-0.8,4.9-2.2c1.6,1.6,4.2,1.5,5.7-0.1c0.1-0.1,0.1-0.1,0.1-0.2
		c0.7,0.5,1.5,0.7,2.3,0.7c1.2,0,2.3-0.5,3.1-1.4h0.3c4.8,0,8.7-1.4,8.7-3.1S748.8,94,744,94z"/>
	<path class="st0" d="M639.5,62.9c-1.1-1.6-3.2-2.2-5-1.5c-0.6-1.4-1.9-2.2-3.4-2.3c-1,0-2,0.4-2.7,1.2c-1.2-1.8-3.3-2.9-5.4-2.9
		c-0.8,0-1.5,0.2-2.2,0.4c-0.9-2.8-3.5-4.7-6.4-4.7c-2.3,0-4.4,1.3-5.6,3.2c-1.8-1.4-3.9-2.1-6.1-2.1c-1.3,0-2.5,0.3-3.7,0.7
		c-1-3.3-4-5.6-7.5-5.7c-1.2,0-2.4,0.3-3.4,0.9c-0.4-4.1-3.7-7.3-7.8-7.4c-1.7,0-3.3,0.6-4.5,1.6c-2-6.1-7.3-10.5-13.6-10.5
		c-2.4,0-4.8,0.7-6.9,1.9c-3.1-5.5-8.8-9-15.2-9.1c-4.7,0-9.1,2-12.4,5.4c-3.1-1.9-7-1.9-10.1,0c-1.5-6.6-6.9-11.4-13.4-11.4
		c-2,0-4,0.5-5.8,1.4c-2.3-6-7.8-10.3-14.2-10.3c-2.7,0-5.3,0.8-7.6,2.2C471.4,5.5,462.6,0,452.6,0c-11.5,0-21.4,7.2-26.1,17.6
		c-1.4-0.5-2.9-0.7-4.3-0.7c-6.4,0-11.8,4.1-14.3,10.1c-3.5-2.1-8.5-2.7-13.7-1.4c-6.2,1.6-10.9,5.7-12.6,10.3
		c-0.9-0.3-1.9-0.4-2.9-0.4c-2.7,0-5.2,1.1-7.1,3c-2-2.2-4.8-3.5-7.8-3.5c-5.6,0-10.3,4.5-11.1,10.3c-1.7-3.2-5-5.3-8.6-5.3
		c-5.5,0-10,4.8-10,10.8V51c-15.6,0.8-27.3,4.5-27.3,9c0,4.2,10.5,7.7,24.9,8.8c1.7,2.8,4.7,4.6,8,4.7c2.6,0,5-1.1,6.7-3
		c2.2,4,6.4,6.6,11,6.7c3.4,0,6.6-1.4,8.9-3.8c1.6,3.9,5.4,6.5,9.6,6.6c1.9,0,3.7-0.5,5.3-1.6c2.2,1.3,4.7,1.6,7.1,0.8
		c1,0.4,2.1,0.8,3.2,1c3.4,3.1,7.8,4.8,12.4,4.8c6.1-0.1,11.8-3.1,15.3-8.1c3.4,3.4,8.1,5.3,12.9,5.3c3.4,0,6.7-1,9.6-2.8
		c4.5,3.4,10.7,3.7,15.5,0.7c3.7,5.1,9.6,8.1,15.8,8.1c5.1,0,9.9-2,13.5-5.6c1.9,1.4,4.1,2.2,6.5,2.2c3,0,5.8-1.3,7.9-3.5
		c2.8,3.9,7.3,6.2,12.1,6.3c5.5-0.1,10.6-3.1,13.2-8c1.7,3,4.9,4.8,8.3,4.8c2,0,4-0.7,5.6-1.9c5.5,3,11.6,4.6,17.8,4.4
		c9.9,0,18.6-3.5,23-8.6c1.9,2.7,5,4.4,8.4,4.4c4.1-0.1,7.8-2.5,9.5-6.3c1.2,0.5,2.5,0.8,3.8,0.8c3.3,0,6.4-1.6,8.4-4.3
		c1.2,1.8,3.3,3,5.5,3c2.6,0,4.9-1.6,6-3.9c0.2,0,0.4,0,0.5,0.1c1.9,0,3.7-0.8,4.9-2.2c0.8,0.7,1.7,1.1,2.8,1.1
		c1.2,0,2.3-0.5,3.1-1.4c0.7,0.5,1.5,0.7,2.3,0.7c1.2,0,2.3-0.5,3.1-1.4h0.3c4.8,0,8.7-1.4,8.7-3.1S644.3,62.9,639.5,62.9z"/>
	<path class="st0" d="M868.9,308.5c-1.1-1.6-3.2-2.2-5-1.5c-0.6-1.4-1.9-2.2-3.4-2.3c-1,0-2,0.4-2.7,1.2c-1.2-1.8-3.2-2.8-5.4-2.9
		c-0.8,0-1.5,0.2-2.2,0.4c-0.9-2.8-3.5-4.7-6.4-4.7c-2.3,0-4.4,1.3-5.6,3.2c-1.8-1.4-3.9-2.1-6.1-2.1c-1.3,0-2.5,0.3-3.7,0.7
		c-1-3.3-4-5.6-7.5-5.7c-1.2,0-2.4,0.3-3.4,0.9c-0.4-4.1-3.7-7.3-7.8-7.4c-1.7,0-3.3,0.6-4.5,1.6c-2-6.1-7.3-10.5-13.6-10.5
		c-2.4,0-4.8,0.7-6.9,1.9c-3.1-5.5-8.8-9-15.2-9.1c-4.7,0-9.2,2-12.4,5.4c-3.1-1.9-7-1.9-10.1,0c-1.5-6.6-6.9-11.4-13.4-11.4
		c-2,0-4,0.5-5.8,1.4c-2.3-6-7.8-10.3-14.2-10.3c-2.7,0-5.3,0.8-7.6,2.2c-5.3-8.4-14.1-13.9-24.1-13.9c-11.5,0-21.3,7.2-26.1,17.6
		c-1.4-0.5-2.9-0.7-4.3-0.7c-6.4,0-11.8,4.1-14.3,10c-3.5-2.1-8.5-2.7-13.7-1.4c-6.2,1.6-10.9,5.7-12.6,10.3
		c-3.6-1.1-7.4-0.1-10,2.6c-2-2.2-4.8-3.5-7.8-3.5c-5.6,0-10.3,4.5-11.1,10.4c-1.7-3.2-5-5.3-8.6-5.3c-5.5,0-10,4.9-10,10.8v0.2
		c-15.6,0.9-27.3,4.5-27.3,9c0,4.2,10.5,7.7,24.9,8.8c1.7,2.8,4.7,4.6,8,4.6c2.6,0,5-1.1,6.7-3c2.2,4,6.4,6.6,11,6.6
		c3.4,0,6.6-1.4,8.9-3.9c1.6,3.9,5.4,6.5,9.7,6.6c1.9,0,3.7-0.5,5.3-1.5c1.4,0.8,2.9,1.2,4.5,1.2c0.9,0,1.8-0.1,2.6-0.4
		c1,0.4,2.1,0.8,3.2,1c3.4,3.1,7.8,4.8,12.4,4.8c6.1-0.1,11.8-3.1,15.3-8.1c3.4,3.4,8.1,5.3,12.9,5.3c3.4,0,6.7-1,9.6-2.8
		c4.5,3.4,10.7,3.7,15.5,0.7c3.7,5.1,9.6,8.1,15.8,8.1c5.1,0,9.9-2,13.6-5.6c1.8,1.4,4.1,2.2,6.5,2.2c3,0,5.8-1.3,7.9-3.5
		c2.8,3.9,7.3,6.2,12.1,6.3c5.5-0.1,10.6-3.1,13.2-8c1.7,3,4.9,4.8,8.3,4.8c2,0,4-0.7,5.6-1.9c5.5,3,11.6,4.6,17.8,4.5
		c9.9,0,18.6-3.5,23-8.6c1.9,2.8,5.1,4.4,8.4,4.5c4.1-0.1,7.8-2.5,9.5-6.3c1.2,0.5,2.5,0.8,3.8,0.8c3.3,0,6.4-1.7,8.3-4.3
		c1.2,1.8,3.3,3,5.5,3c2.6,0,4.9-1.6,6-3.9l0.5,0.1c1.9,0,3.7-0.8,4.9-2.2c0.8,0.7,1.7,1.1,2.8,1.1c1.2,0,2.3-0.5,3.1-1.4
		c0.7,0.5,1.5,0.7,2.3,0.7c1.2,0,2.3-0.5,3.1-1.4h0.3c4.8,0,8.7-1.4,8.7-3.1S873.7,308.5,868.9,308.5z"/>
	<path class="st0" d="M332.7,124.1c-1.1-1.6-3.2-2.2-5-1.5c-0.6-1.4-1.9-2.2-3.4-2.3c-1,0-2,0.4-2.7,1.2c-1.2-1.8-3.2-2.9-5.4-2.9
		c-0.8,0-1.5,0.2-2.2,0.4c-0.9-2.8-3.5-4.7-6.4-4.7c-2.3,0-4.4,1.3-5.6,3.2c-1.8-1.4-3.9-2.1-6.1-2.1c-1.3,0-2.5,0.2-3.7,0.7
		c-1-3.3-4-5.6-7.5-5.7c-1.2,0-2.4,0.3-3.4,0.9c-0.4-4.1-3.7-7.3-7.8-7.4c-1.6,0-3.2,0.6-4.5,1.6c-2-6.1-7.4-10.5-13.6-10.5
		c-2.4,0-4.8,0.7-6.9,1.9c-3-5.5-8.8-9-15.1-9.1c-4.7,0-9.1,2-12.4,5.4c-3.1-1.9-7-1.9-10.1,0c-1.5-6.6-6.9-11.4-13.4-11.4
		c-2,0-4,0.5-5.8,1.4c-2.3-6-7.8-10.3-14.2-10.3c-2.7,0-5.3,0.8-7.6,2.2c-5.3-8.4-14.1-13.9-24.1-13.9c-11.5,0-21.3,7.2-26.1,17.6
		c-1.4-0.5-2.9-0.7-4.3-0.7c-6.4,0-11.8,4.1-14.3,10.1c-3.5-2.1-8.5-2.7-13.7-1.3c-6.2,1.7-10.9,5.7-12.6,10.3
		c-0.9-0.3-1.9-0.4-2.8-0.4c-2.7,0-5.2,1.1-7.1,3c-2-2.2-4.8-3.5-7.8-3.5c-5.6,0-10.3,4.5-11.1,10.3c-1.7-3.2-5-5.3-8.6-5.3
		c-5.5,0-10,4.8-10,10.8v0.2C11.7,113,0,116.7,0,121.2c0,4.2,10.5,7.7,24.9,8.8c1.7,2.8,4.7,4.6,8,4.6c2.6,0,5-1.1,6.7-3
		c2.2,4,6.4,6.6,11,6.6c3.4,0,6.6-1.4,8.9-3.9c1.6,3.9,5.4,6.5,9.7,6.6c1.9,0,3.7-0.5,5.3-1.6c1.4,0.8,2.9,1.2,4.5,1.2
		c0.9,0,1.8-0.1,2.6-0.4c1,0.4,2.1,0.8,3.2,1c3.4,3.1,7.8,4.8,12.4,4.8c6.1-0.1,11.8-3.1,15.3-8.1c3.4,3.4,8.1,5.3,12.9,5.3
		c3.4,0,6.7-1,9.6-2.8c4.5,3.4,10.7,3.7,15.5,0.7c3.7,5.1,9.6,8.1,15.8,8.1c5,0,9.9-2,13.5-5.5c4.4,3.4,10.6,2.8,14.3-1.3
		c2.8,3.9,7.3,6.2,12.1,6.3c5.5-0.1,10.6-3.1,13.2-8c1.7,3,4.9,4.8,8.3,4.8c2,0,4-0.7,5.6-1.9c5.5,3,11.6,4.5,17.9,4.4
		c9.9,0,18.6-3.5,23-8.6c1.9,2.8,5.1,4.4,8.4,4.5c4.1-0.1,7.8-2.6,9.5-6.3c1.2,0.5,2.5,0.8,3.8,0.8c3.3,0,6.4-1.7,8.3-4.3
		c2,3,6,3.9,9.1,2c1.1-0.7,1.9-1.7,2.4-2.8c0.2,0,0.4,0,0.5,0.1c1.9,0,3.7-0.8,4.9-2.2c0.8,0.7,1.8,1.1,2.8,1.1
		c1.2,0,2.3-0.5,3.1-1.4c0.7,0.5,1.5,0.7,2.3,0.7c1.2,0,2.3-0.5,3.1-1.4h0.3c4.8,0,8.7-1.4,8.7-3.1S337.5,124.1,332.7,124.1z"/>
</g>
<g>
	<rect x="125.9" y="626.2" class="st1" width="6.3" height="228"/>
	<rect x="125.9" y="626.2" class="st2" width="1.8" height="228"/>
	<rect x="132.2" y="626.2" class="st2" width="1.8" height="228"/>
	<path class="st3" d="M208.1,725.4c-9.4,6.2-18.3,13.2-28.2,18.4c-6.5,3.5-14.3,4.5-21.5,6.6c-0.6,0.1-1.1,0.1-1.7,0.2
		c-0.8,0-1.6,0.1-2.4,0.1c-0.6,0-1.2,0.1-1.8,0.1c-0.4,0.1-0.8,0.2-1.1,0.3c-0.4,0-0.8,0-1.2,0c-2,0-3.9,0-5.9,0
		c-1.1-0.1-2.2-0.2-3.3-0.2c-0.1-0.2-0.2-0.5-0.3-0.7c3.4-1.4,6.8-2.9,10.3-4.2c18.5-7.4,37-14.8,55.4-22.1c1.2-0.5,2.3-0.9,3.5-1.3
		c0.1,0.4,0.2,0.9,0.2,1.3C209.3,724.3,208.7,724.8,208.1,725.4z"/>
	<path class="st4" d="M206.8,720.5c-21.7,8.6-43.4,17.3-65.1,25.9C158.7,726.5,181.4,720.3,206.8,720.5z"/>
	<path class="st5" d="M218.5,715.8c-11.4,1-22.9,1.6-34.2,3.3c-17.2,2.5-31.6,10.7-43.8,22.8c-1.5,1.5-2.6,3.3-3.9,4.9
		c-0.2,0.3-0.4,0.6-0.7,0.8c-0.3,0.2-0.6,0.3-0.9,0.5c-0.2,0.1-0.5,0.2-0.7,0.3l0.1,0.1c-0.1,1-0.3,2-0.4,3c0.1,0,0.1,0.1,0.2,0.1
		c-0.1,0.2-0.1,0.3-0.2,0.5c8.1,0.1,15.6,0.3,23.1,0.4c0.8-0.1,1.7-0.1,2.5-0.2c1.1-0.2,2.1-0.4,3.2-0.6c0.2,0,0.5-0.1,0.7-0.1
		c0,0,0.1,0,0.1,0c0.7,0,1.4,0,2-0.1c17.7-3.7,31.9-13.6,45-25.2c-0.4-0.1-0.7-0.3-1.1-0.4l0,0c-0.5,0-1.1,0-1.6,0
		c-0.1-0.1-0.2-0.2-0.3-0.3c-9.2,6.1-18,12.9-27.8,18.1c-6.4,3.4-14,4.4-21.1,6.5c0,0-0.1,0-0.1,0c-0.5,0.1-1.1,0.1-1.6,0.2
		c-0.8,0-1.6,0.1-2.3,0.1c-0.6,0-1.2,0.1-1.8,0.1c-0.4,0.1-0.7,0.2-1.1,0.3c-0.4,0-0.8,0-1.2,0c-1.9,0-3.9,0-5.8,0
		c-1.1-0.1-2.2-0.1-3.2-0.2c-0.1-0.2-0.2-0.5-0.3-0.7c3.4-1.4,6.7-2.8,10.1-4.2c18.2-7.3,36.4-14.5,54.5-21.7
		c1.1-0.5,2.3-0.9,3.4-1.3c0.1,0.4,0.1,0.9,0.2,1.3c0,0,0,0,0,0c-0.6,0.5-1.3,1-1.9,1.5c0.1,0.1,0.2,0.2,0.3,0.3c0.5,0,1.1,0,1.6,0
		c0,0,0,0,0,0c0.4,0.1,0.7,0.3,1.1,0.4c0,0,0.1-0.1,0.1-0.1c0.7-0.6,1.5-1.3,2.2-1.9c0,0,0,0,0,0c0.3-0.2,0.6-0.5,0.9-0.7
		c0.4-0.3,0.7-0.6,1.1-0.9c2.1-1.8,4.2-3.5,7.1-5.9C220.1,716.2,219.3,715.7,218.5,715.8z M141.7,746.5c17-20,39.7-26.2,65.1-25.9
		C185.1,729.2,163.4,737.8,141.7,746.5z"/>
	<path class="st6" d="M208.1,653.9c-9.4,6.2-18.3,13.2-28.2,18.4c-6.5,3.5-14.3,4.5-21.5,6.6c-0.6,0.1-1.1,0.1-1.7,0.2
		c-0.8,0-1.6,0.1-2.4,0.1c-0.6,0-1.2,0.1-1.8,0.1c-0.4,0.1-0.8,0.2-1.1,0.3c-0.4,0-0.8,0-1.2,0c-2,0-3.9,0-5.9,0
		c-1.1-0.1-2.2-0.2-3.3-0.2c-0.1-0.2-0.2-0.5-0.3-0.7c3.4-1.4,6.8-2.9,10.3-4.2c18.5-7.4,37-14.8,55.4-22.1c1.2-0.5,2.3-0.9,3.5-1.3
		c0.1,0.4,0.2,0.9,0.2,1.3C209.3,652.8,208.7,653.4,208.1,653.9z"/>
	<path class="st7" d="M206.8,649.1c-21.7,8.6-43.4,17.3-65.1,25.9C158.7,655,181.4,648.8,206.8,649.1z"/>
	<path class="st5" d="M218.5,644.3c-11.4,1-22.9,1.6-34.2,3.3c-17.2,2.5-31.6,10.7-43.8,22.8c-1.5,1.5-2.6,3.3-3.9,4.9
		c-0.2,0.3-0.4,0.6-0.7,0.8c-0.3,0.2-0.6,0.3-0.9,0.5c-0.2,0.1-0.5,0.2-0.7,0.3l0.1,0.1c-0.1,1-0.3,2-0.4,3c0.1,0,0.1,0.1,0.2,0.1
		c-0.1,0.2-0.1,0.3-0.2,0.5c8.1,0.1,15.6,0.3,23.1,0.4c0.8-0.1,1.7-0.1,2.5-0.2c1.1-0.2,2.1-0.4,3.2-0.6c0.2,0,0.5-0.1,0.7-0.1
		c0,0,0.1,0,0.1,0c0.7,0,1.4,0,2-0.1c17.7-3.7,31.9-13.6,45-25.2c-0.4-0.1-0.7-0.3-1.1-0.4l0,0c-0.5,0-1.1,0-1.6,0
		c-0.1-0.1-0.2-0.2-0.3-0.3c-9.2,6.1-18,12.9-27.8,18.1c-6.4,3.4-14,4.4-21.1,6.5c0,0-0.1,0-0.1,0c-0.5,0.1-1.1,0.1-1.6,0.2
		c-0.8,0-1.6,0.1-2.3,0.1c-0.6,0-1.2,0.1-1.8,0.1c-0.4,0.1-0.7,0.2-1.1,0.3c-0.4,0-0.8,0-1.2,0c-1.9,0-3.9,0-5.8,0
		c-1.1-0.1-2.2-0.1-3.2-0.2c-0.1-0.2-0.2-0.5-0.3-0.7c3.4-1.4,6.7-2.8,10.1-4.2c18.2-7.3,36.4-14.5,54.5-21.7
		c1.1-0.5,2.3-0.9,3.4-1.3c0.1,0.4,0.1,0.9,0.2,1.3c0,0,0,0,0,0c-0.6,0.5-1.3,1-1.9,1.5c0.1,0.1,0.2,0.2,0.3,0.3c0.5,0,1.1,0,1.6,0
		c0,0,0,0,0,0c0.4,0.1,0.7,0.3,1.1,0.4c0,0,0.1-0.1,0.1-0.1c0.7-0.6,1.5-1.3,2.2-1.9c0,0,0,0,0,0c0.3-0.2,0.6-0.5,0.9-0.7
		c0.4-0.3,0.7-0.6,1.1-0.9c2.1-1.8,4.2-3.5,7.1-5.9C220.1,644.7,219.3,644.3,218.5,644.3z M141.7,675c17-20,39.7-26.2,65.1-25.9
		C185.1,657.7,163.4,666.4,141.7,675z"/>
	<path class="st8" d="M51.8,759.3c9.4,6.2,18.3,13.2,28.2,18.4c6.5,3.5,14.3,4.5,21.5,6.6c0.6,0.1,1.1,0.1,1.7,0.2
		c0.8,0,1.6,0.1,2.4,0.1c0.6,0,1.2,0.1,1.8,0.1c0.4,0.1,0.8,0.2,1.1,0.3c0.4,0,0.8,0,1.2,0c2,0,3.9,0,5.9,0c1.1-0.1,2.2-0.2,3.3-0.2
		c0.1-0.2,0.2-0.5,0.3-0.7c-3.4-1.4-6.8-2.9-10.3-4.2c-18.5-7.4-37-14.8-55.4-22.1c-1.2-0.5-2.3-0.9-3.5-1.3
		c-0.1,0.4-0.2,0.9-0.2,1.3C50.6,758.3,51.2,758.8,51.8,759.3z"/>
	<path class="st9" d="M53.1,754.5c21.7,8.6,43.4,17.3,65.1,25.9C101.2,760.4,78.5,754.2,53.1,754.5z"/>
	<path class="st5" d="M41.4,749.8c11.4,1,22.9,1.6,34.2,3.3c17.2,2.5,31.6,10.7,43.8,22.8c1.5,1.5,2.6,3.3,3.9,4.9
		c0.2,0.3,0.4,0.6,0.7,0.8c0.3,0.2,0.6,0.3,0.9,0.5c0.2,0.1,0.5,0.2,0.7,0.3l-0.1,0.1c0.1,1,0.3,2,0.4,3c-0.1,0-0.1,0.1-0.2,0.1
		c0.1,0.2,0.1,0.3,0.2,0.5c-8.1,0.1-15.6,0.3-23.1,0.4c-0.8-0.1-1.7-0.1-2.5-0.2c-1.1-0.2-2.1-0.4-3.2-0.6c-0.2,0-0.5-0.1-0.7-0.1
		c0,0-0.1,0-0.1,0c-0.7,0-1.4,0-2-0.1c-17.7-3.7-31.9-13.6-45-25.2c0.4-0.1,0.7-0.3,1.1-0.4l0,0c0.5,0,1.1,0,1.6,0
		c0.1-0.1,0.2-0.2,0.3-0.3c9.2,6.1,18,12.9,27.8,18.1c6.4,3.4,14,4.4,21.1,6.5c0,0,0.1,0,0.1,0c0.5,0.1,1.1,0.1,1.6,0.2
		c0.8,0,1.6,0.1,2.3,0.1c0.6,0,1.2,0.1,1.8,0.1c0.4,0.1,0.7,0.2,1.1,0.3c0.4,0,0.8,0,1.2,0c1.9,0,3.9,0,5.8,0
		c1.1-0.1,2.2-0.1,3.2-0.2c0.1-0.2,0.2-0.5,0.3-0.7c-3.4-1.4-6.7-2.8-10.1-4.2c-18.2-7.3-36.4-14.5-54.5-21.7
		c-1.1-0.5-2.3-0.9-3.4-1.3c-0.1,0.4-0.1,0.9-0.2,1.3c0,0,0,0,0,0c0.6,0.5,1.3,1,1.9,1.5c-0.1,0.1-0.2,0.2-0.3,0.3
		c-0.5,0-1.1,0-1.6,0c0,0,0,0,0,0c-0.4,0.1-0.7,0.3-1.1,0.4c0,0-0.1-0.1-0.1-0.1c-0.7-0.6-1.5-1.3-2.2-1.9c0,0,0,0,0,0
		c-0.3-0.2-0.6-0.5-0.9-0.7c-0.4-0.3-0.7-0.6-1.1-0.9c-2.1-1.8-4.2-3.5-7.1-5.9C39.8,750.2,40.7,749.7,41.4,749.8z M118.3,780.4
		c-17-20-39.7-26.2-65.1-25.9C74.8,763.1,96.5,771.8,118.3,780.4z"/>
	<path class="st10" d="M51.8,692.3c9.4,6.2,18.3,13.2,28.2,18.4c6.5,3.5,14.3,4.5,21.5,6.6c0.6,0.1,1.1,0.1,1.7,0.2
		c0.8,0,1.6,0.1,2.4,0.1c0.6,0,1.2,0.1,1.8,0.1c0.4,0.1,0.8,0.2,1.1,0.3c0.4,0,0.8,0,1.2,0c2,0,3.9,0,5.9,0c1.1-0.1,2.2-0.2,3.3-0.2
		c0.1-0.2,0.2-0.5,0.3-0.7c-3.4-1.4-6.8-2.9-10.3-4.2c-18.5-7.4-37-14.8-55.4-22.1c-1.2-0.5-2.3-0.9-3.5-1.3
		c-0.1,0.4-0.2,0.9-0.2,1.3C50.6,691.2,51.2,691.8,51.8,692.3z"/>
	<path class="st11" d="M53.1,687.5c21.7,8.6,43.4,17.3,65.1,25.9C101.2,693.4,78.5,687.2,53.1,687.5z"/>
	<path class="st5" d="M41.4,682.7c11.4,1,22.9,1.6,34.2,3.3c17.2,2.5,31.6,10.7,43.8,22.8c1.5,1.5,2.6,3.3,3.9,4.9
		c0.2,0.3,0.4,0.6,0.7,0.8c0.3,0.2,0.6,0.3,0.9,0.5c0.2,0.1,0.5,0.2,0.7,0.3l-0.1,0.1c0.1,1,0.3,2,0.4,3c-0.1,0-0.1,0.1-0.2,0.1
		c0.1,0.2,0.1,0.3,0.2,0.5c-8.1,0.1-15.6,0.3-23.1,0.4c-0.8-0.1-1.7-0.1-2.5-0.2c-1.1-0.2-2.1-0.4-3.2-0.6c-0.2,0-0.5-0.1-0.7-0.1
		c0,0-0.1,0-0.1,0c-0.7,0-1.4,0-2-0.1c-17.7-3.7-31.9-13.6-45-25.2c0.4-0.1,0.7-0.3,1.1-0.4l0,0c0.5,0,1.1,0,1.6,0
		c0.1-0.1,0.2-0.2,0.3-0.3c9.2,6.1,18,12.9,27.8,18.1c6.4,3.4,14,4.4,21.1,6.5c0,0,0.1,0,0.1,0c0.5,0.1,1.1,0.1,1.6,0.2
		c0.8,0,1.6,0.1,2.3,0.1c0.6,0,1.2,0.1,1.8,0.1c0.4,0.1,0.7,0.2,1.1,0.3c0.4,0,0.8,0,1.2,0c1.9,0,3.9,0,5.8,0
		c1.1-0.1,2.2-0.1,3.2-0.2c0.1-0.2,0.2-0.5,0.3-0.7c-3.4-1.4-6.7-2.8-10.1-4.2c-18.2-7.3-36.4-14.5-54.5-21.7
		c-1.1-0.5-2.3-0.9-3.4-1.3c-0.1,0.4-0.1,0.9-0.2,1.3c0,0,0,0,0,0c0.6,0.5,1.3,1,1.9,1.5c-0.1,0.1-0.2,0.2-0.3,0.3
		c-0.5,0-1.1,0-1.6,0c0,0,0,0,0,0c-0.4,0.1-0.7,0.3-1.1,0.4c0,0-0.1-0.1-0.1-0.1c-0.7-0.6-1.5-1.3-2.2-1.9c0,0,0,0,0,0
		c-0.3-0.2-0.6-0.5-0.9-0.7c-0.4-0.3-0.7-0.6-1.1-0.9c-2.1-1.8-4.2-3.5-7.1-5.9C39.8,683.1,40.7,682.7,41.4,682.7z M118.3,713.4
		c-17-20-39.7-26.2-65.1-25.9C74.8,696.1,96.5,704.7,118.3,713.4z"/>
	<path class="st12" d="M178,508c0.7,4.9,0.7,9.9,0,14.8c0,0.1,0,0.2,0,0.3l-0.1,0.7l-0.1,0.7c0,0.1,0,0.2-0.1,0.3
		c-0.2,1.2-0.5,2.3-0.8,3.5c-0.2,0.8-0.4,1.6-0.7,2.3l0,0.1c-0.1,0.3-0.2,0.6-0.3,0.9c-0.1,0.2-0.1,0.4-0.2,0.6
		c-0.1,0.2-0.1,0.3-0.1,0.4c-5,13.6-15.7,24.3-29.3,29.3l-0.4,0.1l-0.6,0.2l-0.9,0.3l-0.1,0l-1.1,0.3c-0.4,0.1-0.8,0.2-1.2,0.3
		c-1.2,0.3-2.3,0.6-3.5,0.8l-0.2,0l-0.8,0.1l-0.7,0.1l-0.3,0.1c-2.4,0.4-4.9,0.5-7.4,0.5c-0.9,0-1.7,0-2.5-0.1
		c-1.6-0.1-3.2-0.3-4.8-0.5l-0.3-0.1l-0.7-0.1l-0.8-0.1l-0.2,0c-1.2-0.2-2.3-0.5-3.5-0.8c-0.8-0.2-1.6-0.4-2.3-0.7l-0.1,0l-0.9-0.3
		l-0.6-0.2l-0.4-0.1c-19.5-7.2-32.4-25.7-32.4-46.5c0-1.2,0.1-2.4,0.1-3.7c1.2-16.1,10.1-30.6,24-38.9c0.3-0.2,0.5-0.3,0.8-0.5
		l0.4-0.2l1-0.5l0.3-0.2c0.4-0.2,0.8-0.4,1.3-0.6l0.3-0.2l1-0.5l0.4-0.2c0.3-0.2,0.7-0.3,1-0.4l0.3-0.1c0.4-0.2,0.9-0.3,1.3-0.5
		l0.3-0.1l1-0.4l0.4-0.1l1.1-0.3l0.3-0.1c0.5-0.1,0.9-0.3,1.4-0.4l0.4-0.1c0.3-0.1,0.7-0.2,1-0.3l0.4-0.1c0.4-0.1,0.8-0.2,1.1-0.2
		l0.3-0.1c0.5-0.1,0.9-0.2,1.4-0.2l0.4-0.1l1.1-0.2l0.4-0.1l1.2-0.1h0.2l1.4-0.1h0.4l1.1-0.1h0.5c0.4,0,0.8,0,1.3,0h0.1
		c0.4,0,0.9,0,1.3,0h0.4l1.1,0.1h0.4c0.5,0,1,0.1,1.4,0.1h0.2l1.3,0.1l0.4,0.1c0.4,0.1,0.7,0.1,1.1,0.2l0.3,0.1
		c0.5,0.1,1,0.2,1.4,0.3l0.2,0c0.4,0.1,0.8,0.2,1.3,0.3l0.4,0.1l1.1,0.3l0.3,0.1c0.5,0.1,0.9,0.3,1.4,0.4l0.2,0.1
		c0.4,0.1,0.8,0.2,1.2,0.4l0.4,0.1c0.4,0.1,0.8,0.3,1.1,0.4l0.2,0.1c0.5,0.2,0.9,0.4,1.4,0.5l0.2,0.1c0.4,0.2,0.8,0.3,1.2,0.5
		l0.3,0.1l1.1,0.5l0.2,0.1c0.4,0.2,0.9,0.4,1.3,0.7l0.2,0.1c0.4,0.2,0.7,0.4,1.1,0.6l0.3,0.2l1,0.6c9.6,5.8,17,14.7,21,25.3
		c0.1,0.1,0.1,0.3,0.1,0.4c0.1,0.1,0.1,0.4,0.2,0.6c0.1,0.3,0.2,0.6,0.3,0.9l0,0.1c0.2,0.8,0.5,1.5,0.7,2.3c0.3,1.1,0.6,2.3,0.8,3.5
		c0,0.1,0,0.2,0.1,0.3l0.1,0.7l0.1,0.7C178,507.9,178,507.9,178,508z M166.1,510.2l0.1-0.8l-0.8-0.3c-0.2-0.1-15.9-6.7-36.8-6.7
		S92,508.9,91.8,509l-0.8,0.3l0.1,0.8c3,19.4,18.8,40.2,37.4,40.2S163.1,529.6,166.1,510.2L166.1,510.2z M151.1,495.8
		c2.2-1.3,2.3-5,0.4-8.2c-1.9-3.2-5.3-4.8-7.5-3.5c-2.2,1.3-2.4,5-0.4,8.2C145.6,495.6,148.9,497.1,151.1,495.8L151.1,495.8z
		 M113.7,492.3c1.9-3.2,1.8-6.9-0.4-8.2s-5.5,0.2-7.5,3.5s-1.8,6.9,0.4,8.2C108.4,497.1,111.7,495.5,113.7,492.3L113.7,492.3z"/>
	<path class="st13" d="M166.2,509.3l-0.1,0.8c-3,19.4-18.8,40.2-37.4,40.2s-34.4-20.8-37.4-40.2l-0.1-0.8l0.8-0.3
		c0.2-0.1,15.9-6.7,36.8-6.7s36.6,6.6,36.8,6.7L166.2,509.3z M151.5,536.2c6.3-7.3,10.5-16.1,12.3-25.5c-22.7-8.3-47.6-8.3-70.2,0
		c1.7,9.4,6,18.3,12.3,25.5c6.8,7.7,14.9,12,22.8,12C136.6,548.2,144.7,543.9,151.5,536.2z"/>
	<path class="st14" d="M163.8,510.7c-1.7,9.4-6,18.2-12.3,25.5c-6.8,7.7-14.9,12-22.8,12s-16.1-4.2-22.8-12
		c-6.3-7.3-10.5-16.1-12.3-25.5C116.2,502.4,141.1,502.4,163.8,510.7L163.8,510.7z"/>
	<path class="st13" d="M151.5,487.6c1.9,3.2,1.8,6.9-0.4,8.2s-5.5-0.2-7.5-3.5c-2-3.2-1.8-6.9,0.4-8.2S149.5,484.3,151.5,487.6z
		 M151,495c0.7-0.2,1-1.3,0.7-2.3c-0.3-1.1-1.2-1.7-1.9-1.5c-0.7,0.2-1,1.3-0.7,2.3C149.4,494.6,150.2,495.3,151,495L151,495z
		 M146.5,489.9c1-0.3,1.4-1.8,0.9-3.3c-0.5-1.5-1.7-2.5-2.7-2.1c-1,0.3-1.4,1.8-0.9,3.3C144.3,489.3,145.5,490.2,146.5,489.9
		L146.5,489.9z"/>
	<path class="st15" d="M151.7,492.7c0.3,1,0,2.1-0.7,2.3c-0.7,0.2-1.6-0.4-1.9-1.5c-0.3-1,0-2.1,0.7-2.3
		C150.5,491,151.3,491.7,151.7,492.7z"/>
	<path class="st15" d="M147.3,486.6c0.5,1.5,0.1,3-0.9,3.3c-1,0.3-2.2-0.6-2.7-2.1c-0.5-1.5-0.1-3,0.9-3.3
		C145.6,484.1,146.8,485.1,147.3,486.6z"/>
	<path class="st13" d="M113.3,484.1c2.2,1.3,2.3,5,0.4,8.2c-1.9,3.2-5.3,4.8-7.5,3.5c-2.2-1.3-2.4-5-0.4-8.2
		C107.7,484.3,111.1,482.8,113.3,484.1z M113.5,487.8c0.5-1.5,0.1-3-0.9-3.3c-1-0.3-2.2,0.6-2.7,2.1c-0.5,1.5-0.1,3,0.9,3.3
		C111.8,490.2,113,489.3,113.5,487.8L113.5,487.8z M108.3,493.6c0.3-1,0-2.1-0.7-2.3c-0.7-0.2-1.6,0.4-1.9,1.5c-0.3,1,0,2.1,0.7,2.3
		C107.1,495.3,107.9,494.6,108.3,493.6L108.3,493.6z"/>
	<path class="st15" d="M112.6,484.4c1,0.3,1.4,1.8,0.9,3.3s-1.7,2.5-2.7,2.1c-1-0.3-1.4-1.8-0.9-3.3S111.6,484.1,112.6,484.4z"/>
	<path class="st15" d="M107.6,491.2c0.7,0.2,1,1.3,0.7,2.3c-0.3,1.1-1.2,1.7-1.9,1.5s-1-1.3-0.7-2.3
		C106,491.6,106.8,491,107.6,491.2z"/>
	<g>
		<path class="st0" d="M234.6,500.8c3.5,3.7,5.4,8.7,5.4,14.6s-1.9,11-5.4,14.6c-5.3,5.6-10.5,9.5-24.4,5.8l-30.8-8.2
			c0.9-3.7,1.4-7.6,1.5-11.4v0c0-0.3,0-0.5,0-0.8s0-0.5,0-0.8v0c-0.1-3.8-0.5-7.7-1.5-11.4l30.8-8.2
			C224.1,491.3,229.3,495.2,234.6,500.8z"/>
		<path class="st16" d="M225.1,460c3,5.1,3.9,10.4,2.7,15.4c-1.8,7.5-4.4,13.5-18.2,17.3l-30.8,8.3c-0.5-1.6-1-3.2-1.7-4.8l-0.2-0.5
			c-0.1-0.2-0.1-0.3-0.2-0.4c-2.4-5.7-5.9-11-10.2-15.5l22.6-22.6c10.2-10.1,16.7-9.3,24.1-7.2C218,451.4,222.2,454.8,225.1,460z"/>
		<path class="st16" d="M227.8,555.5c1.2,4.9,0.3,10.3-2.7,15.4c-3,5.1-7.1,8.6-12,10c-7.4,2.1-13.9,3-24.1-7.2l-22.6-22.6
			c4.3-4.5,7.8-9.7,10.2-15.5c0.1-0.1,0.1-0.3,0.2-0.4l0.2-0.5c0.6-1.6,1.2-3.2,1.7-4.8l30.8,8.3C223.4,542,225.9,548,227.8,555.5z"
			/>
		<path class="st0" d="M194.5,431.3c2.1,7.4,3,13.9-7.2,24.1L164.8,478c-4.5-4.3-9.7-7.7-15.5-10.2l-0.5-0.2l-0.4-0.2
			c-1.6-0.6-3.2-1.2-4.8-1.7l8.3-30.8c3.8-13.9,9.8-16.4,17.3-18.2c4.9-1.2,10.2-0.3,15.4,2.7S193.1,426.4,194.5,431.3z"/>
		<path class="st0" d="M187.3,575.4c10.1,10.2,9.3,16.7,7.2,24.1c-1.4,4.9-4.9,9-10,12c-5.1,3-10.4,3.9-15.4,2.7
			c-7.5-1.9-13.5-4.4-17.3-18.2l-8.3-30.9c1.5-0.5,3-1,4.5-1.6l0.5-0.2l0.3-0.1c0.6-0.2,1.1-0.5,1.6-0.7c0.5-0.2,0.9-0.4,1.4-0.6
			l0,0c4.7-2.3,9-5.3,12.8-8.9L187.3,575.4z"/>
		<path class="st16" d="M143.7,409.9c5.6,5.3,9.5,10.5,5.8,24.4l-8.2,30.8c-3.7-0.9-7.6-1.4-11.4-1.5h-1.6
			c-3.8,0.1-7.7,0.5-11.4,1.5l-8.2-30.8c-3.7-13.9,0.3-19.1,5.8-24.4c3.7-3.5,8.7-5.4,14.6-5.4C135,404.5,140,406.3,143.7,409.9z"/>
		<path class="st16" d="M149.5,596.5c3.7,13.9-0.3,19.1-5.8,24.4c-3.7,3.5-8.7,5.4-14.6,5.4c-5.9,0-11-1.9-14.6-5.4
			c-5.6-5.3-9.5-10.5-5.8-24.4l8.2-30.8c3.6,0.9,7.3,1.4,11,1.4h1h0.5h1c3.7-0.1,7.4-0.6,11-1.4L149.5,596.5z"/>
		<path class="st0" d="M106.2,435l8.3,30.8c-1.6,0.5-3.2,1-4.8,1.7l-0.5,0.2l-0.5,0.2c-5.7,2.4-11,5.9-15.5,10.2l-22.6-22.6
			c-10.1-10.2-9.3-16.7-7.2-24.1c1.4-4.9,4.9-9,10-12s10.4-3.9,15.4-2.7C96.4,418.5,102.5,421.1,106.2,435z"/>
		<path class="st0" d="M114.5,565.1l-8.3,30.8c-3.8,13.9-9.8,16.4-17.3,18.2c-4.9,1.2-10.2,0.3-15.4-2.7s-8.6-7.1-10-12
			c-2.1-7.4-3-13.9,7.2-24.1l22.6-22.6c4.6,4.4,9.9,7.9,15.8,10.3l0.3,0.1l0.5,0.2C111.5,564.1,113,564.6,114.5,565.1z"/>
		<path class="st16" d="M69,457.1l22.6,22.6c-2.2,2.3-4.2,4.9-5.9,7.5c0,0,0,0-0.1,0.1c-0.2,0.3-0.4,0.6-0.6,0.9l-0.1,0.2
			c-0.2,0.3-0.4,0.6-0.6,1l-0.1,0.2c-1.5,2.6-2.7,5.3-3.8,8c0,0,0,0.1,0,0.1c-0.1,0.3-0.2,0.6-0.4,1c0,0.1-0.1,0.2-0.1,0.3
			c-0.1,0.3-0.2,0.6-0.3,0.9c0,0.1-0.1,0.3-0.1,0.4c-0.1,0.2-0.2,0.5-0.2,0.7l-30.9-8.3c-13.9-3.8-16.4-9.8-18.2-17.3
			c-1.2-4.9-0.3-10.3,2.7-15.4c3-5.1,7.1-8.6,12-10C52.4,447.8,58.8,447,69,457.1z"/>
		<path class="st16" d="M91.6,551.1L69,573.7c-10.2,10.1-16.7,9.3-24.1,7.2c-4.9-1.4-9-4.9-12-10c-3-5.1-3.9-10.4-2.7-15.4
			c1.9-7.5,4.4-13.5,18.2-17.3l30.9-8.3l0,0c0.1,0.2,0.1,0.5,0.2,0.7c0,0.1,0.1,0.3,0.1,0.4c0.1,0.3,0.2,0.6,0.3,0.8
			c0,0.1,0.1,0.2,0.1,0.3c0.1,0.3,0.2,0.6,0.3,1c0,0,0,0.1,0,0.1C82.9,539.9,86.7,546,91.6,551.1L91.6,551.1z"/>
		<path class="st0" d="M78.8,503.2c-0.1,0.2-0.1,0.5-0.2,0.7c0,0.1-0.1,0.3-0.1,0.4c-0.1,0.3-0.1,0.6-0.2,0.9c0,0.1,0,0.2-0.1,0.2
			c-0.1,0.3-0.1,0.7-0.2,1c0,0,0,0,0,0.1c-1,5.9-1,11.8,0,17.7c0,0,0,0,0,0.1c0.1,0.4,0.1,0.7,0.2,1c0,0.1,0,0.2,0.1,0.2
			c0.1,0.3,0.1,0.6,0.2,0.9c0,0.1,0.1,0.3,0.1,0.4c0.1,0.3,0.1,0.5,0.2,0.7L48,535.9c-13.9,3.7-19.1-0.3-24.4-5.8
			c-3.6-3.7-5.4-8.7-5.4-14.6s1.9-11,5.4-14.6c5.3-5.6,10.5-9.5,24.4-5.8L78.8,503.2z"/>
	</g>
	<path class="st17" d="M205.4,782.3c-9.4,6.2-18.3,13.2-28.2,18.4c-6.5,3.5-14.3,4.5-21.5,6.6c-0.6,0.1-1.1,0.1-1.7,0.2
		c-0.8,0-1.6,0.1-2.4,0.1c-0.6,0-1.2,0.1-1.8,0.1c-0.4,0.1-0.8,0.2-1.1,0.3c-0.4,0-0.8,0-1.2,0c-2,0-3.9,0-5.9,0
		c-1.1-0.1-2.2-0.2-3.3-0.2c-0.1-0.2-0.2-0.5-0.3-0.7c3.4-1.4,6.8-2.9,10.3-4.2c18.5-7.4,37-14.8,55.4-22.1c1.2-0.5,2.3-0.9,3.5-1.3
		c0.1,0.4,0.2,0.9,0.2,1.3C206.6,781.3,206,781.8,205.4,782.3z"/>
	<path class="st18" d="M204.1,777.5c-21.7,8.6-43.4,17.3-65.1,25.9C156,783.4,178.7,777.2,204.1,777.5z"/>
	<path class="st5" d="M215.8,772.8c-11.4,1-22.9,1.6-34.2,3.3c-17.2,2.5-31.6,10.7-43.8,22.8c-1.5,1.5-2.6,3.3-3.9,4.9
		c-0.2,0.3-0.4,0.6-0.7,0.8c-0.3,0.2-0.6,0.3-0.9,0.5c-0.2,0.1-0.5,0.2-0.7,0.3l0.1,0.1c-0.1,1-0.3,2-0.4,3c0.1,0,0.1,0.1,0.2,0.1
		c-0.1,0.2-0.1,0.3-0.2,0.5c8.1,0.1,15.6,0.3,23.1,0.4c0.8-0.1,1.7-0.1,2.5-0.2c1.1-0.2,2.1-0.4,3.2-0.6c0.2,0,0.5-0.1,0.7-0.1
		c0,0,0.1,0,0.1,0c0.7,0,1.4,0,2-0.1c17.7-3.7,31.9-13.6,45-25.2c-0.4-0.1-0.7-0.3-1.1-0.4l0,0c-0.5,0-1.1,0-1.6,0
		c-0.1-0.1-0.2-0.2-0.3-0.3c-9.2,6.1-18,12.9-27.8,18.1c-6.4,3.4-14,4.4-21.1,6.5c0,0-0.1,0-0.1,0c-0.5,0.1-1.1,0.1-1.6,0.2
		c-0.8,0-1.6,0.1-2.3,0.1c-0.6,0-1.2,0.1-1.8,0.1c-0.4,0.1-0.7,0.2-1.1,0.3c-0.4,0-0.8,0-1.2,0c-1.9,0-3.9,0-5.8,0
		c-1.1-0.1-2.2-0.1-3.2-0.2c-0.1-0.2-0.2-0.5-0.3-0.7c3.4-1.4,6.7-2.8,10.1-4.2c18.2-7.3,36.4-14.5,54.5-21.7
		c1.1-0.5,2.3-0.9,3.4-1.3c0.1,0.4,0.1,0.9,0.2,1.3c0,0,0,0,0,0c-0.6,0.5-1.3,1-1.9,1.5c0.1,0.1,0.2,0.2,0.3,0.3c0.5,0,1.1,0,1.6,0
		c0,0,0,0,0,0c0.4,0.1,0.7,0.3,1.1,0.4c0,0,0.1-0.1,0.1-0.1c0.7-0.6,1.5-1.3,2.2-1.9c0,0,0,0,0,0c0.3-0.2,0.6-0.5,0.9-0.7
		c0.4-0.3,0.7-0.6,1.1-0.9c2.1-1.8,4.2-3.5,7.1-5.9C217.4,773.2,216.6,772.7,215.8,772.8z M139,803.4c17-20,39.7-26.2,65.1-25.9
		C182.4,786.1,160.7,794.8,139,803.4z"/>
</g>
<g>
	<path class="st17" d="M612.2,655.2c-21,14-41.2,29.6-63.4,41.4c-14.6,7.8-32.2,10.1-48.4,14.9c-1.2,0.1-2.5,0.3-3.7,0.4
		c-1.8,0.1-3.6,0.1-5.3,0.2c-1.4,0.1-2.7,0.2-4.1,0.3c-0.8,0.3-1.7,0.5-2.5,0.8c-0.9,0-1.9,0-2.8-0.1c-4.4,0-8.8,0.1-13.2,0.1
		c-2.5-0.2-4.9-0.3-7.4-0.5c-0.2-0.5-0.4-1.1-0.7-1.6c7.7-3.2,15.3-6.4,23-9.5c41.5-16.6,83-33.2,124.5-49.7c2.6-1,5.2-2,7.8-3
		c0.2,1,0.3,2,0.5,2.9C615,652.9,613.6,654,612.2,655.2z"/>
	<path class="st18" d="M609.3,644.4c-48.7,19.4-97.5,38.8-146.2,58.2C501.3,657.8,552.3,643.8,609.3,644.4z"/>
	<path class="st5" d="M635.5,633.8c-25.6,2.3-51.3,3.7-76.7,7.4c-38.5,5.6-70.9,24-98.3,51.1c-3.3,3.3-5.9,7.4-8.8,11.1
		c-0.5,0.6-1,1.3-1.5,1.9c-0.7,0.4-1.3,0.8-2,1.2c-0.5,0.2-1,0.4-1.6,0.6l0.2,0.2c-0.3,2.2-0.7,4.5-1,6.7c0.2,0.1,0.3,0.1,0.4,0.2
		c-0.1,0.4-0.3,0.7-0.4,1.1c18.2,0.3,35,0.6,51.8,0.9c1.9-0.1,3.7-0.3,5.6-0.4c2.4-0.5,4.8-1,7.2-1.5c0.5-0.1,1.1-0.2,1.6-0.3
		c0.1,0,0.2,0.1,0.3,0.1c1.5-0.1,3.1,0,4.5-0.3c39.8-8.3,71.5-30.6,101.1-56.7c-0.8-0.3-1.6-0.6-2.4-1l0,0c-1.2,0-2.4,0-3.7,0
		c-0.2-0.2-0.5-0.4-0.7-0.6c-20.7,13.7-40.5,29-62.4,40.6c-14.3,7.6-31.4,9.9-47.3,14.5c-0.1,0-0.2-0.1-0.3-0.1
		c-1.2,0.1-2.5,0.3-3.7,0.4c-1.8,0.1-3.5,0.1-5.3,0.2c-1.3,0.1-2.7,0.2-4,0.3c-0.8,0.3-1.7,0.5-2.5,0.8c-0.9,0-1.8,0-2.7-0.1
		c-4.3,0-8.7,0.1-13,0.1c-2.4-0.2-4.9-0.3-7.3-0.5c-0.2-0.5-0.4-1.1-0.6-1.6c7.6-3.1,15.1-6.3,22.7-9.3
		c40.8-16.3,81.7-32.5,122.5-48.8c2.6-1,5.1-1.9,7.7-2.9c0.2,1,0.3,1.9,0.5,2.9c0,0,0,0,0,0c-1.4,1.1-2.8,2.3-4.2,3.4
		c0.2,0.2,0.5,0.4,0.7,0.6c1.2,0,2.4,0,3.7,0c0,0,0,0,0,0c0.8,0.3,1.6,0.6,2.4,1c0,0,0.2-0.2,0.2-0.2c1.6-1.4,3.3-2.8,4.9-4.3
		c0,0,0,0,0,0c0.6-0.5,1.3-1.1,1.9-1.6c0.8-0.6,1.6-1.3,2.4-1.9c4.8-4,9.5-7.9,15.9-13.2C639.2,634.7,637.3,633.6,635.5,633.8z
		 M463,702.6c38.3-44.9,89.2-58.9,146.2-58.2C560.5,663.8,511.8,683.2,463,702.6z"/>
	<path class="st10" d="M272.1,471.4c21.1,14,41.3,29.6,63.6,41.5c14.7,7.8,32.3,10.1,48.5,14.9c1.3,0.1,2.5,0.3,3.8,0.4
		c1.8,0.1,3.6,0.1,5.4,0.2c1.4,0.1,2.8,0.2,4.1,0.3c0.8,0.3,1.7,0.5,2.5,0.8c0.9,0,1.9,0,2.8-0.1c4.4,0,8.9,0.1,13.3,0.1
		c2.5-0.2,4.9-0.3,7.4-0.5c0.2-0.5,0.4-1.1,0.7-1.6c-7.7-3.2-15.4-6.4-23.1-9.5c-41.6-16.6-83.3-33.3-124.9-49.9c-2.6-1-5.2-2-7.9-3
		c-0.2,1-0.3,2-0.5,2.9C269.2,469,270.6,470.2,272.1,471.4z"/>
	<path class="st11" d="M275,460.5c48.9,19.5,97.8,38.9,146.7,58.4C383.3,473.9,332.2,459.9,275,460.5z"/>
	<path class="st5" d="M248.6,449.8c25.7,2.3,51.5,3.7,77,7.4c38.7,5.6,71.1,24.1,98.6,51.3c3.4,3.3,5.9,7.4,8.9,11.1
		c0.5,0.6,1,1.3,1.5,1.9c0.7,0.4,1.3,0.8,2,1.2c0.5,0.2,1,0.4,1.6,0.6l-0.2,0.2c0.3,2.3,0.7,4.5,1,6.8c-0.2,0.1-0.3,0.1-0.5,0.2
		c0.1,0.4,0.3,0.7,0.5,1.1c-18.2,0.3-35.1,0.6-52,0.9c-1.9-0.1-3.7-0.3-5.6-0.4c-2.4-0.5-4.8-1-7.2-1.5c-0.5-0.1-1.1-0.2-1.6-0.3
		c-0.1,0-0.2,0.1-0.3,0.1c-1.5-0.1-3.1,0-4.5-0.3c-39.9-8.3-71.8-30.7-101.4-56.9c0.8-0.3,1.6-0.6,2.4-1l0,0c1.2,0,2.4,0,3.7,0
		c0.2-0.2,0.5-0.4,0.7-0.6c20.8,13.8,40.6,29.1,62.6,40.7c14.3,7.6,31.5,9.9,47.5,14.6c0.1,0,0.2-0.1,0.3-0.1
		c1.2,0.1,2.5,0.3,3.7,0.4c1.8,0.1,3.5,0.1,5.3,0.2c1.4,0.1,2.7,0.2,4.1,0.3c0.8,0.3,1.7,0.5,2.5,0.8c0.9,0,1.8,0,2.8-0.1
		c4.4,0,8.7,0.1,13.1,0.1c2.4-0.2,4.9-0.3,7.3-0.5c0.2-0.5,0.4-1.1,0.7-1.6c-7.6-3.1-15.1-6.3-22.7-9.4
		c-40.9-16.3-81.9-32.6-122.9-48.9c-2.6-1-5.2-2-7.7-2.9c-0.2,1-0.3,1.9-0.5,2.9c0,0,0,0,0,0c1.4,1.2,2.8,2.3,4.2,3.5
		c-0.2,0.2-0.5,0.4-0.7,0.6c-1.2,0-2.4,0-3.7,0c0,0,0,0,0,0c-0.8,0.3-1.6,0.6-2.4,1c0,0-0.2-0.2-0.2-0.2c-1.7-1.4-3.3-2.8-5-4.3
		c0,0,0,0,0,0c-0.6-0.6-1.3-1.1-1.9-1.7c-0.8-0.6-1.6-1.3-2.4-1.9c-4.8-4-9.6-8-15.9-13.3C244.9,450.8,246.8,449.7,248.6,449.8z
		 M421.7,518.9c-38.4-45-89.5-59-146.7-58.4C323.9,480,372.8,499.4,421.7,518.9z"/>
	<path class="st8" d="M338.9,742.4c12.1,8,23.7,17,36.5,23.8c8.4,4.5,18.5,5.8,27.8,8.5c0.7,0.1,1.4,0.2,2.2,0.2
		c1,0,2.1,0.1,3.1,0.1c0.8,0,1.6,0.1,2.4,0.1c0.5,0.1,1,0.3,1.5,0.4c0.5,0,1.1,0,1.6,0c2.5,0,5.1,0,7.6,0.1c1.4-0.1,2.8-0.2,4.3-0.3
		c0.1-0.3,0.3-0.6,0.4-0.9c-4.4-1.8-8.8-3.7-13.3-5.5c-23.9-9.5-47.7-19.1-71.6-28.6c-1.5-0.6-3-1.1-4.5-1.7
		c-0.1,0.6-0.2,1.1-0.3,1.7C337.3,741.1,338.1,741.7,338.9,742.4z"/>
	<path class="st9" d="M340.6,736.2c28,11.2,56.1,22.3,84.1,33.5C402.7,743.9,373.4,735.8,340.6,736.2z"/>
	<path class="st5" d="M325.5,730.1c14.7,1.3,29.5,2.1,44.1,4.2c22.2,3.2,40.8,13.8,56.5,29.4c1.9,1.9,3.4,4.2,5.1,6.4
		c0.3,0.4,0.6,0.7,0.8,1.1c0.4,0.2,0.8,0.5,1.1,0.7c0.3,0.1,0.6,0.2,0.9,0.4l-0.1,0.1c0.2,1.3,0.4,2.6,0.6,3.9
		c-0.1,0-0.2,0.1-0.3,0.1c0.1,0.2,0.2,0.4,0.3,0.7c-10.5,0.2-20.1,0.3-29.8,0.5c-1.1-0.1-2.1-0.2-3.2-0.2c-1.4-0.3-2.8-0.6-4.1-0.8
		c-0.3-0.1-0.6-0.1-0.9-0.2c-0.1,0-0.1,0-0.2,0.1c-0.9-0.1-1.8,0-2.6-0.2c-22.9-4.8-41.1-17.6-58.2-32.6c0.5-0.2,0.9-0.4,1.4-0.6
		l0,0c0.7,0,1.4,0,2.1,0c0.1-0.1,0.3-0.2,0.4-0.4c11.9,7.9,23.3,16.7,35.9,23.4c8.2,4.4,18.1,5.7,27.2,8.3c0.1,0,0.1,0,0.2,0
		c0.7,0.1,1.4,0.1,2.1,0.2c1,0,2,0.1,3,0.1c0.8,0,1.6,0.1,2.3,0.1c0.5,0.1,1,0.3,1.4,0.4c0.5,0,1.1,0,1.6,0c2.5,0,5,0,7.5,0.1
		c1.4-0.1,2.8-0.2,4.2-0.3c0.1-0.3,0.2-0.6,0.4-0.9c-4.3-1.8-8.7-3.6-13-5.4c-23.5-9.4-47-18.7-70.4-28.1c-1.5-0.6-3-1.1-4.4-1.7
		c-0.1,0.6-0.2,1.1-0.3,1.7c0,0,0,0,0,0c0.8,0.7,1.6,1.3,2.4,2c-0.1,0.1-0.3,0.2-0.4,0.4c-0.7,0-1.4,0-2.1,0c0,0,0,0,0,0
		c-0.5,0.2-0.9,0.4-1.4,0.6c0,0-0.1-0.1-0.1-0.1c-0.9-0.8-1.9-1.6-2.8-2.4c0,0,0,0,0,0c-0.4-0.3-0.7-0.6-1.1-0.9
		c-0.5-0.4-0.9-0.7-1.4-1.1c-2.7-2.3-5.5-4.6-9.1-7.6C323.4,730.6,324.5,730,325.5,730.1z M424.7,769.7
		c-22-25.8-51.3-33.9-84.1-33.5C368.6,747.3,396.7,758.5,424.7,769.7z"/>
	<path class="st19" d="M294,579.3c17.8,11.8,34.8,25,53.6,35c12.3,6.6,27.2,8.5,40.9,12.6c1.1,0.1,2.1,0.2,3.2,0.3
		c1.5,0.1,3,0.1,4.5,0.2c1.2,0.1,2.3,0.1,3.5,0.2c0.7,0.2,1.4,0.4,2.1,0.7c0.8,0,1.6,0,2.4-0.1c3.7,0,7.5,0.1,11.2,0.1
		c2.1-0.1,4.2-0.3,6.3-0.4c0.2-0.5,0.4-0.9,0.6-1.4c-6.5-2.7-13-5.4-19.5-8c-35.1-14-70.2-28-105.3-42c-2.2-0.9-4.4-1.7-6.6-2.5
		c-0.1,0.8-0.3,1.7-0.4,2.5C291.6,577.3,292.8,578.3,294,579.3z"/>
	<path class="st20" d="M296.4,570.2c41.2,16.4,82.4,32.8,123.6,49.2C387.7,581.5,344.6,569.6,296.4,570.2z"/>
	<path class="st5" d="M274.2,561.2c21.6,1.9,43.4,3.1,64.9,6.2c32.6,4.7,59.9,20.3,83.1,43.2c2.8,2.8,5,6.2,7.5,9.4
		c0.4,0.5,0.8,1.1,1.2,1.6c0.6,0.3,1.1,0.7,1.7,1c0.4,0.2,0.9,0.4,1.3,0.5l-0.2,0.2c0.3,1.9,0.6,3.8,0.8,5.7
		c-0.1,0.1-0.3,0.1-0.4,0.2c0.1,0.3,0.2,0.6,0.4,1c-15.4,0.3-29.6,0.5-43.8,0.7c-1.6-0.1-3.2-0.2-4.7-0.3c-2-0.4-4.1-0.8-6.1-1.2
		c-0.5-0.1-0.9-0.2-1.4-0.2c-0.1,0-0.2,0.1-0.3,0.1c-1.3-0.1-2.6,0-3.8-0.3c-33.6-7-60.5-25.8-85.5-47.9c0.7-0.3,1.3-0.5,2-0.8l0,0
		c1,0,2.1,0,3.1,0c0.2-0.2,0.4-0.4,0.6-0.5c17.5,11.6,34.3,24.5,52.7,34.3c12.1,6.4,26.6,8.4,40,12.3c0.1,0,0.2,0,0.2-0.1
		c1,0.1,2.1,0.2,3.1,0.3c1.5,0.1,3,0.1,4.4,0.2c1.1,0.1,2.3,0.1,3.4,0.2c0.7,0.2,1.4,0.4,2.1,0.6c0.8,0,1.5,0,2.3-0.1
		c3.7,0,7.3,0.1,11,0.1c2.1-0.1,4.1-0.3,6.2-0.4c0.2-0.4,0.4-0.9,0.5-1.3c-6.4-2.6-12.8-5.3-19.2-7.9c-34.5-13.8-69-27.5-103.6-41.3
		c-2.2-0.9-4.3-1.6-6.5-2.5c-0.1,0.8-0.3,1.6-0.4,2.4c0,0,0,0,0,0c1.2,1,2.4,1.9,3.6,2.9c-0.2,0.2-0.4,0.4-0.6,0.5c-1,0-2.1,0-3.1,0
		c0,0,0,0,0,0c-0.7,0.3-1.3,0.5-2,0.8c0,0-0.1-0.2-0.1-0.2c-1.4-1.2-2.8-2.4-4.2-3.6c0,0,0,0,0,0c-0.5-0.5-1.1-0.9-1.6-1.4
		c-0.7-0.5-1.4-1.1-2-1.6c-4-3.4-8.1-6.7-13.4-11.2C271.1,562,272.7,561.1,274.2,561.2z M420.1,619.4
		c-32.3-37.9-75.4-49.8-123.6-49.2C337.6,586.6,378.8,603,420.1,619.4z"/>
	<rect x="434.1" y="427.7" class="st1" width="11.7" height="426"/>
	<rect x="434.1" y="427.7" class="st2" width="3.4" height="426"/>
	<rect x="445.8" y="427.7" class="st2" width="3.4" height="426"/>
	<path class="st3" d="M585.9,501.3c-17.5,11.6-34.3,24.6-52.7,34.4c-12.2,6.5-26.8,8.4-40.3,12.4c-1,0.1-2.1,0.2-3.1,0.3
		c-1.5,0.1-3,0.1-4.4,0.2c-1.1,0.1-2.3,0.1-3.4,0.2c-0.7,0.2-1.4,0.4-2.1,0.6c-0.8,0-1.6,0-2.3-0.1c-3.7,0-7.3,0.1-11,0.1
		c-2.1-0.1-4.1-0.3-6.2-0.4c-0.2-0.5-0.4-0.9-0.5-1.4c6.4-2.6,12.8-5.3,19.2-7.9c34.5-13.8,69.1-27.6,103.6-41.4
		c2.2-0.9,4.3-1.7,6.5-2.5c0.1,0.8,0.3,1.6,0.4,2.4C588.3,499.3,587.1,500.3,585.9,501.3z"/>
	<path class="st4" d="M583.5,492.3c-40.6,16.1-81.1,32.3-121.7,48.4C493.7,503.4,536.1,491.7,583.5,492.3z"/>
	<path class="st5" d="M605.4,483.4c-21.3,1.9-42.7,3.1-63.9,6.1c-32.1,4.7-59,20-81.8,42.5c-2.8,2.8-4.9,6.1-7.4,9.2
		c-0.4,0.5-0.8,1.1-1.2,1.6c-0.6,0.3-1.1,0.7-1.7,1c-0.4,0.2-0.9,0.4-1.3,0.5l0.2,0.2c-0.3,1.9-0.5,3.7-0.8,5.6
		c0.1,0.1,0.2,0.1,0.4,0.2c-0.1,0.3-0.2,0.6-0.4,0.9c15.1,0.3,29.1,0.5,43.1,0.7c1.6-0.1,3.1-0.2,4.7-0.3c2-0.4,4-0.8,6-1.2
		c0.4-0.1,0.9-0.2,1.3-0.2c0.1,0,0.2,0.1,0.3,0.1c1.3-0.1,2.5,0,3.8-0.3c33.1-6.9,59.5-25.4,84.1-47.2c-0.7-0.3-1.3-0.5-2-0.8l0,0
		c-1,0-2,0-3,0c-0.2-0.2-0.4-0.4-0.6-0.5c-17.2,11.4-33.7,24.1-51.9,33.8c-11.9,6.3-26.2,8.2-39.4,12.1c-0.1,0-0.1,0-0.2-0.1
		c-1,0.1-2,0.2-3.1,0.3c-1.5,0.1-2.9,0.1-4.4,0.2c-1.1,0.1-2.2,0.1-3.4,0.2c-0.7,0.2-1.4,0.4-2.1,0.6c-0.8,0-1.5,0-2.3-0.1
		c-3.6,0-7.2,0-10.8,0.1c-2-0.1-4-0.3-6.1-0.4c-0.2-0.4-0.4-0.9-0.5-1.3c6.3-2.6,12.5-5.2,18.9-7.8c34-13.6,67.9-27.1,101.9-40.6
		c2.1-0.8,4.3-1.6,6.4-2.4c0.1,0.8,0.3,1.6,0.4,2.4c0,0,0,0,0,0c-1.2,1-2.3,1.9-3.5,2.9c0.2,0.2,0.4,0.4,0.6,0.5c1,0,2,0,3,0
		c0,0,0,0,0,0c0.7,0.3,1.3,0.5,2,0.8c0,0,0.1-0.2,0.1-0.2c1.4-1.2,2.7-2.4,4.1-3.5c0,0,0,0,0,0c0.5-0.5,1.1-0.9,1.6-1.4
		c0.7-0.5,1.3-1.1,2-1.6c4-3.3,7.9-6.6,13.2-11C608.4,484.2,606.9,483.3,605.4,483.4z M461.9,540.7c31.8-37.3,74.2-49,121.7-48.4
		C543,508.4,502.4,524.6,461.9,540.7z"/>
	<path class="st12" d="M531.5,206.8c1.4,9.2,1.4,18.5,0,27.6c0,0.2-0.1,0.3-0.1,0.5l-0.2,1.3l-0.2,1.4c0,0.2-0.1,0.3-0.1,0.5
		c-0.4,2.2-0.9,4.3-1.5,6.5c-0.4,1.5-0.8,2.9-1.3,4.4l-0.1,0.2c-0.2,0.6-0.4,1.2-0.6,1.7c-0.1,0.4-0.2,0.7-0.4,1.1
		c-0.1,0.4-0.2,0.5-0.3,0.7c-9.4,25.4-29.4,45.4-54.8,54.8l-0.7,0.3l-1.1,0.4l-1.7,0.6l-0.2,0.1l-2.1,0.6c-0.7,0.2-1.5,0.4-2.2,0.6
		c-2.1,0.6-4.3,1.1-6.5,1.5l-0.4,0.1l-1.4,0.2l-1.2,0.2l-0.6,0.1c-4.6,0.7-9.2,1-13.8,1c-1.6,0-3.2,0-4.8-0.1c-3-0.2-6-0.5-9-0.9
		l-0.6-0.1l-1.2-0.2l-1.4-0.3l-0.4-0.1c-2.2-0.4-4.3-0.9-6.5-1.5c-1.5-0.4-2.9-0.8-4.4-1.3l-0.2-0.1l-1.7-0.6l-1.1-0.4l-0.7-0.3
		c-36.4-13.4-60.5-48.1-60.5-86.8c0-2.3,0.1-4.6,0.3-6.8c2.2-30.1,19-57.2,44.9-72.6c0.5-0.3,1-0.6,1.4-0.8l0.8-0.4l1.8-1l0.6-0.3
		c0.8-0.4,1.6-0.8,2.3-1.2l0.6-0.3l1.9-0.9l0.8-0.4c0.6-0.3,1.3-0.5,1.9-0.8l0.6-0.2c0.8-0.3,1.6-0.6,2.5-1l0.6-0.2l1.9-0.7l0.8-0.3
		l2-0.6l0.6-0.2c0.8-0.2,1.7-0.5,2.5-0.7l0.7-0.2c0.6-0.2,1.3-0.3,1.9-0.5l0.8-0.2c0.7-0.2,1.4-0.3,2.1-0.5l0.5-0.1
		c0.9-0.2,1.7-0.3,2.6-0.5l0.7-0.1l2-0.3l0.8-0.1l2.2-0.3h0.4l2.7-0.2h0.8l2-0.1h0.8c0.8,0,1.6,0,2.3,0h0.2c0.8,0,1.6,0,2.5,0h0.8
		l2.1,0.1h0.7c0.9,0,1.8,0.1,2.7,0.2h0.3l2.3,0.3l0.8,0.1c0.7,0.1,1.4,0.2,2.1,0.3l0.6,0.1c0.9,0.2,1.8,0.3,2.7,0.5l0.3,0.1
		c0.8,0.2,1.6,0.3,2.3,0.5l0.7,0.2l2.1,0.5l0.5,0.1c0.9,0.2,1.8,0.5,2.6,0.7l0.4,0.1c0.8,0.2,1.5,0.5,2.2,0.7l0.7,0.2
		c0.7,0.2,1.4,0.5,2.1,0.8l0.4,0.2c0.9,0.3,1.7,0.7,2.6,1l0.4,0.2c0.7,0.3,1.4,0.6,2.1,0.9l0.6,0.3l2.1,1l0.4,0.2
		c0.8,0.4,1.7,0.8,2.5,1.2l0.4,0.2c0.7,0.4,1.4,0.7,2,1.2l0.6,0.3l1.8,1c18,10.9,31.8,27.5,39.2,47.3c0.1,0.2,0.2,0.5,0.3,0.7
		c0.1,0.2,0.3,0.7,0.4,1.1c0.2,0.6,0.4,1.2,0.6,1.7l0.1,0.2c0.5,1.4,0.9,2.9,1.3,4.4c0.6,2.1,1.1,4.3,1.5,6.5c0,0.2,0,0.3,0.1,0.5
		l0.2,1.4l0.2,1.3C531.4,206.5,531.4,206.6,531.5,206.8z M509.2,210.8l0.2-1.6l-1.5-0.6c-0.3-0.1-29.6-12.5-68.7-12.5
		s-68.5,12.4-68.8,12.5l-1.5,0.6l0.2,1.6c5.6,36.3,35.1,75.2,70,75.2S503.5,247.1,509.2,210.8L509.2,210.8z M481.2,183.9
		c4.1-2.5,4.4-9.3,0.7-15.4c-3.6-6-9.9-8.9-13.9-6.5s-4.4,9.3-0.8,15.4C470.9,183.5,477.1,186.4,481.2,183.9L481.2,183.9z
		 M411.2,177.5c3.6-6,3.3-12.9-0.7-15.4c-4.1-2.4-10.3,0.4-13.9,6.5s-3.3,12.9,0.8,15.4C401.3,186.4,407.6,183.5,411.2,177.5
		L411.2,177.5z"/>
	<path class="st13" d="M509.4,209.2l-0.2,1.6c-5.6,36.3-35.1,75.2-70,75.2s-64.3-38.9-70-75.2l-0.2-1.6l1.5-0.6
		c0.3-0.1,29.6-12.5,68.8-12.5s68.4,12.4,68.7,12.5L509.4,209.2z M481.9,259.4c11.8-13.5,19.7-30,22.9-47.7
		c-42.4-15.5-88.9-15.5-131.3,0c3.2,17.7,11.2,34.1,23,47.7c12.7,14.5,27.9,22.4,42.7,22.4S469.2,273.9,481.9,259.4z"/>
	<path class="st14" d="M504.8,211.8c-3.2,17.6-11.2,34.1-22.9,47.6c-12.7,14.5-27.9,22.4-42.7,22.4c-14.8,0-30-7.9-42.7-22.4
		c-11.8-13.6-19.7-30-22.9-47.7C416,196.3,462.5,196.3,504.8,211.8L504.8,211.8z"/>
	<path class="st13" d="M481.9,168.6c3.6,6,3.3,12.9-0.7,15.4c-4.1,2.4-10.3-0.4-13.9-6.5c-3.7-6-3.3-12.9,0.8-15.4
		C472,159.7,478.3,162.6,481.9,168.6z M480.9,182.5c1.4-0.4,1.9-2.3,1.3-4.3s-2.3-3.2-3.6-2.7c-1.4,0.4-1.9,2.3-1.3,4.3
		C477.9,181.8,479.6,182.9,480.9,182.5L480.9,182.5z M472.5,172.9c1.8-0.6,2.6-3.4,1.6-6.2c-0.9-2.8-3.2-4.6-5-4
		c-1.8,0.6-2.6,3.4-1.6,6.2C468.4,171.8,470.7,173.5,472.5,172.9L472.5,172.9z"/>
	<path class="st15" d="M482.3,178.2c0.6,1.9,0.1,3.9-1.3,4.3c-1.4,0.4-3-0.8-3.6-2.7c-0.6-1.9-0.1-3.9,1.3-4.3
		C480,175,481.6,176.2,482.3,178.2z"/>
	<path class="st15" d="M474.2,166.7c0.9,2.8,0.2,5.6-1.6,6.2c-1.8,0.6-4.1-1.2-5-4c-0.9-2.8-0.2-5.6,1.6-6.2
		S473.2,163.9,474.2,166.7z"/>
	<path class="st13" d="M410.5,162.1c4.1,2.5,4.4,9.3,0.7,15.4c-3.6,6-9.9,8.9-13.9,6.5c-4.1-2.5-4.4-9.3-0.8-15.4
		C400.2,162.5,406.4,159.7,410.5,162.1z M410.9,168.9c0.9-2.8,0.2-5.6-1.6-6.2c-1.8-0.6-4.1,1.2-5,4c-0.9,2.8-0.2,5.6,1.6,6.2
		C407.8,173.5,410,171.8,410.9,168.9L410.9,168.9z M401.1,179.8c0.6-1.9,0.1-3.9-1.3-4.3c-1.4-0.4-3,0.8-3.6,2.7
		c-0.6,1.9-0.1,3.9,1.3,4.3C398.9,182.9,400.5,181.7,401.1,179.8L401.1,179.8z"/>
	<path class="st15" d="M409.3,162.7c1.8,0.6,2.6,3.4,1.6,6.2c-0.9,2.8-3.2,4.6-5,4c-1.8-0.6-2.6-3.4-1.6-6.2
		C405.2,163.9,407.4,162.1,409.3,162.7z"/>
	<path class="st15" d="M399.8,175.4c1.4,0.4,1.9,2.3,1.3,4.3c-0.6,2-2.3,3.2-3.6,2.7c-1.4-0.4-1.9-2.3-1.3-4.3
		S398.5,175,399.8,175.4z"/>
	<g>
		<path class="st21" d="M637.2,193.3c6.6,6.8,10.1,16.3,10.1,27.4c0,11.1-3.5,20.5-10.1,27.4c-10,10.4-19.7,17.8-45.7,10.9
			L534,243.5c1.7-7,2.6-14.1,2.7-21.3v-0.1c0-0.5,0-1,0-1.4s0-1,0-1.4v-0.1c-0.1-7.2-1-14.4-2.7-21.3l57.6-15.4
			C617.5,175.5,627.3,182.9,637.2,193.3z"/>
		<path class="st22" d="M619.5,117c5.5,9.6,7.2,19.5,5,28.7c-3.5,14-8.2,25.2-34.1,32.3l-57.6,15.5c-0.9-3-1.9-6-3.1-9l-0.4-0.8
			c-0.1-0.3-0.2-0.6-0.4-0.8c-4.5-10.7-11-20.5-19-28.9l42.2-42.2c19-19,31.1-17.4,45-13.4C606.3,100.9,614,107.4,619.5,117z"/>
		<path class="st23" d="M624.5,295.6c2.3,9.2,0.6,19.2-5,28.7s-13.3,16-22.4,18.7c-13.8,4-25.9,5.5-45-13.4l-42.2-42.2
			c8-8.4,14.5-18.2,19-28.9c0.1-0.3,0.2-0.6,0.4-0.8l0.4-0.8c1.2-2.9,2.2-5.9,3.1-9l57.6,15.5C616.3,270.3,621,281.6,624.5,295.6z"
			/>
		<path class="st24" d="M562.3,63.5c4,13.8,5.5,25.9-13.4,45l-42.2,42.3c-8.4-8-18.2-14.5-28.9-19l-0.8-0.4l-0.8-0.3
			c-3-1.2-5.9-2.2-9-3.1l15.5-57.6c7-25.9,18.3-30.6,32.3-34.1c9.2-2.3,19.1-0.6,28.7,5C553.2,46.7,559.7,54.4,562.3,63.5z"/>
		<path class="st25" d="M548.9,332.8c18.9,19.1,17.4,31.2,13.4,45c-2.6,9.1-9.1,16.9-18.7,22.4c-9.6,5.5-19.5,7.2-28.7,5
			c-14-3.5-25.2-8.2-32.3-34.1l-15.5-57.7c2.8-0.8,5.6-1.8,8.4-2.9l1-0.4l0.6-0.3c1-0.4,2.1-0.9,3.1-1.3c1-0.5,1.7-0.8,2.6-1.2l0,0
			c8.8-4.3,16.8-9.9,23.8-16.7L548.9,332.8z"/>
		<path class="st26" d="M467.4,23.4c10.4,10,17.8,19.7,10.9,45.7l-15.4,57.6c-7-1.7-14.2-2.6-21.4-2.7h-3c-7.2,0.1-14.3,1-21.3,2.7
			l-15.4-57.6c-6.9-26,0.5-35.7,10.9-45.7c6.8-6.6,16.3-10.1,27.4-10.1S460.5,16.8,467.4,23.4z"/>
		<path class="st27" d="M478.2,372.2c6.9,26-0.5,35.7-10.9,45.7c-6.8,6.6-16.3,10.1-27.4,10.1s-20.5-3.5-27.4-10.1
			c-10.4-10-17.8-19.7-10.9-45.7l15.4-57.6c6.7,1.6,13.6,2.5,20.5,2.7h1.9h1h1.9c6.9-0.1,13.8-1,20.5-2.7L478.2,372.2z"/>
		<path class="st28" d="M397.3,70.3l15.5,57.6c-3,0.9-6,1.9-9,3.1l-0.8,0.4l-0.8,0.3c-10.7,4.5-20.5,11-28.9,19l-42.2-42.2
			c-18.9-19.1-17.4-31.2-13.4-45c2.6-9.1,9.1-16.9,18.7-22.4c9.6-5.5,19.5-7.2,28.7-5C379,39.6,390.3,44.3,397.3,70.3z"/>
		<path class="st29" d="M412.8,313.4L397.3,371c-7,25.9-18.3,30.6-32.3,34.1c-9.2,2.3-19.1,0.6-28.7-5c-9.6-5.5-16-13.3-18.7-22.4
			c-4-13.8-5.5-25.9,13.4-45l42.2-42.3c8.6,8.2,18.6,14.7,29.5,19.3l0.6,0.3l1,0.4C407.1,311.6,410,312.6,412.8,313.4z"/>
		<path class="st30" d="M327.8,111.7l42.3,42.2c-4.1,4.3-7.8,9.1-11.1,14.1c0,0-0.1,0.1-0.1,0.1c-0.4,0.6-0.7,1.2-1.1,1.7l-0.3,0.4
			c-0.4,0.6-0.7,1.2-1.1,1.8l-0.2,0.3c-2.8,4.8-5.1,9.8-7,15c0,0,0,0.1,0,0.1c-0.2,0.6-0.4,1.2-0.7,1.8c0,0.2-0.1,0.3-0.2,0.5
			c-0.2,0.5-0.4,1.1-0.5,1.6c-0.1,0.2-0.2,0.5-0.2,0.7c-0.1,0.5-0.3,0.9-0.4,1.4L289.6,178c-25.9-7-30.6-18.3-34.1-32.3
			c-2.3-9.2-0.6-19.2,5-28.7c5.5-9.6,13.3-16,22.4-18.7C296.7,94.3,308.8,92.8,327.8,111.7z"/>
		<path class="st31" d="M370.1,287.4l-42.2,42.2c-19.1,18.9-31.2,17.4-45,13.4c-9.1-2.6-16.9-9.1-22.4-18.7
			c-5.5-9.6-7.2-19.5-5-28.7c3.5-14,8.2-25.2,34.1-32.3l57.7-15.5l0,0c0.1,0.4,0.3,0.9,0.4,1.4c0.1,0.2,0.2,0.5,0.2,0.8
			c0.2,0.5,0.3,1,0.5,1.6c0,0.2,0.1,0.3,0.2,0.5c0.2,0.6,0.4,1.2,0.6,1.8c0,0.1,0,0.1,0,0.2c4.6,12.4,11.7,23.8,20.8,33.4
			L370.1,287.4z"/>
		<path class="st32" d="M346.1,197.8c-0.1,0.5-0.2,0.9-0.3,1.4c0,0.2-0.1,0.5-0.2,0.7c-0.1,0.6-0.2,1.2-0.4,1.7c0,0.2,0,0.3-0.1,0.5
			c-0.1,0.6-0.2,1.3-0.4,1.9c0,0,0,0.1,0,0.1c-1.9,10.9-1.9,22.1,0,33.1c0,0,0,0.1,0,0.1c0.1,0.7,0.2,1.3,0.4,2c0,0.2,0,0.3,0.1,0.4
			c0.1,0.6,0.2,1.2,0.4,1.7c0,0.2,0.1,0.5,0.2,0.7c0.1,0.5,0.2,0.9,0.3,1.4l-57.6,15.4c-26,6.9-35.7-0.5-45.7-10.9
			c-6.6-6.8-10.1-16.3-10.1-27.4s3.5-20.5,10.1-27.4c10-10.4,19.7-17.8,45.7-10.9L346.1,197.8z"/>
	</g>
	<path class="st15" d="M572.1,207.6l2.6,20.1H570l-0.5-4.9h-2.5l-0.8,4.9h-3.9l3.4-20.1H572.1z M569.1,219.7l-0.8-8.9h-0.1l-0.8,8.9
		H569.1z"/>
	<path class="st15" d="M575.6,207.6h4.5v6.1h0.1c0.4-1.5,1.5-2.4,3.2-2.4c2.3,0,3.1,1.5,3.1,3.6v8.9c0,1.9-0.7,4-3.2,4
		c-1.6,0-2.8-0.6-3.1-2.2h-0.1v2h-4.5V207.6z M580.1,223.1c0,0.7,0.4,1.1,0.9,1.1c0.5,0,0.9-0.4,0.9-1.1v-7c0-0.7-0.4-1.1-0.9-1.1
		c-0.5,0-0.9,0.4-0.9,1.1V223.1z"/>
	<path class="st15" d="M598.4,223.6c0,3-2.5,4.3-5.4,4.3c-2.8,0-5.4-1.3-5.4-4.3v-7.7c0-2.9,1.9-4.5,5.4-4.5c3.5,0,5.4,1.6,5.4,4.5
		V223.6z M592.1,223.8c0,0.6,0.2,1.1,0.9,1.1s0.9-0.5,0.9-1.1v-8.4c0-0.6-0.2-1.1-0.9-1.1s-0.9,0.5-0.9,1.1V223.8z"/>
	<path class="st15" d="M605.9,225.7L605.9,225.7c-0.5,1.4-1.6,2.2-3.3,2.2c-2,0-3-1.4-3-3.7v-12.6h4.5v11.2c0,0.7,0.1,1.5,0.9,1.5
		c0.8,0,1-0.8,1-1.5v-11.2h4.5v16.1h-4.5V225.7z"/>
	<path class="st15" d="M611.2,214.5v-2.9h1.5v-2.9h4.5v2.9h1.9v2.9h-1.9v8.8c0,1,0,1.5,1.1,1.5h0.9v2.9h-3.6c-2.2,0-2.8-1.2-2.8-3.4
		v-9.8H611.2z"/>
	<path class="st15" d="M262.9,219.9v2.7c0,3.8-2,5.6-6,5.6c-3.1,0-5.9-1.3-5.9-5.9v-9.1c0-4.6,2.8-5.9,5.9-5.9c3.4,0,6,1,6,5.4v2.2
		h-4.7V212c0-0.8-0.3-1.6-1.3-1.6c-1,0-1.2,0.8-1.2,1.6v11.3c0,0.8,0.3,1.6,1.2,1.6c1,0,1.3-0.8,1.3-1.6l0-3.4H262.9z"/>
	<path class="st15" d="M274.9,223.6c0,3-2.5,4.3-5.4,4.3s-5.4-1.3-5.4-4.3v-7.7c0-2.9,1.9-4.5,5.4-4.5s5.4,1.6,5.4,4.5V223.6z
		 M268.6,223.8c0,0.6,0.2,1.1,0.9,1.1c0.7,0,0.9-0.5,0.9-1.1v-8.4c0-0.6-0.2-1.1-0.9-1.1c-0.7,0-0.9,0.5-0.9,1.1V223.8z"/>
	<path class="st15" d="M280.6,213.5L280.6,213.5c0.5-1.4,1.6-2.2,3.3-2.2c2,0,3,1.4,3,3.7v12.6h-4.5v-11.2c0-0.7-0.1-1.5-0.9-1.5
		c-0.8,0-1,0.8-1,1.5v11.2h-4.5v-16.1h4.5V213.5z"/>
	<path class="st15" d="M287.8,214.5v-2.9h1.5v-2.9h4.5v2.9h1.9v2.9h-1.9v8.8c0,1,0,1.5,1.1,1.5h0.9v2.9h-3.6c-2.2,0-2.8-1.2-2.8-3.4
		v-9.8H287.8z"/>
	<path class="st15" d="M302.9,225.8L302.9,225.8c-0.6,1.2-1.4,2.1-3.2,2.1c-1.9,0-3.1-1.2-3.1-3.3v-2.4c0-4.2,6.3-3.7,6.3-6.7
		c0-0.6-0.2-1.2-0.9-1.2c-0.7,0-0.9,0.5-0.9,1.2v1.8h-4.5v-1.5c0-3.2,2.7-4.4,5.4-4.4c2.7,0,5.4,1.2,5.4,4.4v11.9h-4.5V225.8z
		 M301,223.5c0,0.6,0.4,0.8,0.8,0.8c0.9,0,1-0.6,1-2.1v-2.8c-0.9,0.6-1.9,1-1.9,2.3V223.5z"/>
	<path class="st15" d="M314.9,215.4c0-0.6-0.2-1.1-0.9-1.1s-0.9,0.5-0.9,1.1v8.4c0,0.6,0.2,1.1,0.9,1.1s0.9-0.5,0.9-1.1v-2.5h4.5
		v2.4c0,3-2.3,4.2-5.4,4.2c-3.3,0-5.4-1.4-5.4-4.5v-7.5c0-2.7,2-4.5,5.4-4.5c2.9,0,5.4,1.1,5.4,4.5v1.4h-4.5V215.4z"/>
	<path class="st15" d="M320.2,214.5v-2.9h1.5v-2.9h4.5v2.9h1.9v2.9h-1.9v8.8c0,1,0,1.5,1.1,1.5h0.9v2.9h-3.6c-2.2,0-2.8-1.2-2.8-3.4
		v-9.8H320.2z"/>
	<path class="st15" d="M449.2,100.1h-20.1v-4.7h7.4V93h-7.4v-4.7h20.1V93h-9.6v2.5h9.6V100.1z"/>
	<path class="st15" d="M445.2,76.3c3,0,4.3,2.5,4.3,5.4c0,2.8-1.3,5.4-4.3,5.4h-7.7c-2.9,0-4.5-1.9-4.5-5.4c0-3.5,1.6-5.4,4.5-5.4
		H445.2z M445.4,82.6c0.6,0,1.1-0.2,1.1-0.9c0-0.7-0.5-0.9-1.1-0.9H437c-0.6,0-1.1,0.2-1.1,0.9c0,0.7,0.5,0.9,1.1,0.9H445.4z"/>
	<path class="st15" d="M435.3,70.7L435.3,70.7c-1.5-0.5-2.3-1.5-2.3-3.2c0-1.6,0.8-2.6,2.3-2.9v-0.1c-1.4-0.3-2.3-1.5-2.3-3.1
		c0-2.2,1.4-2.9,3.4-2.9h12.9v4.3h-11.2c-0.7,0-1.5,0.1-1.5,0.9c0,0.8,0.8,0.9,1.5,0.9h11.2v4.3h-11.2c-0.7,0-1.5,0.1-1.5,0.9
		s0.8,0.9,1.5,0.9h11.2V75h-16.1v-4.3H435.3z"/>
	<path class="st15" d="M441.7,52.8h3.3c1,0,1.6-0.3,1.6-0.9c0-0.7-0.6-0.9-1.6-0.9h-2.1v-4.5h2.4c3,0,4.2,2.3,4.2,5.4
		c0,2.8-1.3,5.4-4.3,5.4h-7.7c-2.9,0-4.5-1.9-4.5-5.4c0-2.8,1.1-5.4,4.5-5.4h4.2V52.8z M439,51h-2.2c-0.6,0-1,0.3-1,0.9
		c0,0.6,0.3,0.9,1,0.9h2.2V51z"/>
	<path class="st15" d="M551.3,381.1l-16.4,11.5l-3.3-4.7c-2.1-3-2.8-5.5,0-7.5l3-2.1c2.5-1.7,5.1-0.3,6.7,2l1,1.4l6.4-4.4
		L551.3,381.1z M539.9,383.4l-0.4-0.6c-0.9-1.3-1.7-0.9-3.7,0.4c-1.9,1.4-2.6,2-1.7,3.3l0.4,0.6L539.9,383.4z"/>
	<path class="st15" d="M534.3,363.9c2.4-1.7,5-0.4,6.6,2c1.6,2.3,2,5.2-0.4,6.9l-6.3,4.4c-2.4,1.7-4.8,1-6.8-1.8
		c-2-2.8-1.7-5.3,0.6-7L534.3,363.9z M538.1,369c0.5-0.3,0.8-0.8,0.4-1.4c-0.4-0.6-1-0.5-1.5-0.1l-6.9,4.8c-0.5,0.3-0.8,0.8-0.4,1.4
		c0.4,0.6,1,0.5,1.5,0.1L538.1,369z"/>
	<path class="st15" d="M522.9,365L522.9,365c-1.5,0.3-2.8,0-3.8-1.4c-1.3-1.8-0.5-3.3,0.9-4.3l4.7-3.3l2.6,3.6l-3.2,2.2
		c-0.5,0.4-1,0.9-0.6,1.5c0.4,0.6,1.1,0.4,1.6,0l9.3-6.5l2.6,3.7l-13.2,9.3l-2.6-3.7L522.9,365z"/>
	<path class="st15" d="M519.4,358.6l-2.4,1.7l-0.9-1.2l-2.4,1.7l-2.6-3.7l2.4-1.7l-1.1-1.6l2.4-1.7l1.1,1.6l7.2-5
		c0.8-0.5,1.2-0.9,0.6-1.7l-0.5-0.7l2.4-1.7l2.1,3c1.3,1.8,0.6,3-1.2,4.2l-8.1,5.6L519.4,358.6z"/>
	<path class="st15" d="M514.7,351.8l-2.4,1.7l-0.6-0.8l-0.9,0.6c-1,0.7-2.8,1-4-0.7l-1.6-2.3l2.4-1.7c0.6,0.9,1,0.8,1.6,0.5l-0.7-1
		l2.4-1.7l0.7,1l10.8-7.6l2.6,3.6l-10.8,7.6L514.7,351.8z"/>
	<path class="st15" d="M511.5,331.4c2.4-1.7,5-0.4,6.6,2c1.6,2.3,2,5.2-0.4,6.9l-6.3,4.4c-2.4,1.7-4.8,1-6.8-1.8
		c-2-2.8-1.8-5.4,0.6-7L511.5,331.4z M515.3,336.5c0.5-0.3,0.8-0.8,0.4-1.4s-1-0.5-1.5-0.1l-6.9,4.8c-0.5,0.3-0.8,0.8-0.4,1.4
		c0.4,0.6,1,0.5,1.5,0.1L515.3,336.5z"/>
	<path class="st15" d="M514.1,328l-16.4,11.5l-2.6-3.6l16.4-11.5L514.1,328z"/>
	<path class="st15" d="M496.7,333.2l-2.3,1.6l-2.6-3.6l2.3-1.6L496.7,333.2z M510.8,323.3l-13.2,9.3l-2.6-3.6l13.2-9.3L510.8,323.3z
		"/>
	<path class="st15" d="M498,312.2c2.4-1.7,5-0.4,6.6,2c1.6,2.3,2,5.2-0.4,6.9l-6.3,4.4c-2.4,1.7-4.8,1-6.8-1.8s-1.7-5.3,0.6-7
		L498,312.2z M501.8,317.2c0.5-0.3,0.8-0.8,0.4-1.4c-0.4-0.6-1-0.5-1.5-0.1l-6.9,4.8c-0.5,0.3-0.8,0.8-0.4,1.4s1,0.5,1.5,0.1
		L501.8,317.2z"/>
	<path class="st15" d="M347.3,393.3l-13.6-7.8l3.8-6.6l2.1,1.2l-2,3.4l3,1.7l1.9-3.3l2.1,1.2l-1.9,3.3l4.4,2.6l2-3.4l2.1,1.2
		L347.3,393.3z"/>
	<path class="st15" d="M343.6,377.7L343.6,377.7c-0.8-0.9-0.9-1.9-0.2-3.1c0.8-1.4,2.1-1.5,3.7-0.6l8.5,4.9l-1.7,3l-7.6-4.4
		c-0.5-0.3-1-0.5-1.3,0c-0.3,0.6,0.1,0.9,0.6,1.2l7.6,4.4l-1.7,3l-10.9-6.3l1.7-3L343.6,377.7z"/>
	<path class="st15" d="M359.3,370.2c3,1.7,2.1,4.4,1.3,5.7c-1.3,2.3-3.2,2.9-4.4,2.2l-1.1-0.6l1.7-3l0.7,0.4c0.4,0.2,0.8,0.2,1-0.2
		s0.1-0.8-0.3-1l-2.7-1.6l0,0.1c0.9,0.6,1.1,1.8,0.5,2.8c-1,1.8-2.5,1.7-4.1,0.8l-4.5-2.6c-1.7-1-2-2.4-1.4-3.4
		c0.7-1.2,1.6-1.5,2.8-1.4l0,0l-1.4-0.8l1.8-3L359.3,370.2z M353.2,372.4c0.4,0.2,0.9,0.3,1.2-0.2c0.3-0.5-0.1-0.9-0.5-1.1l-3.1-1.8
		c-0.4-0.2-0.9-0.3-1.2,0.2c-0.3,0.5,0.1,0.9,0.5,1.1L353.2,372.4z"/>
	<path class="st15" d="M349.2,363.2l-1.9-1.1l1.7-3l1.9,1.1L349.2,363.2z M360.8,370l-10.9-6.3l1.7-3l10.9,6.3L360.8,370z"/>
	<path class="st15" d="M355.2,357.6L355.2,357.6c-0.8-0.9-0.9-1.9-0.2-3.1c0.8-1.4,2.1-1.5,3.7-0.6l8.5,4.9l-1.7,3l-7.6-4.4
		c-0.5-0.3-1-0.5-1.3,0c-0.3,0.6,0.1,0.9,0.6,1.2l7.6,4.4l-1.7,3l-10.9-6.3l1.7-3L355.2,357.6z"/>
	<path class="st15" d="M364.4,352l2.2,1.3c0.6,0.4,1.2,0.4,1.4,0c0.3-0.5,0-0.9-0.7-1.2l-1.4-0.8l1.7-3l1.6,0.9
		c2.1,1.2,2,3.2,0.7,5.3c-1.1,1.9-3,3.1-5,2l-5.2-3c-2-1.1-2.3-3.1-1-5.4c1.1-1.9,2.8-3.2,5.2-1.9l2.9,1.7L364.4,352z M363.3,349.7
		l-1.5-0.9c-0.4-0.2-0.8-0.2-1,0.3c-0.2,0.4-0.1,0.8,0.3,1l1.5,0.9L363.3,349.7z"/>
	<path class="st15" d="M369,343.9l2.2,1.3c0.6,0.4,1.2,0.4,1.4,0c0.3-0.5,0-0.9-0.7-1.2l-1.4-0.8l1.7-3l1.6,0.9
		c2.1,1.2,2,3.2,0.7,5.3c-1.1,1.9-3,3.1-5,2l-5.2-3c-2-1.1-2.3-3.1-1-5.4c1.1-1.9,2.8-3.2,5.2-1.9l2.9,1.7L369,343.9z M368,341.6
		l-1.5-0.9c-0.4-0.2-0.8-0.2-1,0.3c-0.2,0.4-0.1,0.8,0.3,1l1.5,0.9L368,341.6z"/>
	<path class="st15" d="M369.4,333.3L369.4,333.3c-0.7-1-0.9-2-0.3-3.1c0.9-1.5,2.2-1.5,3.3-0.8l3.9,2.2l-1.7,3l-2.6-1.5
		c-0.4-0.3-1-0.4-1.3,0.1c-0.3,0.5,0.1,0.9,0.5,1.1l7.7,4.4l-1.7,3l-10.9-6.3l1.7-3L369.4,333.3z"/>
	<path class="st15" d="M370.1,326.9l-1.9-1.1l1.7-3l1.9,1.1L370.1,326.9z M381.8,333.6l-10.9-6.3l1.7-3l10.9,6.3L381.8,333.6z"/>
	<path class="st15" d="M376.2,321.2L376.2,321.2c-0.8-0.9-0.9-1.9-0.2-3.1c0.8-1.4,2.1-1.5,3.7-0.6l8.5,4.9l-1.7,3l-7.6-4.4
		c-0.5-0.3-1-0.5-1.3,0c-0.3,0.6,0.1,0.9,0.6,1.2l7.6,4.4l-1.7,3l-10.9-6.3l1.7-3L376.2,321.2z"/>
	<path class="st15" d="M391.9,313.7c3,1.7,2.1,4.4,1.3,5.7c-1.3,2.3-3.2,2.9-4.4,2.2l-1.1-0.6l1.7-3l0.7,0.4c0.4,0.2,0.8,0.2,1-0.2
		s0.1-0.8-0.3-1l-2.7-1.6l0,0.1c0.9,0.6,1.1,1.8,0.5,2.8c-1,1.8-2.5,1.7-4.1,0.8l-4.5-2.6c-1.7-1-2-2.4-1.4-3.4
		c0.7-1.2,1.6-1.5,2.8-1.4l0,0l-1.4-0.8l1.8-3L391.9,313.7z M385.8,315.9c0.4,0.2,0.9,0.3,1.2-0.2c0.3-0.5-0.1-0.9-0.5-1.1l-3.1-1.8
		c-0.4-0.2-0.9-0.3-1.2,0.2c-0.3,0.5,0.1,0.9,0.5,1.1L385.8,315.9z"/>
</g>
<g>
	<rect x="654.9" y="683.3" class="st1" width="4.7" height="169.6"/>
	<rect x="654.9" y="683.3" class="st2" width="1.4" height="169.6"/>
	<rect x="659.5" y="683.3" class="st2" width="1.4" height="169.6"/>
	<path class="st12" d="M693.6,595.3c0.5,3.6,0.5,7.4,0,11c0,0.1,0,0.1,0,0.2l-0.1,0.5l-0.1,0.5c0,0.1,0,0.1,0,0.2
		c-0.2,0.9-0.4,1.7-0.6,2.6c-0.2,0.6-0.3,1.2-0.5,1.7l0,0.1c-0.1,0.2-0.1,0.5-0.2,0.7c0,0.1-0.1,0.3-0.1,0.4
		c-0.1,0.1-0.1,0.2-0.1,0.3c-3.8,10.1-11.7,18.1-21.8,21.8l-0.3,0.1l-0.4,0.2l-0.7,0.2l-0.1,0l-0.8,0.3c-0.3,0.1-0.6,0.2-0.9,0.3
		c-0.9,0.2-1.7,0.4-2.6,0.6l-0.2,0l-0.6,0.1l-0.5,0.1l-0.2,0c-1.8,0.3-3.7,0.4-5.5,0.4c-0.6,0-1.3,0-1.9,0c-1.2-0.1-2.4-0.2-3.6-0.4
		l-0.2,0l-0.5-0.1l-0.6-0.1l-0.2,0c-0.9-0.2-1.7-0.4-2.6-0.6c-0.6-0.2-1.2-0.3-1.7-0.5l-0.1,0l-0.7-0.2l-0.4-0.2l-0.3-0.1
		c-14.5-5.3-24.1-19.1-24.1-34.6c0-0.9,0-1.8,0.1-2.7c0.9-12,7.6-22.8,17.9-28.9c0.2-0.1,0.4-0.2,0.6-0.3l0.3-0.2l0.7-0.4l0.2-0.1
		c0.3-0.2,0.6-0.3,0.9-0.5l0.2-0.1l0.7-0.3l0.3-0.1c0.2-0.1,0.5-0.2,0.8-0.3l0.2-0.1c0.3-0.1,0.7-0.3,1-0.4l0.3-0.1l0.8-0.3l0.3-0.1
		l0.8-0.3l0.2-0.1c0.3-0.1,0.7-0.2,1-0.3l0.3-0.1c0.3-0.1,0.5-0.1,0.8-0.2l0.3-0.1c0.3-0.1,0.6-0.1,0.8-0.2l0.2,0
		c0.3-0.1,0.7-0.1,1-0.2l0.3,0l0.8-0.1l0.3,0l0.9-0.1h0.2l1.1-0.1h0.3l0.8,0h0.3c0.3,0,0.6,0,0.9,0h0.1c0.3,0,0.7,0,1,0h0.3l0.8,0
		h0.3c0.4,0,0.7,0.1,1.1,0.1h0.1l0.9,0.1l0.3,0c0.3,0,0.6,0.1,0.8,0.1l0.2,0c0.4,0.1,0.7,0.1,1.1,0.2l0.1,0c0.3,0.1,0.6,0.1,0.9,0.2
		l0.3,0.1l0.8,0.2l0.2,0.1c0.4,0.1,0.7,0.2,1,0.3l0.1,0c0.3,0.1,0.6,0.2,0.9,0.3l0.3,0.1c0.3,0.1,0.6,0.2,0.9,0.3l0.2,0.1
		c0.3,0.1,0.7,0.3,1,0.4l0.1,0.1c0.3,0.1,0.6,0.2,0.9,0.4l0.2,0.1l0.8,0.4l0.1,0.1c0.3,0.2,0.7,0.3,1,0.5l0.2,0.1
		c0.3,0.1,0.5,0.3,0.8,0.5l0.2,0.1l0.7,0.4c7.2,4.3,12.7,11,15.6,18.8c0,0.1,0.1,0.2,0.1,0.3c0,0.1,0.1,0.3,0.1,0.4
		c0.1,0.2,0.2,0.5,0.2,0.7l0,0.1c0.2,0.6,0.4,1.2,0.5,1.7c0.2,0.9,0.4,1.7,0.6,2.6c0,0.1,0,0.1,0,0.2l0.1,0.5l0.1,0.5
		C693.6,595.2,693.6,595.3,693.6,595.3z M684.8,596.9l0.1-0.6l-0.6-0.3c-0.1-0.1-11.8-5-27.4-5c-15.6,0-27.3,4.9-27.4,5l-0.6,0.3
		l0.1,0.6c2.2,14.5,14,29.9,27.9,29.9C670.8,626.9,682.5,611.4,684.8,596.9L684.8,596.9z M673.6,586.2c1.6-1,1.7-3.7,0.3-6.1
		s-3.9-3.6-5.5-2.6c-1.6,1-1.7,3.7-0.3,6.1S672,587.2,673.6,586.2L673.6,586.2z M645.7,583.7c1.5-2.4,1.3-5.1-0.3-6.1
		c-1.6-1-4.1,0.2-5.6,2.6c-1.5,2.4-1.3,5.1,0.3,6.1C641.8,587.2,644.3,586.1,645.7,583.7L645.7,583.7z"/>
	<path class="st13" d="M684.9,596.3l-0.1,0.6c-2.2,14.5-14,29.9-27.9,29.9s-25.6-15.5-27.9-29.9l-0.1-0.6l0.6-0.3
		c0.1-0.1,11.8-5,27.4-5s27.3,4.9,27.4,5L684.9,596.3z M673.9,616.3c4.7-5.4,7.8-12,9.1-19c-16.9-6.2-35.4-6.2-52.3,0
		c1.3,7,4.4,13.6,9.1,19c5.1,5.8,11.1,8.9,17,8.9C662.8,625.2,668.8,622.1,673.9,616.3z"/>
	<path class="st14" d="M683,597.3c-1.3,7-4.4,13.6-9.1,19c-5.1,5.8-11.1,8.9-17,8.9s-11.9-3.2-17-8.9c-4.7-5.4-7.8-12-9.1-19
		C647.6,591.1,666.2,591.1,683,597.3L683,597.3z"/>
	<path class="st13" d="M673.9,580.1c1.5,2.4,1.3,5.1-0.3,6.1c-1.6,1-4.1-0.2-5.6-2.6c-1.5-2.4-1.3-5.1,0.3-6.1
		C670,576.6,672.4,577.7,673.9,580.1z M673.5,585.7c0.5-0.2,0.8-0.9,0.5-1.7c-0.3-0.8-0.9-1.3-1.4-1.1c-0.5,0.2-0.8,0.9-0.5,1.7
		C672.3,585.4,673,585.8,673.5,585.7L673.5,585.7z M670.2,581.9c0.7-0.2,1-1.3,0.7-2.5c-0.4-1.1-1.3-1.8-2-1.6
		c-0.7,0.2-1,1.3-0.7,2.5C668.5,581.4,669.4,582.1,670.2,581.9L670.2,581.9z"/>
	<path class="st15" d="M674,583.9c0.3,0.8,0,1.5-0.5,1.7c-0.5,0.2-1.2-0.3-1.4-1.1c-0.3-0.8,0-1.5,0.5-1.7
		C673.1,582.7,673.8,583.2,674,583.9z"/>
	<path class="st15" d="M670.8,579.4c0.4,1.1,0.1,2.2-0.7,2.5c-0.7,0.2-1.6-0.5-2-1.6s-0.1-2.2,0.7-2.5S670.4,578.3,670.8,579.4z"/>
	<path class="st13" d="M645.5,577.5c1.6,1,1.7,3.7,0.3,6.1c-1.5,2.4-3.9,3.6-5.5,2.6s-1.7-3.7-0.3-6.1
		C641.4,577.7,643.8,576.6,645.5,577.5z M645.6,580.3c0.4-1.1,0.1-2.2-0.7-2.5s-1.6,0.5-2,1.6c-0.4,1.1-0.1,2.2,0.7,2.5
		C644.4,582.1,645.3,581.4,645.6,580.3L645.6,580.3z M641.7,584.6c0.3-0.8,0-1.5-0.5-1.7c-0.5-0.2-1.2,0.3-1.4,1.1
		c-0.3,0.8,0,1.5,0.5,1.7S641.5,585.4,641.7,584.6L641.7,584.6z"/>
	<path class="st15" d="M645,577.8c0.7,0.2,1,1.3,0.7,2.5c-0.4,1.1-1.3,1.8-2,1.6s-1-1.3-0.7-2.5C643.4,578.3,644.2,577.6,645,577.8z
		"/>
	<path class="st15" d="M641.2,582.9c0.5,0.2,0.8,0.9,0.5,1.7s-0.9,1.3-1.4,1.1s-0.8-0.9-0.5-1.7S640.7,582.7,641.2,582.9z"/>
	<path class="st8" d="M710.7,733.8c-6.9,4.6-13.5,9.7-20.8,13.5c-4.8,2.5-10.5,3.3-15.8,4.9c-0.4,0-0.8,0.1-1.2,0.1
		c-0.6,0-1.2,0-1.8,0.1c-0.4,0-0.9,0.1-1.3,0.1c-0.3,0.1-0.6,0.2-0.8,0.3c-0.3,0-0.6,0-0.9,0c-1.4,0-2.9,0-4.3,0
		c-0.8-0.1-1.6-0.1-2.4-0.2c-0.1-0.2-0.1-0.4-0.2-0.5c2.5-1,5-2.1,7.5-3.1c13.6-5.4,27.2-10.9,40.8-16.3c0.8-0.3,1.7-0.7,2.6-1
		c0.1,0.3,0.1,0.6,0.2,1C711.6,733,711.2,733.4,710.7,733.8z"/>
	<path class="st9" d="M709.7,730.3c-16,6.4-31.9,12.7-47.9,19.1C674.4,734.6,691.1,730,709.7,730.3z"/>
	<path class="st5" d="M718.3,726.8c-8.4,0.7-16.8,1.2-25.1,2.4c-12.6,1.8-23.2,7.9-32.2,16.7c-1.1,1.1-1.9,2.4-2.9,3.6
		c-0.2,0.2-0.3,0.4-0.5,0.6c-0.2,0.1-0.4,0.3-0.7,0.4c-0.2,0.1-0.3,0.1-0.5,0.2l0.1,0.1c-0.1,0.7-0.2,1.5-0.3,2.2c0,0,0.1,0,0.1,0.1
		c0,0.1-0.1,0.2-0.1,0.4c6,0.1,11.5,0.2,17,0.3c0.6,0,1.2-0.1,1.8-0.1c0.8-0.2,1.6-0.3,2.4-0.5c0.2,0,0.4-0.1,0.5-0.1
		c0,0,0.1,0,0.1,0c0.5,0,1,0,1.5-0.1c13-2.7,23.4-10,33.1-18.6c-0.3-0.1-0.5-0.2-0.8-0.3l0,0c-0.4,0-0.8,0-1.2,0
		c-0.1-0.1-0.2-0.1-0.2-0.2c-6.8,4.5-13.3,9.5-20.4,13.3c-4.7,2.5-10.3,3.2-15.5,4.8c0,0-0.1,0-0.1,0c-0.4,0-0.8,0.1-1.2,0.1
		c-0.6,0-1.1,0-1.7,0.1c-0.4,0-0.9,0.1-1.3,0.1c-0.3,0.1-0.5,0.2-0.8,0.3c-0.3,0-0.6,0-0.9,0c-1.4,0-2.8,0-4.3,0
		c-0.8-0.1-1.6-0.1-2.4-0.2c-0.1-0.2-0.1-0.3-0.2-0.5c2.5-1,4.9-2.1,7.4-3.1c13.4-5.3,26.7-10.7,40.1-16c0.8-0.3,1.7-0.6,2.5-1
		c0.1,0.3,0.1,0.6,0.2,0.9c0,0,0,0,0,0c-0.5,0.4-0.9,0.8-1.4,1.1c0.1,0.1,0.2,0.1,0.2,0.2c0.4,0,0.8,0,1.2,0c0,0,0,0,0,0
		c0.3,0.1,0.5,0.2,0.8,0.3c0,0,0.1-0.1,0.1-0.1c0.5-0.5,1.1-0.9,1.6-1.4c0,0,0,0,0,0c0.2-0.2,0.4-0.4,0.6-0.5
		c0.3-0.2,0.5-0.4,0.8-0.6c1.6-1.3,3.1-2.6,5.2-4.3C719.6,727.1,718.9,726.7,718.3,726.8z M661.9,749.3
		c12.5-14.7,29.2-19.3,47.9-19.1C693.8,736.6,677.8,743,661.9,749.3z"/>
	<path class="st17" d="M603.4,703.2c6.8,4.5,13.3,9.6,20.5,13.4c4.7,2.5,10.4,3.3,15.7,4.8c0.4,0,0.8,0.1,1.2,0.1
		c0.6,0,1.2,0,1.7,0.1c0.4,0,0.9,0.1,1.3,0.1c0.3,0.1,0.5,0.2,0.8,0.3c0.3,0,0.6,0,0.9,0c1.4,0,2.9,0,4.3,0c0.8-0.1,1.6-0.1,2.4-0.2
		c0.1-0.2,0.1-0.4,0.2-0.5c-2.5-1-5-2.1-7.5-3.1c-13.4-5.4-26.9-10.7-40.3-16.1c-0.8-0.3-1.7-0.6-2.5-1c-0.1,0.3-0.1,0.6-0.2,0.9
		C602.5,702.4,603,702.8,603.4,703.2z"/>
	<path class="st18" d="M604.4,699.7c15.8,6.3,31.6,12.6,47.3,18.8C639.3,704,622.8,699.5,604.4,699.7z"/>
	<path class="st5" d="M595.9,696.3c8.3,0.7,16.6,1.2,24.8,2.4c12.5,1.8,22.9,7.8,31.8,16.5c1.1,1.1,1.9,2.4,2.9,3.6
		c0.2,0.2,0.3,0.4,0.5,0.6c0.2,0.1,0.4,0.3,0.6,0.4c0.2,0.1,0.3,0.1,0.5,0.2L657,720c0.1,0.7,0.2,1.5,0.3,2.2c0,0-0.1,0-0.1,0.1
		c0,0.1,0.1,0.2,0.1,0.4c-5.9,0.1-11.3,0.2-16.8,0.3c-0.6,0-1.2-0.1-1.8-0.1c-0.8-0.2-1.6-0.3-2.3-0.5c-0.2,0-0.3-0.1-0.5-0.1
		c0,0-0.1,0-0.1,0c-0.5,0-1,0-1.5-0.1c-12.9-2.7-23.2-9.9-32.7-18.3c0.3-0.1,0.5-0.2,0.8-0.3l0,0c0.4,0,0.8,0,1.2,0
		c0.1-0.1,0.2-0.1,0.2-0.2c6.7,4.4,13.1,9.4,20.2,13.1c4.6,2.5,10.2,3.2,15.3,4.7c0,0,0.1,0,0.1,0c0.4,0,0.8,0.1,1.2,0.1
		c0.6,0,1.1,0,1.7,0.1c0.4,0,0.9,0.1,1.3,0.1c0.3,0.1,0.5,0.2,0.8,0.2c0.3,0,0.6,0,0.9,0c1.4,0,2.8,0,4.2,0c0.8-0.1,1.6-0.1,2.4-0.2
		c0.1-0.2,0.1-0.3,0.2-0.5c-2.4-1-4.9-2-7.3-3c-13.2-5.3-26.4-10.5-39.6-15.8c-0.8-0.3-1.7-0.6-2.5-0.9c-0.1,0.3-0.1,0.6-0.2,0.9
		c0,0,0,0,0,0c0.5,0.4,0.9,0.7,1.4,1.1c-0.1,0.1-0.2,0.1-0.2,0.2c-0.4,0-0.8,0-1.2,0c0,0,0,0,0,0c-0.3,0.1-0.5,0.2-0.8,0.3
		c0,0,0-0.1,0-0.1c-0.5-0.5-1.1-0.9-1.6-1.4c0,0,0,0,0,0c-0.2-0.2-0.4-0.4-0.6-0.5c-0.3-0.2-0.5-0.4-0.8-0.6
		c-1.5-1.3-3.1-2.6-5.1-4.3C594.7,696.5,595.3,696.2,595.9,696.3z M651.7,718.5c-12.4-14.5-28.9-19-47.3-18.8
		C620.2,706,635.9,712.3,651.7,718.5z"/>
	<path class="st19" d="M705.1,776.8c-6,4-11.8,8.5-18.1,11.8c-4.2,2.2-9.2,2.9-13.8,4.2c-0.4,0-0.7,0.1-1.1,0.1c-0.5,0-1,0-1.5,0.1
		c-0.4,0-0.8,0-1.2,0.1c-0.2,0.1-0.5,0.1-0.7,0.2c-0.3,0-0.5,0-0.8,0c-1.3,0-2.5,0-3.8,0c-0.7,0-1.4-0.1-2.1-0.1
		c-0.1-0.2-0.1-0.3-0.2-0.5c2.2-0.9,4.4-1.8,6.6-2.7c11.9-4.7,23.7-9.5,35.6-14.2c0.7-0.3,1.5-0.6,2.2-0.9c0,0.3,0.1,0.6,0.1,0.8
		C705.9,776.1,705.5,776.5,705.1,776.8z"/>
	<path class="st20" d="M704.3,773.7c-13.9,5.5-27.9,11.1-41.8,16.6C673.4,777.5,688,773.5,704.3,773.7z"/>
	<path class="st5" d="M711.8,770.7c-7.3,0.7-14.7,1.1-21.9,2.1c-11,1.6-20.3,6.9-28.1,14.6c-1,0.9-1.7,2.1-2.5,3.2
		c-0.1,0.2-0.3,0.4-0.4,0.5c-0.2,0.1-0.4,0.2-0.6,0.3c-0.1,0.1-0.3,0.1-0.4,0.2l0.1,0.1c-0.1,0.6-0.2,1.3-0.3,1.9c0,0,0.1,0,0.1,0.1
		c0,0.1-0.1,0.2-0.1,0.3c5.2,0.1,10,0.2,14.8,0.2c0.5,0,1.1-0.1,1.6-0.1c0.7-0.1,1.4-0.3,2.1-0.4c0.2,0,0.3-0.1,0.5-0.1
		c0,0,0.1,0,0.1,0c0.4,0,0.9,0,1.3-0.1c11.4-2.4,20.5-8.7,28.9-16.2c-0.2-0.1-0.5-0.2-0.7-0.3l0,0c-0.3,0-0.7,0-1,0
		c-0.1-0.1-0.1-0.1-0.2-0.2c-5.9,3.9-11.6,8.3-17.8,11.6c-4.1,2.2-9,2.8-13.5,4.1c0,0-0.1,0-0.1,0c-0.4,0-0.7,0.1-1.1,0.1
		c-0.5,0-1,0-1.5,0.1c-0.4,0-0.8,0-1.2,0.1c-0.2,0.1-0.5,0.1-0.7,0.2c-0.3,0-0.5,0-0.8,0c-1.2,0-2.5,0-3.7,0c-0.7,0-1.4-0.1-2.1-0.1
		c-0.1-0.2-0.1-0.3-0.2-0.5c2.2-0.9,4.3-1.8,6.5-2.7c11.7-4.7,23.4-9.3,35-14c0.7-0.3,1.5-0.6,2.2-0.8c0,0.3,0.1,0.5,0.1,0.8
		c0,0,0,0,0,0c-0.4,0.3-0.8,0.7-1.2,1c0.1,0.1,0.1,0.1,0.2,0.2c0.3,0,0.7,0,1,0c0,0,0,0,0,0c0.2,0.1,0.5,0.2,0.7,0.3
		c0,0,0-0.1,0-0.1c0.5-0.4,0.9-0.8,1.4-1.2c0,0,0,0,0,0c0.2-0.2,0.4-0.3,0.5-0.5c0.2-0.2,0.5-0.4,0.7-0.5c1.4-1.1,2.7-2.3,4.5-3.8
		C712.9,770.9,712.3,770.6,711.8,770.7z M662.5,790.3c10.9-12.8,25.5-16.8,41.8-16.6C690.4,779.2,676.4,784.8,662.5,790.3z"/>
	<g>
		<path class="st33" d="M668.1,522.3c4.1,4,7.1,7.8,4.3,18.2l-6.1,22.9c-2.8-0.7-5.6-1-8.5-1.1h-1.2c-2.9,0-5.7,0.4-8.5,1.1
			l-6.1-22.9c-2.7-10.3,0.2-14.2,4.3-18.2c2.7-2.6,6.5-4,10.9-4C661.6,518.3,665.4,519.7,668.1,522.3z"/>
		<g>
			<path class="st0" d="M735.8,590c2.6,2.7,4,6.5,4,10.9c0,4.4-1.4,8.2-4,10.9c-4,4.1-7.8,7.1-18.2,4.3l-22.9-6.1
				c0.7-2.8,1-5.6,1.1-8.5v0c0-0.2,0-0.4,0-0.6s0-0.4,0-0.6v0c0-2.9-0.4-5.7-1.1-8.5l22.9-6.1C727.9,582.9,731.8,585.8,735.8,590z"
				/>
			<path class="st0" d="M705.9,538.3c1.6,5.5,2.2,10.3-5.3,17.9L683.8,573c-3.3-3.2-7.3-5.8-11.5-7.6l-0.3-0.1l-0.3-0.1
				c-1.2-0.5-2.4-0.9-3.6-1.2l6.2-23c2.8-10.3,7.3-12.2,12.8-13.6c3.7-0.9,7.6-0.2,11.4,2C702.3,531.6,704.9,534.6,705.9,538.3z"/>
			<path class="st0" d="M700.6,645.5c7.5,7.6,6.9,12.4,5.3,17.9c-1,3.6-3.6,6.7-7.4,8.9s-7.8,2.9-11.4,2
				c-5.6-1.4-10.1-3.3-12.8-13.6l-6.2-23c1.1-0.3,2.2-0.7,3.4-1.2l0.4-0.2l0.2-0.1c0.4-0.2,0.8-0.3,1.2-0.5c0.4-0.2,0.7-0.3,1-0.5
				l0,0c3.5-1.7,6.7-4,9.5-6.6L700.6,645.5z"/>
			<path class="st33" d="M672.4,661.2c2.7,10.3-0.2,14.2-4.3,18.2c-2.7,2.6-6.5,4-10.9,4s-8.2-1.4-10.9-4c-4.1-4-7.1-7.8-4.3-18.2
				l6.1-22.9c2.7,0.6,5.4,1,8.2,1.1h0.7h0.4h0.7c2.8-0.1,5.5-0.4,8.2-1.1L672.4,661.2z"/>
			<path class="st0" d="M640.2,541l6.2,22.9c-1.2,0.4-2.4,0.8-3.6,1.2l-0.3,0.1l-0.3,0.1c-4.3,1.8-8.2,4.4-11.5,7.6l-16.8-16.8
				c-7.5-7.6-6.9-12.4-5.3-17.9c1-3.6,3.6-6.7,7.4-8.9c3.8-2.2,7.8-2.9,11.4-2C632.9,528.8,637.4,530.6,640.2,541z"/>
			<path class="st0" d="M646.4,637.8l-6.2,22.9c-2.8,10.3-7.3,12.2-12.9,13.6c-3.7,0.9-7.6,0.2-11.4-2c-3.8-2.2-6.4-5.3-7.4-8.9
				c-1.6-5.5-2.2-10.3,5.3-17.9l16.8-16.8c3.4,3.3,7.4,5.9,11.8,7.7l0.3,0.1l0.4,0.1C644.1,637.1,645.2,637.5,646.4,637.8z"/>
			<path class="st33" d="M612.5,557.5l16.8,16.8c-1.6,1.7-3.1,3.6-4.4,5.6c0,0,0,0,0,0.1c-0.1,0.2-0.3,0.5-0.4,0.7l-0.1,0.2
				c-0.1,0.2-0.3,0.5-0.4,0.7l-0.1,0.1c-1.1,1.9-2,3.9-2.8,6c0,0,0,0,0,0.1c-0.1,0.2-0.2,0.5-0.3,0.7c0,0.1,0,0.1-0.1,0.2
				c-0.1,0.2-0.1,0.4-0.2,0.6c0,0.1-0.1,0.2-0.1,0.3c-0.1,0.2-0.1,0.4-0.2,0.5l-23-6.2c-10.3-2.8-12.2-7.3-13.6-12.8
				c-0.9-3.7-0.2-7.6,2-11.4c2.2-3.8,5.3-6.4,8.9-7.4C600.1,550.5,605,549.9,612.5,557.5z"/>
			<path class="st33" d="M629.4,627.4l-16.8,16.8c-7.6,7.5-12.4,6.9-17.9,5.3c-3.6-1-6.7-3.6-8.9-7.4c-2.2-3.8-2.9-7.8-2-11.4
				c1.4-5.6,3.3-10,13.6-12.8l23-6.2l0,0c0.1,0.2,0.1,0.4,0.2,0.5c0,0.1,0.1,0.2,0.1,0.3c0.1,0.2,0.1,0.4,0.2,0.6
				c0,0.1,0,0.1,0.1,0.2c0.1,0.2,0.2,0.5,0.3,0.7c0,0,0,0,0,0.1C622.9,619.1,625.7,623.6,629.4,627.4L629.4,627.4z"/>
			<path class="st0" d="M619.8,591.8c0,0.2-0.1,0.4-0.1,0.6c0,0.1,0,0.2-0.1,0.3c-0.1,0.2-0.1,0.5-0.1,0.7c0,0.1,0,0.1,0,0.2
				c-0.1,0.3-0.1,0.5-0.1,0.8c0,0,0,0,0,0c-0.8,4.4-0.8,8.8,0,13.2c0,0,0,0,0,0c0,0.3,0.1,0.5,0.1,0.8c0,0.1,0,0.1,0,0.2
				c0,0.2,0.1,0.5,0.1,0.7c0,0.1,0,0.2,0.1,0.3c0,0.2,0.1,0.4,0.1,0.6l-22.9,6.1c-10.3,2.7-14.2-0.2-18.2-4.3c-2.6-2.7-4-6.5-4-10.9
				c0-4.4,1.4-8.2,4-10.9c4-4.1,7.8-7.1,18.2-4.3L619.8,591.8z"/>
			<path class="st33" d="M728.7,559.6c2.2,3.8,2.9,7.8,2,11.4c-1.4,5.6-3.3,10.1-13.6,12.8l-23,6.2c-0.4-1.2-0.8-2.4-1.2-3.6
				l-0.1-0.3c0-0.1-0.1-0.2-0.1-0.3c-1.8-4.3-4.4-8.2-7.6-11.5l16.8-16.8c7.6-7.5,12.4-6.9,17.9-5.3
				C723.4,553.2,726.5,555.8,728.7,559.6z"/>
			<path class="st33" d="M730.7,630.7c0.9,3.7,0.2,7.6-2,11.4c-2.2,3.8-5.3,6.4-8.9,7.4c-5.5,1.6-10.3,2.2-17.9-5.3l-16.8-16.8
				c3.2-3.3,5.8-7.3,7.6-11.5c0.1-0.1,0.1-0.2,0.1-0.3l0.1-0.3c0.5-1.2,0.9-2.4,1.2-3.6l22.9,6.2
				C727.4,620.6,729.3,625.1,730.7,630.7z"/>
		</g>
	</g>
</g>
<g>
	<path class="st5" d="M763.9,615.2c11.1,1,22.3,1.6,33.3,3.2c16.7,2.4,30.8,10.4,42.7,22.2c1.5,1.4,2.6,3.2,3.8,4.8
		c0.2,0.3,0.4,0.5,0.6,0.8c0.3,0.2,0.6,0.3,0.9,0.5c0.2,0.1,0.4,0.2,0.7,0.3l-0.1,0.1c0.1,1,0.3,1.9,0.4,2.9c-0.1,0-0.1,0.1-0.2,0.1
		c0.1,0.2,0.1,0.3,0.2,0.5c-7.9,0.1-15.2,0.3-22.5,0.4c-0.8-0.1-1.6-0.1-2.4-0.2c-1-0.2-2.1-0.4-3.1-0.6c-0.2,0-0.5-0.1-0.7-0.1
		c0,0-0.1,0-0.1,0c-0.7,0-1.3,0-2-0.1c-17.3-3.6-31.1-13.3-43.9-24.6c0.3-0.1,0.7-0.3,1-0.4l0,0c0.5,0,1.1,0,1.6,0
		c0.1-0.1,0.2-0.2,0.3-0.3c9,6,17.6,12.6,27.1,17.6c6.2,3.3,13.7,4.3,20.6,6.3c0,0,0.1,0,0.1,0c0.5,0.1,1.1,0.1,1.6,0.2
		c0.8,0,1.5,0.1,2.3,0.1c0.6,0,1.2,0.1,1.8,0.1c0.4,0.1,0.7,0.2,1.1,0.3c0.4,0,0.8,0,1.2,0c1.9,0,3.8,0,5.7,0
		c1.1-0.1,2.1-0.1,3.2-0.2c0.1-0.2,0.2-0.5,0.3-0.7c-3.3-1.4-6.5-2.7-9.8-4c-17.7-7.1-35.5-14.1-53.2-21.2c-1.1-0.4-2.2-0.8-3.3-1.3
		c-0.1,0.4-0.1,0.8-0.2,1.2c0,0,0,0,0,0c0.6,0.5,1.2,1,1.8,1.5c-0.1,0.1-0.2,0.2-0.3,0.3c-0.5,0-1.1,0-1.6,0c0,0,0,0,0,0
		c-0.3,0.1-0.7,0.3-1,0.4c0,0-0.1-0.1-0.1-0.1c-0.7-0.6-1.4-1.2-2.1-1.8c0,0,0,0,0,0c-0.3-0.2-0.6-0.5-0.8-0.7
		c-0.3-0.3-0.7-0.6-1-0.8c-2.1-1.7-4.1-3.5-6.9-5.7C762.3,615.6,763.2,615.1,763.9,615.2z M838.8,645.1
		c-16.6-19.5-38.7-25.6-63.5-25.3C796.5,628.3,817.7,636.7,838.8,645.1z"/>
	<path class="st12" d="M904.6,451.5c0.9,5.7,0.9,11.5,0,17.2c0,0.1,0,0.2-0.1,0.3l-0.1,0.8l-0.2,0.8c0,0.1,0,0.2-0.1,0.3
		c-0.3,1.4-0.6,2.7-0.9,4c-0.2,0.9-0.5,1.8-0.8,2.7l0,0.1c-0.1,0.4-0.2,0.7-0.4,1c-0.1,0.2-0.2,0.5-0.2,0.7
		c-0.1,0.2-0.1,0.3-0.2,0.5c-5.9,15.8-18.3,28.3-34.1,34.1l-0.5,0.2l-0.7,0.2l-1,0.4l-0.1,0l-1.3,0.4c-0.5,0.1-0.9,0.3-1.4,0.4
		c-1.3,0.4-2.7,0.7-4,0.9l-0.3,0.1l-0.9,0.2l-0.8,0.1l-0.4,0.1c-2.8,0.4-5.7,0.6-8.6,0.6c-1,0-2,0-3-0.1c-1.9-0.1-3.8-0.3-5.6-0.6
		l-0.4-0.1l-0.8-0.1l-0.9-0.2l-0.3-0.1c-1.4-0.3-2.7-0.6-4.1-0.9c-0.9-0.2-1.8-0.5-2.7-0.8l-0.1-0.1l-1-0.3l-0.7-0.2l-0.4-0.2
		c-22.6-8.4-37.7-29.9-37.7-54.1c0-1.4,0.1-2.8,0.2-4.3c1.4-18.7,11.8-35.6,27.9-45.2c0.3-0.2,0.6-0.4,0.9-0.5l0.5-0.3l1.1-0.6
		l0.4-0.2c0.5-0.3,1-0.5,1.5-0.7l0.4-0.2l1.2-0.5l0.5-0.2c0.4-0.2,0.8-0.3,1.2-0.5l0.4-0.2c0.5-0.2,1-0.4,1.5-0.6l0.4-0.1l1.2-0.4
		l0.5-0.2l1.2-0.4l0.4-0.1c0.5-0.2,1.1-0.3,1.6-0.4l0.4-0.1c0.4-0.1,0.8-0.2,1.2-0.3l0.5-0.1c0.4-0.1,0.9-0.2,1.3-0.3l0.3-0.1
		c0.5-0.1,1.1-0.2,1.6-0.3l0.5-0.1l1.2-0.2l0.5-0.1l1.4-0.2h0.3l1.7-0.1h0.5l1.2-0.1h0.5c0.5,0,1,0,1.5,0h0.1c0.5,0,1,0,1.5,0h0.5
		l1.3,0.1h0.4c0.6,0,1.1,0.1,1.7,0.1h0.2l1.5,0.2l0.5,0.1c0.4,0.1,0.9,0.1,1.3,0.2l0.4,0.1c0.6,0.1,1.1,0.2,1.7,0.3l0.2,0
		c0.5,0.1,1,0.2,1.5,0.3l0.4,0.1l1.3,0.3l0.3,0.1c0.5,0.1,1.1,0.3,1.6,0.5l0.2,0.1c0.5,0.1,0.9,0.3,1.4,0.4l0.4,0.1
		c0.4,0.1,0.9,0.3,1.3,0.5l0.3,0.1c0.5,0.2,1.1,0.4,1.6,0.6l0.2,0.1c0.4,0.2,0.9,0.4,1.3,0.6l0.4,0.2l1.3,0.6l0.2,0.1
		c0.5,0.2,1,0.5,1.6,0.8l0.2,0.1c0.4,0.2,0.8,0.5,1.3,0.7l0.4,0.2l1.1,0.7c11.2,6.8,19.8,17.2,24.4,29.4c0.1,0.1,0.1,0.3,0.2,0.5
		c0.1,0.2,0.2,0.4,0.2,0.7c0.1,0.4,0.2,0.7,0.4,1l0,0.1c0.3,0.9,0.6,1.8,0.8,2.7c0.4,1.3,0.7,2.7,0.9,4c0,0.1,0,0.2,0.1,0.3l0.2,0.8
		l0.1,0.8C904.6,451.3,904.6,451.4,904.6,451.5z M890.7,454l0.2-1l-0.9-0.4c-0.2-0.1-18.5-7.8-42.8-7.8c-24.3,0-42.6,7.7-42.8,7.8
		l-0.9,0.4l0.2,1c3.5,22.6,21.9,46.8,43.6,46.8C868.9,500.8,887.2,476.6,890.7,454L890.7,454z M873.3,437.2c2.5-1.5,2.7-5.8,0.5-9.6
		c-2.3-3.8-6.2-5.6-8.7-4c-2.5,1.5-2.7,5.8-0.5,9.6S870.8,438.8,873.3,437.2L873.3,437.2z M829.7,433.2c2.3-3.8,2.1-8-0.5-9.6
		c-2.5-1.5-6.4,0.3-8.7,4c-2.3,3.7-2.1,8,0.5,9.6C823.6,438.7,827.5,436.9,829.7,433.2L829.7,433.2z"/>
	<path class="st13" d="M890.9,453l-0.2,1c-3.5,22.6-21.9,46.8-43.6,46.8s-40.1-24.2-43.6-46.8l-0.2-1l0.9-0.4
		c0.2-0.1,18.5-7.8,42.8-7.8s42.6,7.7,42.8,7.8L890.9,453z M873.7,484.2c7.3-8.4,12.3-18.7,14.3-29.7c-26.4-9.6-55.4-9.6-81.8,0
		c2,11,7,21.3,14.3,29.7c7.9,9,17.4,14,26.6,14S865.8,493.3,873.7,484.2z"/>
	<path class="st14" d="M888,454.6c-2,11-7,21.2-14.3,29.7c-7.9,9-17.4,14-26.6,14s-18.7-4.9-26.6-14c-7.3-8.4-12.3-18.7-14.3-29.7
		C832.7,444.9,861.6,444.9,888,454.6L888,454.6z"/>
	<path class="st13" d="M873.7,427.7c2.3,3.8,2.1,8-0.5,9.6c-2.5,1.5-6.4-0.3-8.7-4s-2.1-8,0.5-9.6
		C867.6,422.1,871.5,423.9,873.7,427.7z M873.1,436.3c0.8-0.3,1.2-1.5,0.8-2.7c-0.4-1.2-1.4-2-2.3-1.7s-1.2,1.5-0.8,2.7
		C871.3,435.9,872.3,436.6,873.1,436.3L873.1,436.3z M867.9,430.4c1.1-0.4,1.6-2.1,1-3.9c-0.6-1.8-2-2.9-3.1-2.5
		c-1.1,0.4-1.6,2.1-1,3.9C865.4,429.6,866.8,430.8,867.9,430.4L867.9,430.4z"/>
	<path class="st15" d="M874,433.6c0.4,1.2,0,2.4-0.8,2.7c-0.8,0.3-1.9-0.5-2.3-1.7c-0.4-1.2,0-2.4,0.8-2.7
		C872.6,431.7,873.5,432.4,874,433.6z"/>
	<path class="st15" d="M868.9,426.5c0.6,1.8,0.1,3.5-1,3.9c-1.1,0.4-2.5-0.7-3.1-2.5c-0.6-1.8-0.1-3.5,1-3.9
		C867,423.6,868.3,424.8,868.9,426.5z"/>
	<path class="st13" d="M829.3,423.6c2.5,1.5,2.7,5.8,0.5,9.6s-6.2,5.6-8.7,4c-2.5-1.5-2.7-5.8-0.5-9.6
		C822.8,423.9,826.7,422.1,829.3,423.6z M829.5,427.9c0.6-1.8,0.1-3.5-1-3.9s-2.5,0.7-3.1,2.5c-0.6,1.8-0.1,3.5,1,3.9
		C827.6,430.8,829,429.6,829.5,427.9L829.5,427.9z M823.4,434.6c0.4-1.2,0-2.4-0.8-2.7c-0.8-0.3-1.9,0.5-2.2,1.7
		c-0.4,1.2,0,2.4,0.8,2.7S823,435.9,823.4,434.6L823.4,434.6z"/>
	<path class="st15" d="M828.5,424c1.1,0.4,1.6,2.1,1,3.9c-0.6,1.8-2,2.9-3.1,2.5c-1.1-0.4-1.6-2.1-1-3.9
		C826,424.8,827.4,423.7,828.5,424z"/>
	<path class="st15" d="M822.6,431.9c0.8,0.3,1.2,1.5,0.8,2.7c-0.4,1.2-1.4,2-2.2,1.7c-0.8-0.3-1.2-1.5-0.8-2.7
		C820.8,432.4,821.8,431.7,822.6,431.9z"/>
	<g>
		<path class="st0" d="M970.5,443.1c4.1,4.3,6.3,10.2,6.3,17c0,6.9-2.2,12.8-6.3,17c-6.2,6.5-12.3,11.1-28.4,6.8l-35.9-9.6
			c1.1-4.4,1.6-8.8,1.7-13.3V461c0-0.3,0-0.6,0-0.9s0-0.6,0-0.9v-0.1c-0.1-4.5-0.6-8.9-1.7-13.3l35.8-9.6
			C958.2,432,964.3,436.6,970.5,443.1z"/>
		<path class="st34" d="M959.5,395.5c3.4,6,4.5,12.1,3.1,17.9c-2.2,8.7-5.1,15.7-21.2,20.1l-35.9,9.6c-0.6-1.9-1.2-3.7-1.9-5.6
			l-0.2-0.5c-0.1-0.2-0.1-0.3-0.2-0.5c-2.8-6.7-6.8-12.8-11.8-18l26.3-26.3c11.8-11.8,19.4-10.8,28-8.3
			C951.2,385.6,956,389.6,959.5,395.5z"/>
		<path class="st34" d="M962.6,506.7c1.4,5.7,0.4,11.9-3.1,17.9s-8.3,10-13.9,11.6c-8.6,2.5-16.2,3.5-28-8.3l-26.3-26.3
			c5-5.2,9-11.3,11.8-18c0.1-0.2,0.1-0.3,0.2-0.5l0.2-0.5c0.7-1.8,1.4-3.7,1.9-5.6l35.9,9.6C957.5,491,960.4,498,962.6,506.7z"/>
		<path class="st0" d="M923.8,362.2c2.5,8.6,3.5,16.2-8.3,28l-26.3,26.3c-5.2-5-11.3-9-18-11.8l-0.5-0.2l-0.5-0.2
			c-1.8-0.7-3.7-1.4-5.6-2l9.6-35.9c4.4-16.2,11.4-19.1,20.1-21.2c5.7-1.4,11.9-0.4,17.9,3.1C918.2,351.8,922.2,356.6,923.8,362.2z"
			/>
		<path class="st0" d="M915.5,529.9c11.8,11.9,10.8,19.4,8.3,28c-1.6,5.7-5.7,10.5-11.6,13.9s-12.1,4.5-17.9,3.1
			c-8.7-2.2-15.7-5.1-20.1-21.2l-9.6-35.9c1.8-0.5,3.5-1.1,5.2-1.8l0.6-0.2l0.4-0.2c0.6-0.3,1.3-0.5,1.9-0.8
			c0.6-0.3,1.1-0.5,1.6-0.7l0,0c5.4-2.7,10.5-6.2,14.8-10.4L915.5,529.9z"/>
		<path class="st34" d="M864.7,337.2c6.5,6.2,11.1,12.3,6.8,28.4l-9.6,35.9c-4.4-1.1-8.8-1.6-13.3-1.7h-1.9
			c-4.5,0.1-8.9,0.6-13.3,1.7l-9.6-35.8c-4.3-16.2,0.3-22.2,6.8-28.5c4.3-4.1,10.2-6.3,17-6.3S860.4,333.1,864.7,337.2z"/>
		<path class="st34" d="M871.5,554.5c4.3,16.2-0.3,22.2-6.8,28.4c-4.3,4.1-10.2,6.3-17,6.3s-12.8-2.2-17-6.3
			c-6.5-6.2-11.1-12.3-6.8-28.4l9.6-35.9c4.2,1,8.5,1.6,12.8,1.7h1.2h0.6h1.2c4.3-0.1,8.6-0.7,12.8-1.7L871.5,554.5z"/>
		<path class="st0" d="M821.1,366.4l9.6,35.8c-1.9,0.6-3.7,1.2-5.6,2l-0.5,0.2l-0.5,0.2c-6.7,2.8-12.8,6.8-18,11.8l-26.3-26.3
			c-11.8-11.9-10.8-19.4-8.3-28c1.6-5.7,5.7-10.5,11.6-14s12.2-4.5,17.9-3.1C809.7,347.3,816.7,350.3,821.1,366.4z"/>
		<path class="st0" d="M830.7,517.9l-9.6,35.8c-4.4,16.2-11.4,19.1-20.1,21.2c-5.7,1.4-11.9,0.4-17.9-3.1s-10-8.3-11.6-13.9
			c-2.5-8.6-3.5-16.2,8.3-28l26.3-26.3c5.3,5.1,11.6,9.2,18.4,12l0.4,0.2l0.6,0.2C827.2,516.7,829,517.3,830.7,517.9z"/>
		<path class="st34" d="M777.8,392.3l26.3,26.3c-2.6,2.7-4.9,5.6-6.9,8.8c0,0,0,0.1-0.1,0.1c-0.2,0.4-0.4,0.7-0.7,1.1l-0.2,0.3
			c-0.2,0.4-0.4,0.7-0.7,1.1l-0.1,0.2c-1.7,3-3.2,6.1-4.4,9.3c0,0,0,0.1,0,0.1c-0.1,0.4-0.3,0.7-0.4,1.1c0,0.1-0.1,0.2-0.1,0.3
			c-0.1,0.3-0.2,0.7-0.3,1c-0.1,0.1-0.1,0.3-0.1,0.5c-0.1,0.3-0.2,0.6-0.3,0.8l-35.9-9.7c-16.2-4.4-19.1-11.4-21.2-20.1
			c-1.4-5.7-0.4-11.9,3.1-17.9c3.4-6,8.3-10,13.9-11.6C758.4,381.4,765.9,380.4,777.8,392.3z"/>
		<path class="st34" d="M804.1,501.7l-26.3,26.3c-11.9,11.8-19.4,10.8-28,8.3c-5.7-1.6-10.5-5.7-13.9-11.6s-4.5-12.1-3.1-17.9
			c2.2-8.7,5.1-15.7,21.2-20.1l35.9-9.6l0,0c0.1,0.3,0.2,0.6,0.3,0.8c0,0.2,0.1,0.3,0.1,0.5c0.1,0.3,0.2,0.7,0.3,1
			c0,0.1,0.1,0.2,0.1,0.3c0.1,0.4,0.3,0.7,0.4,1.1c0,0,0,0.1,0,0.1C794,488.6,798.4,495.7,804.1,501.7L804.1,501.7z"/>
		<path class="st0" d="M789.2,445.9c-0.1,0.3-0.1,0.6-0.2,0.9c0,0.1-0.1,0.3-0.1,0.4c-0.1,0.3-0.2,0.7-0.2,1c0,0.1,0,0.2-0.1,0.3
			c-0.1,0.4-0.2,0.8-0.2,1.2c0,0,0,0,0,0.1c-1.2,6.8-1.2,13.8,0,20.6c0,0,0,0,0,0.1c0.1,0.4,0.2,0.8,0.2,1.2c0,0.1,0,0.2,0.1,0.3
			c0.1,0.4,0.1,0.7,0.2,1c0,0.1,0.1,0.3,0.1,0.4c0.1,0.3,0.1,0.6,0.2,0.9l-35.9,9.6c-16.2,4.3-22.2-0.3-28.4-6.8
			c-4.1-4.3-6.3-10.2-6.3-17s2.2-12.8,6.3-17c6.2-6.5,12.3-11.1,28.4-6.8L789.2,445.9z"/>
	</g>
	<g>
		<path class="st3" d="M774.1,624.5c9.1,6.1,17.9,12.8,27.5,18c6.3,3.4,14,4.4,21,6.5c0.5,0.1,1.1,0.1,1.6,0.2
			c0.8,0,1.5,0.1,2.3,0.1c0.6,0,1.2,0.1,1.8,0.1c0.4,0.1,0.7,0.2,1.1,0.3c0.4,0,0.8,0,1.2,0c1.9,0,3.8,0,5.7,0
			c1.1-0.1,2.1-0.1,3.2-0.2c0.1-0.2,0.2-0.5,0.3-0.7c-3.3-1.4-6.7-2.8-10-4.1c-18-7.2-36-14.4-54.1-21.6c-1.1-0.4-2.3-0.9-3.4-1.3
			c-0.1,0.4-0.1,0.8-0.2,1.3C772.8,623.5,773.5,624,774.1,624.5z"/>
		<path class="st4" d="M775.3,619.8c21.2,8.4,42.3,16.8,63.5,25.3C822.2,625.6,800.1,619.5,775.3,619.8z"/>
		<rect x="844" y="589.1" class="st1" width="7.3" height="265.3"/>
		<rect x="844" y="589.1" class="st2" width="2.1" height="265.3"/>
		<rect x="851.3" y="589.1" class="st2" width="2.1" height="265.3"/>
		<path class="st3" d="M904.3,701.1c-7,4.6-13.6,9.8-21,13.7c-4.8,2.6-10.7,3.3-16,4.9c-0.4,0-0.8,0.1-1.2,0.1c-0.6,0-1.2,0-1.8,0.1
			c-0.5,0-0.9,0.1-1.4,0.1c-0.3,0.1-0.6,0.2-0.8,0.3c-0.3,0-0.6,0-0.9,0c-1.5,0-2.9,0-4.4,0c-0.8-0.1-1.6-0.1-2.5-0.2
			c-0.1-0.2-0.1-0.4-0.2-0.5c2.5-1.1,5.1-2.1,7.6-3.1c13.7-5.5,27.5-11,41.3-16.5c0.9-0.3,1.7-0.7,2.6-1c0.1,0.3,0.1,0.6,0.2,1
			C905.2,700.3,904.8,700.7,904.3,701.1z"/>
		<path class="st4" d="M903.3,697.5c-16.2,6.4-32.3,12.9-48.5,19.3C867.6,701.9,884.4,697.3,903.3,697.5z"/>
		<path class="st5" d="M912,694c-8.5,0.8-17,1.2-25.4,2.4c-12.8,1.9-23.5,8-32.6,16.9c-1.1,1.1-2,2.4-2.9,3.7
			c-0.2,0.2-0.3,0.4-0.5,0.6c-0.2,0.1-0.4,0.3-0.7,0.4c-0.2,0.1-0.3,0.1-0.5,0.2l0.1,0.1c-0.1,0.7-0.2,1.5-0.3,2.2
			c0,0,0.1,0,0.1,0.1c0,0.1-0.1,0.2-0.1,0.4c6,0.1,11.6,0.2,17.2,0.3c0.6,0,1.2-0.1,1.9-0.1c0.8-0.2,1.6-0.3,2.4-0.5
			c0.2,0,0.4-0.1,0.5-0.1c0,0,0.1,0,0.1,0c0.5,0,1,0,1.5-0.1c13.2-2.7,23.7-10.1,33.5-18.8c-0.3-0.1-0.5-0.2-0.8-0.3l0,0
			c-0.4,0-0.8,0-1.2,0c-0.1-0.1-0.2-0.1-0.2-0.2c-6.9,4.5-13.4,9.6-20.7,13.5c-4.7,2.5-10.4,3.3-15.7,4.8c0,0-0.1,0-0.1,0
			c-0.4,0-0.8,0.1-1.2,0.1c-0.6,0-1.2,0-1.7,0.1c-0.4,0-0.9,0.1-1.3,0.1c-0.3,0.1-0.6,0.2-0.8,0.3c-0.3,0-0.6,0-0.9,0
			c-1.4,0-2.9,0-4.3,0c-0.8-0.1-1.6-0.1-2.4-0.2c-0.1-0.2-0.1-0.4-0.2-0.5c2.5-1,5-2.1,7.5-3.1c13.5-5.4,27.1-10.8,40.6-16.2
			c0.8-0.3,1.7-0.6,2.6-1c0.1,0.3,0.1,0.6,0.2,1c0,0,0,0,0,0c-0.5,0.4-0.9,0.8-1.4,1.1c0.1,0.1,0.2,0.1,0.2,0.2c0.4,0,0.8,0,1.2,0
			c0,0,0,0,0,0c0.3,0.1,0.5,0.2,0.8,0.3c0,0,0.1-0.1,0.1-0.1c0.5-0.5,1.1-0.9,1.6-1.4c0,0,0,0,0,0c0.2-0.2,0.4-0.4,0.6-0.5
			c0.3-0.2,0.5-0.4,0.8-0.6c1.6-1.3,3.2-2.6,5.3-4.4C913.3,694.3,912.6,693.9,912,694z M854.9,716.8c12.7-14.9,29.6-19.5,48.5-19.3
			C887.2,703.9,871,710.3,854.9,716.8z"/>
		<path class="st17" d="M778,722.9c9.4,6.2,18.3,13.2,28.2,18.4c6.5,3.5,14.3,4.5,21.5,6.6c0.6,0.1,1.1,0.1,1.7,0.2
			c0.8,0,1.6,0.1,2.4,0.1c0.6,0,1.2,0.1,1.8,0.1c0.4,0.1,0.8,0.2,1.1,0.3c0.4,0,0.8,0,1.2,0c2,0,3.9,0,5.9,0
			c1.1-0.1,2.2-0.2,3.3-0.2c0.1-0.2,0.2-0.5,0.3-0.7c-3.4-1.4-6.8-2.9-10.3-4.2c-18.5-7.4-37-14.8-55.4-22.1
			c-1.2-0.5-2.3-0.9-3.5-1.3c-0.1,0.4-0.2,0.9-0.2,1.3C776.8,721.8,777.4,722.4,778,722.9z"/>
		<path class="st18" d="M779.3,718.1c21.7,8.6,43.4,17.3,65.1,25.9C827.4,724,804.7,717.8,779.3,718.1z"/>
		<path class="st5" d="M767.6,713.3c11.4,1,22.9,1.6,34.2,3.3c17.2,2.5,31.6,10.7,43.8,22.8c1.5,1.5,2.6,3.3,3.9,4.9
			c0.2,0.3,0.4,0.6,0.7,0.8c0.3,0.2,0.6,0.3,0.9,0.5c0.2,0.1,0.5,0.2,0.7,0.3l-0.1,0.1c0.1,1,0.3,2,0.4,3c-0.1,0-0.1,0.1-0.2,0.1
			c0.1,0.2,0.1,0.3,0.2,0.5c-8.1,0.1-15.6,0.3-23.1,0.4c-0.8-0.1-1.7-0.1-2.5-0.2c-1.1-0.2-2.1-0.4-3.2-0.6c-0.2,0-0.5-0.1-0.7-0.1
			c0,0-0.1,0-0.1,0c-0.7,0-1.4,0-2-0.1c-17.7-3.7-31.9-13.6-45-25.2c0.4-0.1,0.7-0.3,1.1-0.4l0,0c0.5,0,1.1,0,1.6,0
			c0.1-0.1,0.2-0.2,0.3-0.3c9.2,6.1,18,12.9,27.8,18.1c6.4,3.4,14,4.4,21.1,6.5c0,0,0.1,0,0.1,0c0.5,0.1,1.1,0.1,1.6,0.2
			c0.8,0,1.6,0.1,2.3,0.1c0.6,0,1.2,0.1,1.8,0.1c0.4,0.1,0.7,0.2,1.1,0.3c0.4,0,0.8,0,1.2,0c1.9,0,3.9,0,5.8,0
			c1.1-0.1,2.2-0.1,3.2-0.2c0.1-0.2,0.2-0.5,0.3-0.7c-3.4-1.4-6.7-2.8-10.1-4.2c-18.2-7.3-36.4-14.5-54.5-21.7
			c-1.1-0.5-2.3-0.9-3.4-1.3c-0.1,0.4-0.1,0.9-0.2,1.3c0,0,0,0,0,0c0.6,0.5,1.3,1,1.9,1.5c-0.1,0.1-0.2,0.2-0.3,0.3
			c-0.5,0-1.1,0-1.6,0c0,0,0,0,0,0c-0.4,0.1-0.7,0.3-1.1,0.4c0,0-0.1-0.1-0.1-0.1c-0.7-0.6-1.5-1.3-2.2-1.9c0,0,0,0,0,0
			c-0.3-0.2-0.6-0.5-0.9-0.7c-0.4-0.3-0.7-0.6-1.1-0.9c-2.1-1.8-4.2-3.5-7.1-5.9C766,713.7,766.8,713.3,767.6,713.3z M844.4,744
			c-17-20-39.7-26.2-65.1-25.9C801,726.7,822.7,735.3,844.4,744z"/>
		<path class="st10" d="M925.1,621.9c-9.4,6.2-18.3,13.2-28.2,18.4c-6.5,3.5-14.3,4.5-21.5,6.6c-0.6,0.1-1.1,0.1-1.7,0.2
			c-0.8,0-1.6,0.1-2.4,0.1c-0.6,0-1.2,0.1-1.8,0.1c-0.4,0.1-0.8,0.2-1.1,0.3c-0.4,0-0.8,0-1.2,0c-2,0-3.9,0-5.9,0
			c-1.1-0.1-2.2-0.2-3.3-0.2c-0.1-0.2-0.2-0.5-0.3-0.7c3.4-1.4,6.8-2.9,10.3-4.2c18.5-7.4,37-14.8,55.4-22.1
			c1.2-0.5,2.3-0.9,3.5-1.3c0.1,0.4,0.2,0.9,0.2,1.3C926.3,620.9,925.7,621.4,925.1,621.9z"/>
		<path class="st11" d="M923.8,617.1c-21.7,8.6-43.4,17.3-65.1,25.9C875.7,623,898.4,616.8,923.8,617.1z"/>
		<path class="st5" d="M935.5,612.4c-11.4,1-22.9,1.6-34.2,3.3c-17.2,2.5-31.6,10.7-43.8,22.8c-1.5,1.5-2.6,3.3-3.9,4.9
			c-0.2,0.3-0.4,0.6-0.7,0.8c-0.3,0.2-0.6,0.3-0.9,0.5c-0.2,0.1-0.5,0.2-0.7,0.3l0.1,0.1c-0.1,1-0.3,2-0.4,3c0.1,0,0.1,0.1,0.2,0.1
			c-0.1,0.2-0.1,0.3-0.2,0.5c8.1,0.1,15.6,0.3,23.1,0.4c0.8-0.1,1.7-0.1,2.5-0.2c1.1-0.2,2.1-0.4,3.2-0.6c0.2,0,0.5-0.1,0.7-0.1
			c0,0,0.1,0,0.1,0c0.7,0,1.4,0,2-0.1c17.7-3.7,31.9-13.6,45-25.2c-0.4-0.1-0.7-0.3-1.1-0.4l0,0c-0.5,0-1.1,0-1.6,0
			c-0.1-0.1-0.2-0.2-0.3-0.3c-9.2,6.1-18,12.9-27.8,18.1c-6.4,3.4-14,4.4-21.1,6.5c0,0-0.1,0-0.1,0c-0.5,0.1-1.1,0.1-1.6,0.2
			c-0.8,0-1.6,0.1-2.3,0.1c-0.6,0-1.2,0.1-1.8,0.1c-0.4,0.1-0.7,0.2-1.1,0.3c-0.4,0-0.8,0-1.2,0c-1.9,0-3.9,0-5.8,0
			c-1.1-0.1-2.2-0.1-3.2-0.2c-0.1-0.2-0.2-0.5-0.3-0.7c3.4-1.4,6.7-2.8,10.1-4.2c18.2-7.3,36.4-14.5,54.5-21.7
			c1.1-0.5,2.3-0.9,3.4-1.3c0.1,0.4,0.1,0.9,0.2,1.3c0,0,0,0,0,0c-0.6,0.5-1.3,1-1.9,1.5c0.1,0.1,0.2,0.2,0.3,0.3c0.5,0,1.1,0,1.6,0
			c0,0,0,0,0,0c0.4,0.1,0.7,0.3,1.1,0.4c0,0,0.1-0.1,0.1-0.1c0.7-0.6,1.5-1.3,2.2-1.9c0,0,0,0,0,0c0.3-0.2,0.6-0.5,0.9-0.7
			c0.4-0.3,0.7-0.6,1.1-0.9c2.1-1.8,4.2-3.5,7.1-5.9C937.1,612.8,936.3,612.3,935.5,612.4z M858.7,643c17-20,39.7-26.2,65.1-25.9
			C902.1,625.7,880.4,634.4,858.7,643z"/>
		<path class="st19" d="M931.9,761c-10.5,6.9-20.5,14.7-31.5,20.6c-7.3,3.9-16,5-24.1,7.4c-0.6,0.1-1.2,0.1-1.9,0.2
			c-0.9,0-1.8,0.1-2.7,0.1c-0.7,0-1.4,0.1-2,0.1c-0.4,0.1-0.8,0.3-1.3,0.4c-0.5,0-0.9,0-1.4,0c-2.2,0-4.4,0-6.6,0
			c-1.2-0.1-2.5-0.2-3.7-0.3c-0.1-0.3-0.2-0.5-0.3-0.8c3.8-1.6,7.6-3.2,11.5-4.7c20.6-8.3,41.3-16.5,61.9-24.7
			c1.3-0.5,2.6-1,3.9-1.5c0.1,0.5,0.2,1,0.3,1.5C933.3,759.8,932.6,760.4,931.9,761z"/>
		<path class="st20" d="M930.5,755.6c-24.2,9.6-48.5,19.3-72.7,28.9C876.8,762.2,902.1,755.3,930.5,755.6z"/>
		<path class="st5" d="M943.5,750.3c-12.7,1.1-25.5,1.8-38.2,3.7c-19.2,2.8-35.3,12-48.9,25.4c-1.7,1.6-2.9,3.7-4.4,5.5
			c-0.2,0.3-0.5,0.6-0.7,0.9c-0.3,0.2-0.7,0.4-1,0.6c-0.3,0.1-0.5,0.2-0.8,0.3l0.1,0.1c-0.2,1.1-0.3,2.2-0.5,3.3
			c0.1,0,0.1,0.1,0.2,0.1c-0.1,0.2-0.1,0.4-0.2,0.6c9,0.2,17.4,0.3,25.8,0.4c0.9-0.1,1.9-0.1,2.8-0.2c1.2-0.2,2.4-0.5,3.6-0.7
			c0.3,0,0.5-0.1,0.8-0.1c0.1,0,0.1,0,0.2,0.1c0.8,0,1.5,0,2.3-0.2c19.8-4.1,35.6-15.2,50.3-28.2c-0.4-0.2-0.8-0.3-1.2-0.5l0,0
			c-0.6,0-1.2,0-1.8,0c-0.1-0.1-0.2-0.2-0.4-0.3c-10.3,6.8-20.1,14.4-31,20.2c-7.1,3.8-15.6,4.9-23.5,7.2c0,0-0.1,0-0.1,0
			c-0.6,0.1-1.2,0.1-1.8,0.2c-0.9,0-1.7,0.1-2.6,0.1c-0.7,0-1.3,0.1-2,0.1c-0.4,0.1-0.8,0.3-1.2,0.4c-0.5,0-0.9,0-1.4,0
			c-2.2,0-4.3,0-6.5,0c-1.2-0.1-2.4-0.2-3.6-0.3c-0.1-0.3-0.2-0.5-0.3-0.8c3.8-1.5,7.5-3.1,11.3-4.6c20.3-8.1,40.6-16.2,60.9-24.3
			c1.3-0.5,2.6-1,3.8-1.5c0.1,0.5,0.2,1,0.3,1.4c0,0,0,0,0,0c-0.7,0.6-1.4,1.1-2.1,1.7c0.1,0.1,0.2,0.2,0.4,0.3c0.6,0,1.2,0,1.8,0
			c0,0,0,0,0,0c0.4,0.2,0.8,0.3,1.2,0.5c0,0,0.1-0.1,0.1-0.1c0.8-0.7,1.6-1.4,2.5-2.1c0,0,0,0,0,0c0.3-0.3,0.6-0.5,1-0.8
			c0.4-0.3,0.8-0.6,1.2-1c2.4-2,4.7-4,7.9-6.6C945.3,750.8,944.4,750.2,943.5,750.3z M857.7,784.5c19-22.3,44.4-29.3,72.7-28.9
			C906.2,765.2,882,774.9,857.7,784.5z"/>
	</g>
</g>
</svg>
