<?xml version="1.0" encoding="utf-8"?>
<!-- Generator: Adobe Illustrator 23.0.3, SVG Export Plug-In . SVG Version: 6.00 Build 0)  -->
<svg version="1.1" id="Layer_1" xmlns="http://www.w3.org/2000/svg" xmlns:xlink="http://www.w3.org/1999/xlink" x="0px" y="0px"
	 viewBox="0 0 415.1 840.8" style="enable-background:new 0 0 415.1 840.8;" xml:space="preserve">
<style type="text/css">
	.st0{fill:#E0D4C8;stroke:#000000;stroke-width:0.5;stroke-miterlimit:10;}
	.st1{fill:#CF265E;stroke:#000000;stroke-width:0.5;stroke-miterlimit:10;}
	.st2{fill:#1F776F;stroke:#000000;stroke-width:0.5;stroke-miterlimit:10;}
	.st3{fill:#04ACE4;stroke:#000000;stroke-width:0.5;stroke-miterlimit:10;}
	.st4{fill:#F2CF81;stroke:#000000;stroke-width:0.5;stroke-miterlimit:10;}
	.st5{fill:#F8DB00;stroke:#000000;stroke-width:0.5;stroke-miterlimit:10;}
	.st6{fill:#EDA8C4;stroke:#000000;stroke-width:0.5;stroke-miterlimit:10;}
	.st7{fill:#5BB544;stroke:#000000;stroke-width:0.5;stroke-miterlimit:10;}
	.st8{fill:#0A80D9;stroke:#000000;stroke-width:0.5;stroke-miterlimit:10;}
	.st9{fill:#0C8252;stroke:#000000;stroke-width:0.5;stroke-miterlimit:10;}
	.st10{fill:#A5C96E;stroke:#000000;stroke-width:0.5;stroke-miterlimit:10;}
	.st11{fill:#99A4CD;stroke:#000000;stroke-width:0.5;stroke-miterlimit:10;}
	.st12{fill:#4C3A88;stroke:#000000;stroke-width:0.5;stroke-miterlimit:10;}
	.st13{fill:#FCEE23;stroke:#000000;stroke-width:0.5;stroke-miterlimit:10;}
	.st14{fill:#231F20;stroke:#000000;stroke-width:0.5;stroke-miterlimit:10;}
	.st15{fill:#ED2025;stroke:#000000;stroke-width:0.5;stroke-miterlimit:10;}
	.st16{fill:#FFFFFF;stroke:#000000;stroke-width:0.5;stroke-miterlimit:10;}
	.st17{fill:#FEBE4E;stroke:#000000;stroke-width:0.5;stroke-miterlimit:10;}
	.st18{fill:#F78F42;stroke:#000000;stroke-width:0.5;stroke-miterlimit:10;}
	.st19{fill:#FCEF56;stroke:#000000;stroke-width:0.5;stroke-miterlimit:10;}
	.st20{fill:#F15A42;stroke:#000000;stroke-width:0.5;stroke-miterlimit:10;}
	.st21{fill:#A2CF62;stroke:#000000;stroke-width:0.5;stroke-miterlimit:10;}
	.st22{fill:#EC5AA0;stroke:#000000;stroke-width:0.5;stroke-miterlimit:10;}
	.st23{fill:#1AAF69;stroke:#000000;stroke-width:0.5;stroke-miterlimit:10;}
	.st24{fill:#A155A1;stroke:#000000;stroke-width:0.5;stroke-miterlimit:10;}
	.st25{fill:#01B5AC;stroke:#000000;stroke-width:0.5;stroke-miterlimit:10;}
	.st26{fill:#524FA1;stroke:#000000;stroke-width:0.5;stroke-miterlimit:10;}
	.st27{fill:#2DB6EA;stroke:#000000;stroke-width:0.5;stroke-miterlimit:10;}
	.st28{fill:#2086C6;stroke:#000000;stroke-width:0.5;stroke-miterlimit:10;}
</style>
<title>flower_index</title>
<g>
	<path class="st0" d="M379.8,642.1c-21,14-41.2,29.6-63.4,41.4c-14.6,7.8-32.2,10.1-48.4,14.9c-1.2,0.1-2.5,0.3-3.7,0.4
		c-1.8,0.1-3.6,0.1-5.3,0.2c-1.4,0.1-2.7,0.2-4.1,0.3c-0.8,0.3-1.7,0.5-2.5,0.8c-0.9,0-1.9,0-2.8-0.1c-4.4,0-8.8,0.1-13.2,0.1
		c-2.5-0.2-4.9-0.3-7.4-0.5c-0.2-0.5-0.4-1.1-0.7-1.6c7.7-3.2,15.3-6.4,23-9.5c41.5-16.6,83-33.2,124.5-49.7c2.6-1,5.2-2,7.8-3
		c0.2,1,0.3,2,0.5,2.9C382.6,639.8,381.2,640.9,379.8,642.1z"/>
	<path class="st1" d="M376.9,631.3c-48.7,19.4-97.5,38.8-146.2,58.2C268.9,644.7,319.8,630.7,376.9,631.3z"/>
	<path class="st2" d="M403.1,620.7c-25.6,2.3-51.3,3.7-76.7,7.4c-38.5,5.6-70.9,24-98.3,51.1c-3.3,3.3-5.9,7.4-8.8,11.1
		c-0.5,0.6-1,1.3-1.5,1.9c-0.7,0.4-1.3,0.8-2,1.2c-0.5,0.2-1,0.4-1.6,0.6l0.2,0.2c-0.3,2.2-0.7,4.5-1,6.7c0.2,0.1,0.3,0.1,0.4,0.2
		c-0.1,0.4-0.3,0.7-0.4,1.1c18.2,0.3,35,0.6,51.8,0.9c1.9-0.1,3.7-0.3,5.6-0.4c2.4-0.5,4.8-1,7.2-1.5c0.5-0.1,1.1-0.2,1.6-0.3
		c0.1,0,0.2,0.1,0.3,0.1c1.5-0.1,3.1,0,4.5-0.3c39.8-8.3,71.5-30.6,101.1-56.7c-0.8-0.3-1.6-0.6-2.4-1l0,0c-1.2,0-2.4,0-3.7,0
		c-0.2-0.2-0.5-0.4-0.7-0.6c-20.7,13.7-40.5,29-62.4,40.6c-14.3,7.6-31.4,9.9-47.3,14.5c-0.1,0-0.2-0.1-0.3-0.1
		c-1.2,0.1-2.5,0.3-3.7,0.4c-1.8,0.1-3.5,0.1-5.3,0.2c-1.3,0.1-2.7,0.2-4,0.3c-0.8,0.3-1.7,0.5-2.5,0.8c-0.9,0-1.8,0-2.7-0.1
		c-4.3,0-8.7,0.1-13,0.1c-2.4-0.2-4.9-0.3-7.3-0.5c-0.2-0.5-0.4-1.1-0.6-1.6c7.6-3.1,15.1-6.3,22.7-9.3
		c40.8-16.3,81.7-32.5,122.5-48.8c2.6-1,5.1-1.9,7.7-2.9c0.2,1,0.3,1.9,0.5,2.9c0,0,0,0,0,0c-1.4,1.1-2.8,2.3-4.2,3.4
		c0.2,0.2,0.5,0.4,0.7,0.6c1.2,0,2.4,0,3.7,0c0,0,0,0,0,0c0.8,0.3,1.6,0.6,2.4,1c0,0,0.2-0.2,0.2-0.2c1.6-1.4,3.3-2.8,4.9-4.3
		c0,0,0,0,0,0c0.6-0.5,1.3-1.1,1.9-1.6c0.8-0.6,1.6-1.3,2.4-1.9c4.8-4,9.5-7.9,15.9-13.2C406.8,621.6,404.9,620.5,403.1,620.7z
		 M230.6,689.5c38.3-44.9,89.2-58.9,146.2-58.2C328.1,650.7,279.4,670.1,230.6,689.5z"/>
	<path class="st3" d="M39.6,458.3c21.1,14,41.3,29.6,63.6,41.5c14.7,7.8,32.3,10.1,48.5,14.9c1.3,0.1,2.5,0.3,3.8,0.4
		c1.8,0.1,3.6,0.1,5.4,0.2c1.4,0.1,2.8,0.2,4.1,0.3c0.8,0.3,1.7,0.5,2.5,0.8c0.9,0,1.9,0,2.8-0.1c4.4,0,8.9,0.1,13.3,0.1
		c2.5-0.2,4.9-0.3,7.4-0.5c0.2-0.5,0.4-1.1,0.7-1.6c-7.7-3.2-15.4-6.4-23.1-9.5C127,488,85.4,471.4,43.7,454.8c-2.6-1-5.2-2-7.9-3
		c-0.2,1-0.3,2-0.5,2.9C36.8,455.9,38.2,457.1,39.6,458.3z"/>
	<path class="st4" d="M42.5,447.4c48.9,19.5,97.8,38.9,146.7,58.4C150.9,460.8,99.7,446.8,42.5,447.4z"/>
	<path class="st2" d="M16.2,436.7c25.7,2.3,51.5,3.7,77,7.4c38.7,5.6,71.1,24.1,98.6,51.3c3.4,3.3,5.9,7.4,8.9,11.1
		c0.5,0.6,1,1.3,1.5,1.9c0.7,0.4,1.3,0.8,2,1.2c0.5,0.2,1,0.4,1.6,0.6l-0.2,0.2c0.3,2.3,0.7,4.5,1,6.8c-0.2,0.1-0.3,0.1-0.5,0.2
		c0.1,0.4,0.3,0.7,0.5,1.1c-18.2,0.3-35.1,0.6-52,0.9c-1.9-0.1-3.7-0.3-5.6-0.4c-2.4-0.5-4.8-1-7.2-1.5c-0.5-0.1-1.1-0.2-1.6-0.3
		c-0.1,0-0.2,0.1-0.3,0.1c-1.5-0.1-3.1,0-4.5-0.3c-39.9-8.3-71.8-30.7-101.4-56.9c0.8-0.3,1.6-0.6,2.4-1l0,0c1.2,0,2.4,0,3.7,0
		c0.2-0.2,0.5-0.4,0.7-0.6c20.8,13.8,40.6,29.1,62.6,40.7c14.3,7.6,31.5,9.9,47.5,14.6c0.1,0,0.2-0.1,0.3-0.1
		c1.2,0.1,2.5,0.3,3.7,0.4c1.8,0.1,3.5,0.1,5.3,0.2c1.4,0.1,2.7,0.2,4.1,0.3c0.8,0.3,1.7,0.5,2.5,0.8c0.9,0,1.8,0,2.8-0.1
		c4.4,0,8.7,0.1,13.1,0.1c2.4-0.2,4.9-0.3,7.3-0.5c0.2-0.5,0.4-1.1,0.7-1.6c-7.6-3.1-15.1-6.3-22.7-9.4
		c-40.9-16.3-81.9-32.6-122.9-48.9c-2.6-1-5.2-2-7.7-2.9c-0.2,1-0.3,1.9-0.5,2.9c0,0,0,0,0,0c1.4,1.2,2.8,2.3,4.2,3.5
		c-0.2,0.2-0.5,0.4-0.7,0.6c-1.2,0-2.4,0-3.7,0c0,0,0,0,0,0c-0.8,0.3-1.6,0.6-2.4,1c0,0-0.2-0.2-0.2-0.2c-1.7-1.4-3.3-2.8-5-4.3
		c0,0,0,0,0,0c-0.6-0.6-1.3-1.1-1.9-1.7c-0.8-0.6-1.6-1.3-2.4-1.9c-4.8-4-9.6-8-15.9-13.3C12.5,437.7,14.4,436.6,16.2,436.7z
		 M189.2,505.8c-38.4-45-89.5-59-146.7-58.4C91.4,466.9,140.3,486.3,189.2,505.8z"/>
	<path class="st5" d="M106.5,729.3c12.1,8,23.7,17,36.5,23.8c8.4,4.5,18.5,5.8,27.8,8.5c0.7,0.1,1.4,0.2,2.2,0.2
		c1,0,2.1,0.1,3.1,0.1c0.8,0,1.6,0.1,2.4,0.1c0.5,0.1,1,0.3,1.5,0.4c0.5,0,1.1,0,1.6,0c2.5,0,5.1,0,7.6,0.1c1.4-0.1,2.8-0.2,4.3-0.3
		c0.1-0.3,0.3-0.6,0.4-0.9c-4.4-1.8-8.8-3.7-13.3-5.5c-23.9-9.5-47.7-19.1-71.6-28.6c-1.5-0.6-3-1.1-4.5-1.7
		c-0.1,0.6-0.2,1.1-0.3,1.7C104.9,727.9,105.7,728.6,106.5,729.3z"/>
	<path class="st6" d="M108.2,723.1c28,11.2,56.1,22.3,84.1,33.5C170.3,730.8,141,722.7,108.2,723.1z"/>
	<path class="st2" d="M93.1,717c14.7,1.3,29.5,2.1,44.1,4.2c22.2,3.2,40.8,13.8,56.5,29.4c1.9,1.9,3.4,4.2,5.1,6.4
		c0.3,0.4,0.6,0.7,0.8,1.1c0.4,0.2,0.8,0.5,1.1,0.7c0.3,0.1,0.6,0.2,0.9,0.4l-0.1,0.1c0.2,1.3,0.4,2.6,0.6,3.9
		c-0.1,0-0.2,0.1-0.3,0.1c0.1,0.2,0.2,0.4,0.3,0.7c-10.5,0.2-20.1,0.3-29.8,0.5c-1.1-0.1-2.1-0.2-3.2-0.2c-1.4-0.3-2.8-0.6-4.1-0.8
		c-0.3-0.1-0.6-0.1-0.9-0.2c-0.1,0-0.1,0-0.2,0.1c-0.9-0.1-1.8,0-2.6-0.2c-22.9-4.8-41.1-17.6-58.2-32.6c0.5-0.2,0.9-0.4,1.4-0.6
		l0,0c0.7,0,1.4,0,2.1,0c0.1-0.1,0.3-0.2,0.4-0.4c11.9,7.9,23.3,16.7,35.9,23.4c8.2,4.4,18.1,5.7,27.2,8.3c0.1,0,0.1,0,0.2,0
		c0.7,0.1,1.4,0.1,2.1,0.2c1,0,2,0.1,3,0.1c0.8,0,1.6,0.1,2.3,0.1c0.5,0.1,1,0.3,1.4,0.4c0.5,0,1.1,0,1.6,0c2.5,0,5,0,7.5,0.1
		c1.4-0.1,2.8-0.2,4.2-0.3c0.1-0.3,0.2-0.6,0.4-0.9c-4.3-1.8-8.7-3.6-13-5.4c-23.5-9.4-47-18.7-70.4-28.1c-1.5-0.6-3-1.1-4.4-1.7
		c-0.1,0.6-0.2,1.1-0.3,1.7c0,0,0,0,0,0c0.8,0.7,1.6,1.3,2.4,2c-0.1,0.1-0.3,0.2-0.4,0.4c-0.7,0-1.4,0-2.1,0c0,0,0,0,0,0
		c-0.5,0.2-0.9,0.4-1.4,0.6c0,0-0.1-0.1-0.1-0.1c-0.9-0.8-1.9-1.6-2.8-2.4c0,0,0,0,0,0c-0.4-0.3-0.7-0.6-1.1-0.9
		c-0.5-0.4-0.9-0.7-1.4-1.1c-2.7-2.3-5.5-4.6-9.1-7.6C91,717.5,92,716.9,93.1,717z M192.3,756.6c-22-25.8-51.3-33.9-84.1-33.5
		C136.2,734.2,164.2,745.4,192.3,756.6z"/>
	<path class="st7" d="M61.5,566.2c17.8,11.8,34.8,25,53.6,35c12.3,6.6,27.2,8.5,40.9,12.6c1.1,0.1,2.1,0.2,3.2,0.3
		c1.5,0.1,3,0.1,4.5,0.2c1.2,0.1,2.3,0.1,3.5,0.2c0.7,0.2,1.4,0.4,2.1,0.7c0.8,0,1.6,0,2.4-0.1c3.7,0,7.5,0.1,11.2,0.1
		c2.1-0.1,4.2-0.3,6.3-0.4c0.2-0.5,0.4-0.9,0.6-1.4c-6.5-2.7-13-5.4-19.5-8c-35.1-14-70.2-28-105.3-42c-2.2-0.9-4.4-1.7-6.6-2.5
		c-0.1,0.8-0.3,1.7-0.4,2.5C59.1,564.2,60.3,565.2,61.5,566.2z"/>
	<path class="st8" d="M64,557.1c41.2,16.4,82.4,32.8,123.6,49.2C155.3,568.4,112.2,556.5,64,557.1z"/>
	<path class="st2" d="M41.8,548.1c21.6,1.9,43.4,3.1,64.9,6.2c32.6,4.7,59.9,20.3,83.1,43.2c2.8,2.8,5,6.2,7.5,9.4
		c0.4,0.5,0.8,1.1,1.2,1.6c0.6,0.3,1.1,0.7,1.7,1c0.4,0.2,0.9,0.4,1.3,0.5l-0.2,0.2c0.3,1.9,0.6,3.8,0.8,5.7
		c-0.1,0.1-0.3,0.1-0.4,0.2c0.1,0.3,0.2,0.6,0.4,1c-15.4,0.3-29.6,0.5-43.8,0.7c-1.6-0.1-3.2-0.2-4.7-0.3c-2-0.4-4.1-0.8-6.1-1.2
		c-0.5-0.1-0.9-0.2-1.4-0.2c-0.1,0-0.2,0.1-0.3,0.1c-1.3-0.1-2.6,0-3.8-0.3c-33.6-7-60.5-25.8-85.5-47.9c0.7-0.3,1.3-0.5,2-0.8l0,0
		c1,0,2.1,0,3.1,0c0.2-0.2,0.4-0.4,0.6-0.5c17.5,11.6,34.3,24.5,52.7,34.3c12.1,6.4,26.6,8.4,40,12.3c0.1,0,0.2,0,0.2-0.1
		c1,0.1,2.1,0.2,3.1,0.3c1.5,0.1,3,0.1,4.4,0.2c1.1,0.1,2.3,0.1,3.4,0.2c0.7,0.2,1.4,0.4,2.1,0.6c0.8,0,1.5,0,2.3-0.1
		c3.7,0,7.3,0.1,11,0.1c2.1-0.1,4.1-0.3,6.2-0.4c0.2-0.4,0.4-0.9,0.5-1.3c-6.4-2.6-12.8-5.3-19.2-7.9c-34.5-13.8-69-27.5-103.6-41.3
		c-2.2-0.9-4.3-1.6-6.5-2.5c-0.1,0.8-0.3,1.6-0.4,2.4c0,0,0,0,0,0c1.2,1,2.4,1.9,3.6,2.9c-0.2,0.2-0.4,0.4-0.6,0.5c-1,0-2.1,0-3.1,0
		c0,0,0,0,0,0c-0.7,0.3-1.3,0.5-2,0.8c0,0-0.1-0.2-0.1-0.2c-1.4-1.2-2.8-2.4-4.2-3.6c0,0,0,0,0,0c-0.5-0.5-1.1-0.9-1.6-1.4
		c-0.7-0.5-1.4-1.1-2-1.6c-4-3.4-8.1-6.7-13.4-11.2C38.7,548.9,40.3,548,41.8,548.1z M187.6,606.3c-32.3-37.9-75.4-49.8-123.6-49.2
		C105.2,573.5,146.4,589.9,187.6,606.3z"/>
	<rect x="201.7" y="414.6" class="st9" width="11.7" height="426"/>
	<rect x="201.7" y="414.6" class="st10" width="3.4" height="426"/>
	<rect x="213.4" y="414.6" class="st10" width="3.4" height="426"/>
	<path class="st11" d="M353.5,488.2c-17.5,11.6-34.3,24.6-52.7,34.4c-12.2,6.5-26.8,8.4-40.3,12.4c-1,0.1-2.1,0.2-3.1,0.3
		c-1.5,0.1-3,0.1-4.4,0.2c-1.1,0.1-2.3,0.1-3.4,0.2c-0.7,0.2-1.4,0.4-2.1,0.6c-0.8,0-1.6,0-2.3-0.1c-3.7,0-7.3,0.1-11,0.1
		c-2.1-0.1-4.1-0.3-6.2-0.4c-0.2-0.5-0.4-0.9-0.5-1.4c6.4-2.6,12.8-5.3,19.2-7.9c34.5-13.8,69.1-27.6,103.6-41.4
		c2.2-0.9,4.3-1.7,6.5-2.5c0.1,0.8,0.3,1.6,0.4,2.4C355.9,486.2,354.7,487.2,353.5,488.2z"/>
	<path class="st12" d="M351.1,479.2c-40.6,16.1-81.1,32.3-121.7,48.4C261.3,490.3,303.7,478.6,351.1,479.2z"/>
	<path class="st2" d="M372.9,470.3c-21.3,1.9-42.7,3.1-63.9,6.1c-32.1,4.7-59,20-81.8,42.5c-2.8,2.8-4.9,6.1-7.4,9.2
		c-0.4,0.5-0.8,1.1-1.2,1.6c-0.6,0.3-1.1,0.7-1.7,1c-0.4,0.2-0.9,0.4-1.3,0.5l0.2,0.2c-0.3,1.9-0.5,3.7-0.8,5.6
		c0.1,0.1,0.2,0.1,0.4,0.2c-0.1,0.3-0.2,0.6-0.4,0.9c15.1,0.3,29.1,0.5,43.1,0.7c1.6-0.1,3.1-0.2,4.7-0.3c2-0.4,4-0.8,6-1.2
		c0.4-0.1,0.9-0.2,1.3-0.2c0.1,0,0.2,0.1,0.3,0.1c1.3-0.1,2.5,0,3.8-0.3c33.1-6.9,59.5-25.4,84.1-47.2c-0.7-0.3-1.3-0.5-2-0.8l0,0
		c-1,0-2,0-3,0c-0.2-0.2-0.4-0.4-0.6-0.5c-17.2,11.4-33.7,24.1-51.9,33.8c-11.9,6.3-26.2,8.2-39.4,12.1c-0.1,0-0.1,0-0.2-0.1
		c-1,0.1-2,0.2-3.1,0.3c-1.5,0.1-2.9,0.1-4.4,0.2c-1.1,0.1-2.2,0.1-3.4,0.2c-0.7,0.2-1.4,0.4-2.1,0.6c-0.8,0-1.5,0-2.3-0.1
		c-3.6,0-7.2,0-10.8,0.1c-2-0.1-4-0.3-6.1-0.4c-0.2-0.4-0.4-0.9-0.5-1.3c6.3-2.6,12.5-5.2,18.9-7.8c34-13.6,67.9-27.1,101.9-40.6
		c2.1-0.8,4.3-1.6,6.4-2.4c0.1,0.8,0.3,1.6,0.4,2.4c0,0,0,0,0,0c-1.2,1-2.3,1.9-3.5,2.9c0.2,0.2,0.4,0.4,0.6,0.5c1,0,2,0,3,0
		c0,0,0,0,0,0c0.7,0.3,1.3,0.5,2,0.8c0,0,0.1-0.2,0.1-0.2c1.4-1.2,2.7-2.4,4.1-3.5c0,0,0,0,0,0c0.5-0.5,1.1-0.9,1.6-1.4
		c0.7-0.5,1.3-1.1,2-1.6c4-3.3,7.9-6.6,13.2-11C376,471.1,374.4,470.2,372.9,470.3z M229.4,527.6c31.8-37.3,74.2-49,121.7-48.4
		C310.5,495.3,270,511.5,229.4,527.6z"/>
	<path class="st13" d="M299.1,193.7c1.4,9.2,1.4,18.5,0,27.6c0,0.2-0.1,0.3-0.1,0.5l-0.2,1.3l-0.2,1.4c0,0.2-0.1,0.3-0.1,0.5
		c-0.4,2.2-0.9,4.3-1.5,6.5c-0.4,1.5-0.8,2.9-1.3,4.4l-0.1,0.2c-0.2,0.6-0.4,1.2-0.6,1.7c-0.1,0.4-0.2,0.7-0.4,1.1
		c-0.1,0.4-0.2,0.5-0.3,0.7c-9.4,25.4-29.4,45.4-54.8,54.8l-0.7,0.3l-1.1,0.4l-1.7,0.6l-0.2,0.1l-2.1,0.6c-0.7,0.2-1.5,0.4-2.2,0.6
		c-2.1,0.6-4.3,1.1-6.5,1.5l-0.4,0.1l-1.4,0.2l-1.2,0.2l-0.6,0.1c-4.6,0.7-9.2,1-13.8,1c-1.6,0-3.2,0-4.8-0.1c-3-0.2-6-0.5-9-0.9
		l-0.6-0.1l-1.2-0.2l-1.4-0.3l-0.4-0.1c-2.2-0.4-4.3-0.9-6.5-1.5c-1.5-0.4-2.9-0.8-4.4-1.3l-0.2-0.1l-1.7-0.6l-1.1-0.4l-0.7-0.3
		c-36.4-13.4-60.5-48.1-60.5-86.8c0-2.3,0.1-4.6,0.3-6.8c2.2-30.1,19-57.2,44.9-72.6c0.5-0.3,1-0.6,1.4-0.8l0.8-0.4l1.8-1l0.6-0.3
		c0.8-0.4,1.6-0.8,2.3-1.2l0.6-0.3l1.9-0.9l0.8-0.4c0.6-0.3,1.3-0.5,1.9-0.8l0.6-0.2c0.8-0.3,1.6-0.6,2.5-1l0.6-0.2l1.9-0.7l0.8-0.3
		l2-0.6l0.6-0.2c0.8-0.2,1.7-0.5,2.5-0.7l0.7-0.2c0.6-0.2,1.3-0.3,1.9-0.5l0.8-0.2c0.7-0.2,1.4-0.3,2.1-0.5l0.5-0.1
		c0.9-0.2,1.7-0.3,2.6-0.5l0.7-0.1l2-0.3l0.8-0.1l2.2-0.3h0.4l2.7-0.2h0.8l2-0.1h0.8c0.8,0,1.6,0,2.3,0h0.2c0.8,0,1.6,0,2.5,0h0.8
		l2.1,0.1h0.7c0.9,0,1.8,0.1,2.7,0.2h0.3l2.3,0.3l0.8,0.1c0.7,0.1,1.4,0.2,2.1,0.3l0.6,0.1c0.9,0.2,1.8,0.3,2.7,0.5l0.3,0.1
		c0.8,0.2,1.6,0.3,2.3,0.5l0.7,0.2l2.1,0.5l0.5,0.1c0.9,0.2,1.8,0.5,2.6,0.7l0.4,0.1c0.8,0.2,1.5,0.5,2.2,0.7l0.7,0.2
		c0.7,0.2,1.4,0.5,2.1,0.8l0.4,0.2c0.9,0.3,1.7,0.7,2.6,1l0.4,0.2c0.7,0.3,1.4,0.6,2.1,0.9l0.6,0.3l2.1,1l0.4,0.2
		c0.8,0.4,1.7,0.8,2.5,1.2l0.4,0.2c0.7,0.4,1.4,0.7,2,1.2l0.6,0.3l1.8,1c18,10.9,31.8,27.5,39.2,47.3c0.1,0.2,0.2,0.5,0.3,0.7
		c0.1,0.2,0.3,0.7,0.4,1.1c0.2,0.6,0.4,1.2,0.6,1.7l0.1,0.2c0.5,1.4,0.9,2.9,1.3,4.4c0.6,2.1,1.1,4.3,1.5,6.5c0,0.2,0,0.3,0.1,0.5
		l0.2,1.4l0.2,1.3C299,193.4,299,193.5,299.1,193.7z M276.7,197.7l0.2-1.6l-1.5-0.6c-0.3-0.1-29.6-12.5-68.7-12.5
		s-68.5,12.4-68.8,12.5l-1.5,0.6l0.2,1.6c5.6,36.3,35.1,75.2,70,75.2S271.1,234,276.7,197.7L276.7,197.7z M248.7,170.8
		c4.1-2.5,4.4-9.3,0.7-15.4c-3.6-6-9.9-8.9-13.9-6.5s-4.4,9.3-0.8,15.4C238.4,170.4,244.7,173.3,248.7,170.8L248.7,170.8z
		 M178.8,164.4c3.6-6,3.3-12.9-0.7-15.4s-10.3,0.4-13.9,6.5c-3.7,6-3.3,12.9,0.8,15.4C168.9,173.2,175.2,170.4,178.8,164.4
		L178.8,164.4z"/>
	<path class="st14" d="M277,196.1l-0.2,1.6c-5.6,36.3-35.1,75.2-70,75.2s-64.3-38.9-70-75.2l-0.2-1.6l1.5-0.6
		c0.3-0.1,29.6-12.5,68.8-12.5s68.4,12.4,68.7,12.5L277,196.1z M249.5,246.3c11.8-13.5,19.7-30,22.9-47.7
		c-42.4-15.5-88.9-15.5-131.3,0c3.2,17.7,11.2,34.1,23,47.7c12.7,14.5,27.9,22.4,42.7,22.4C221.6,268.7,236.8,260.8,249.5,246.3z"/>
	<path class="st15" d="M272.4,198.7c-3.2,17.6-11.2,34.1-22.9,47.6c-12.7,14.5-27.9,22.4-42.7,22.4c-14.8,0-30-7.9-42.7-22.4
		c-11.8-13.6-19.7-30-22.9-47.7C183.6,183.2,230,183.2,272.4,198.7L272.4,198.7z"/>
	<path class="st14" d="M249.5,155.5c3.6,6,3.3,12.9-0.7,15.4c-4.1,2.4-10.3-0.4-13.9-6.5s-3.3-12.9,0.8-15.4
		S245.8,149.4,249.5,155.5z M248.5,169.4c1.4-0.4,1.9-2.3,1.3-4.3c-0.6-2-2.3-3.2-3.6-2.7s-1.9,2.3-1.3,4.3
		C245.5,168.7,247.2,169.8,248.5,169.4L248.5,169.4z M240.1,159.8c1.8-0.6,2.6-3.4,1.6-6.2c-0.9-2.8-3.2-4.6-5-4s-2.6,3.4-1.6,6.2
		C236,158.6,238.3,160.4,240.1,159.8L240.1,159.8z"/>
	<path class="st16" d="M249.9,165.1c0.6,1.9,0.1,3.9-1.3,4.3c-1.4,0.4-3-0.8-3.6-2.7s-0.1-3.9,1.3-4.3
		C247.6,161.9,249.2,163.1,249.9,165.1z"/>
	<path class="st16" d="M241.7,153.6c0.9,2.8,0.2,5.6-1.6,6.2c-1.8,0.6-4.1-1.2-5-4s-0.2-5.6,1.6-6.2
		C238.6,149,240.8,150.8,241.7,153.6z"/>
	<path class="st14" d="M178.1,149c4.1,2.5,4.4,9.3,0.7,15.4c-3.6,6-9.9,8.9-13.9,6.5c-4.1-2.5-4.4-9.3-0.8-15.4
		C167.8,149.4,174,146.5,178.1,149z M178.5,155.8c0.9-2.8,0.2-5.6-1.6-6.2s-4.1,1.2-5,4c-0.9,2.8-0.2,5.6,1.6,6.2
		C175.3,160.4,177.6,158.6,178.5,155.8L178.5,155.8z M168.7,166.7c0.6-1.9,0.1-3.9-1.3-4.3c-1.4-0.4-3,0.8-3.6,2.7
		c-0.6,1.9-0.1,3.9,1.3,4.3S168.1,168.6,168.7,166.7L168.7,166.7z"/>
	<path class="st16" d="M176.9,149.6c1.8,0.6,2.6,3.4,1.6,6.2c-0.9,2.8-3.2,4.6-5,4c-1.8-0.6-2.6-3.4-1.6-6.2
		C172.8,150.8,175,149,176.9,149.6z"/>
	<path class="st16" d="M167.4,162.3c1.4,0.4,1.9,2.3,1.3,4.3s-2.3,3.2-3.6,2.7c-1.4-0.4-1.9-2.3-1.3-4.3
		C164.4,163.1,166.1,161.9,167.4,162.3z"/>
	<g>
		<path class="st17" d="M404.8,180.2c6.6,6.8,10.1,16.3,10.1,27.4c0,11.1-3.5,20.5-10.1,27.4c-10,10.4-19.7,17.8-45.7,10.9
			l-57.6-15.4c1.7-7,2.6-14.1,2.7-21.3V209c0-0.5,0-1,0-1.4s0-1,0-1.4V206c-0.1-7.2-1-14.4-2.7-21.3l57.6-15.4
			C385.1,162.4,394.8,169.8,404.8,180.2z"/>
		<path class="st18" d="M387.1,103.9c5.5,9.6,7.2,19.5,5,28.7c-3.5,14-8.2,25.2-34.1,32.3l-57.6,15.5c-0.9-3-1.9-6-3.1-9l-0.4-0.8
			c-0.1-0.3-0.2-0.6-0.4-0.8c-4.5-10.7-11-20.5-19-28.9l42.2-42.2c19-19,31.1-17.4,45-13.4C373.8,87.8,381.6,94.3,387.1,103.9z"/>
		<path class="st19" d="M392.1,282.5c2.3,9.2,0.6,19.2-5,28.7c-5.5,9.6-13.3,16-22.4,18.7c-13.8,4-25.9,5.5-45-13.4l-42.2-42.2
			c8-8.4,14.5-18.2,19-28.9c0.1-0.3,0.2-0.6,0.4-0.8l0.4-0.8c1.2-2.9,2.2-5.9,3.1-9l57.6,15.5C383.9,257.2,388.6,268.5,392.1,282.5z
			"/>
		<path class="st20" d="M329.9,50.4c4,13.8,5.5,25.9-13.4,45l-42.2,42.3c-8.4-8-18.2-14.5-28.9-19l-0.8-0.4l-0.8-0.3
			c-3-1.2-5.9-2.2-9-3.1l15.5-57.6c7-25.9,18.3-30.6,32.3-34.1c9.2-2.3,19.1-0.6,28.7,5C320.8,33.6,327.3,41.3,329.9,50.4z"/>
		<path class="st21" d="M316.5,319.7c18.9,19.1,17.4,31.2,13.4,45c-2.6,9.1-9.1,16.9-18.7,22.4c-9.6,5.5-19.5,7.2-28.7,5
			c-14-3.5-25.2-8.2-32.3-34.1l-15.5-57.7c2.8-0.8,5.6-1.8,8.4-2.9l1-0.4l0.6-0.3c1-0.4,2.1-0.9,3.1-1.3c1-0.5,1.7-0.8,2.6-1.2l0,0
			c8.8-4.3,16.8-9.9,23.8-16.7L316.5,319.7z"/>
		<path class="st22" d="M234.9,10.3c10.4,10,17.8,19.7,10.9,45.7l-15.4,57.6c-7-1.7-14.2-2.6-21.4-2.7h-3c-7.2,0.1-14.3,1-21.3,2.7
			L169.3,56c-6.9-26,0.5-35.7,10.9-45.7c6.8-6.6,16.3-10.1,27.4-10.1S228.1,3.7,234.9,10.3z"/>
		<path class="st23" d="M245.8,359.1c6.9,26-0.5,35.7-10.9,45.7c-6.8,6.6-16.3,10.1-27.4,10.1c-11.1,0-20.5-3.5-27.4-10.1
			c-10.4-10-17.8-19.7-10.9-45.7l15.4-57.6c6.7,1.6,13.6,2.5,20.5,2.7h1.9h1h1.9c6.9-0.1,13.8-1,20.5-2.7L245.8,359.1z"/>
		<path class="st24" d="M164.9,57.2l15.5,57.6c-3,0.9-6,1.9-9,3.1l-0.8,0.4l-0.8,0.3c-10.7,4.5-20.5,11-28.9,19L98.6,95.4
			c-18.9-19.1-17.4-31.2-13.4-45c2.6-9.1,9.1-16.9,18.7-22.4s19.5-7.2,28.7-5C146.6,26.5,157.9,31.2,164.9,57.2z"/>
		<path class="st25" d="M180.4,300.3l-15.5,57.6c-7,25.9-18.3,30.6-32.3,34.1c-9.2,2.3-19.1,0.6-28.7-5c-9.6-5.5-16-13.3-18.7-22.4
			c-4-13.8-5.5-25.9,13.4-45l42.2-42.3c8.6,8.2,18.6,14.7,29.5,19.3l0.6,0.3l1,0.4C174.7,298.5,177.5,299.4,180.4,300.3z"/>
		<path class="st26" d="M95.4,98.6l42.3,42.2c-4.1,4.3-7.8,9.1-11.1,14.1c0,0-0.1,0.1-0.1,0.1c-0.4,0.6-0.7,1.2-1.1,1.7l-0.3,0.4
			c-0.4,0.6-0.7,1.2-1.1,1.8l-0.2,0.3c-2.8,4.8-5.1,9.8-7,15c0,0,0,0.1,0,0.1c-0.2,0.6-0.4,1.2-0.7,1.8c0,0.2-0.1,0.3-0.2,0.5
			c-0.2,0.5-0.4,1.1-0.5,1.6c-0.1,0.2-0.2,0.5-0.2,0.7c-0.1,0.5-0.3,0.9-0.4,1.4l-57.7-15.5c-25.9-7-30.6-18.3-34.1-32.3
			c-2.3-9.2-0.6-19.2,5-28.7s13.3-16,22.4-18.7C64.3,81.2,76.4,79.7,95.4,98.6z"/>
		<path class="st27" d="M137.6,274.3l-42.2,42.2c-19.1,18.9-31.2,17.4-45,13.4c-9.1-2.6-16.9-9.1-22.4-18.7
			c-5.5-9.6-7.2-19.5-5-28.7c3.5-14,8.2-25.2,34.1-32.3l57.7-15.5l0,0c0.1,0.4,0.3,0.9,0.4,1.4c0.1,0.2,0.2,0.5,0.2,0.8
			c0.2,0.5,0.3,1,0.5,1.6c0,0.2,0.1,0.3,0.2,0.5c0.2,0.6,0.4,1.2,0.6,1.8c0,0.1,0,0.1,0,0.2c4.6,12.4,11.7,23.8,20.8,33.4
			L137.6,274.3z"/>
		<path class="st28" d="M113.7,184.7c-0.1,0.5-0.2,0.9-0.3,1.4c0,0.2-0.1,0.5-0.2,0.7c-0.1,0.6-0.2,1.2-0.4,1.7c0,0.2,0,0.3-0.1,0.5
			c-0.1,0.6-0.2,1.3-0.4,1.9c0,0,0,0.1,0,0.1c-1.9,10.9-1.9,22.1,0,33.1c0,0,0,0.1,0,0.1c0.1,0.7,0.2,1.3,0.4,2c0,0.2,0,0.3,0.1,0.4
			c0.1,0.6,0.2,1.2,0.4,1.7c0,0.2,0.1,0.5,0.2,0.7c0.1,0.5,0.2,0.9,0.3,1.4L56,245.8c-26,6.9-35.7-0.5-45.7-10.9
			C3.7,228,0.3,218.6,0.3,207.5c0-11.1,3.5-20.5,10.1-27.4c10-10.4,19.7-17.8,45.7-10.9L113.7,184.7z"/>
	</g>
	<path class="st16" d="M339.6,194.5l2.6,20.1h-4.7l-0.5-4.9h-2.5l-0.8,4.9h-3.9l3.4-20.1H339.6z M336.7,206.6l-0.8-8.9h-0.1
		l-0.8,8.9H336.7z"/>
	<path class="st16" d="M343.2,194.5h4.5v6.1h0.1c0.4-1.5,1.5-2.4,3.2-2.4c2.3,0,3.1,1.5,3.1,3.6v8.9c0,1.9-0.7,4-3.2,4
		c-1.6,0-2.8-0.6-3.1-2.2h-0.1v2h-4.5V194.5z M347.6,210c0,0.7,0.4,1.1,0.9,1.1c0.5,0,0.9-0.4,0.9-1.1v-7c0-0.7-0.4-1.1-0.9-1.1
		c-0.5,0-0.9,0.4-0.9,1.1V210z"/>
	<path class="st16" d="M366,210.5c0,3-2.5,4.3-5.4,4.3c-2.8,0-5.4-1.3-5.4-4.3v-7.7c0-2.9,1.9-4.5,5.4-4.5c3.5,0,5.4,1.6,5.4,4.5
		V210.5z M359.6,210.7c0,0.6,0.2,1.1,0.9,1.1s0.9-0.5,0.9-1.1v-8.4c0-0.6-0.2-1.1-0.9-1.1s-0.9,0.5-0.9,1.1V210.7z"/>
	<path class="st16" d="M373.5,212.6L373.5,212.6c-0.5,1.4-1.6,2.2-3.3,2.2c-2,0-3-1.4-3-3.7v-12.6h4.5v11.2c0,0.7,0.1,1.5,0.9,1.5
		c0.8,0,1-0.8,1-1.5v-11.2h4.5v16.1h-4.5V212.6z"/>
	<path class="st16" d="M378.8,201.4v-2.9h1.5v-2.9h4.5v2.9h1.9v2.9h-1.9v8.8c0,1,0,1.5,1.1,1.5h0.9v2.9h-3.6c-2.2,0-2.8-1.2-2.8-3.4
		v-9.8H378.8z"/>
	<path class="st16" d="M30.5,206.7v2.7c0,3.8-2,5.6-6,5.6c-3.1,0-5.9-1.3-5.9-5.9V200c0-4.6,2.8-5.9,5.9-5.9c3.4,0,6,1,6,5.4v2.2
		h-4.7v-2.8c0-0.8-0.3-1.6-1.3-1.6c-1,0-1.2,0.8-1.2,1.6v11.3c0,0.8,0.3,1.6,1.2,1.6c1,0,1.3-0.8,1.3-1.6l0-3.4H30.5z"/>
	<path class="st16" d="M42.5,210.5c0,3-2.5,4.3-5.4,4.3s-5.4-1.3-5.4-4.3v-7.7c0-2.9,1.9-4.5,5.4-4.5s5.4,1.6,5.4,4.5V210.5z
		 M36.2,210.7c0,0.6,0.2,1.1,0.9,1.1c0.7,0,0.9-0.5,0.9-1.1v-8.4c0-0.6-0.2-1.1-0.9-1.1c-0.7,0-0.9,0.5-0.9,1.1V210.7z"/>
	<path class="st16" d="M48.2,200.4L48.2,200.4c0.5-1.4,1.6-2.2,3.3-2.2c2,0,3,1.4,3,3.7v12.6h-4.5v-11.2c0-0.7-0.1-1.5-0.9-1.5
		c-0.8,0-1,0.8-1,1.5v11.2h-4.5v-16.1h4.5V200.4z"/>
	<path class="st16" d="M55.4,201.4v-2.9h1.5v-2.9h4.5v2.9h1.9v2.9h-1.9v8.8c0,1,0,1.5,1.1,1.5h0.9v2.9h-3.6c-2.2,0-2.8-1.2-2.8-3.4
		v-9.8H55.4z"/>
	<path class="st16" d="M70.4,212.7L70.4,212.7c-0.6,1.2-1.4,2.1-3.2,2.1c-1.9,0-3.1-1.2-3.1-3.3v-2.4c0-4.2,6.3-3.7,6.3-6.7
		c0-0.6-0.2-1.2-0.9-1.2c-0.7,0-0.9,0.5-0.9,1.2v1.8h-4.5v-1.5c0-3.2,2.7-4.4,5.4-4.4c2.7,0,5.4,1.2,5.4,4.4v11.9h-4.5V212.7z
		 M68.6,210.4c0,0.6,0.4,0.8,0.8,0.8c0.9,0,1-0.6,1-2.1v-2.8c-0.9,0.6-1.9,1-1.9,2.3V210.4z"/>
	<path class="st16" d="M82.4,202.3c0-0.6-0.2-1.1-0.9-1.1s-0.9,0.5-0.9,1.1v8.4c0,0.6,0.2,1.1,0.9,1.1s0.9-0.5,0.9-1.1v-2.5h4.5v2.4
		c0,3-2.3,4.2-5.4,4.2c-3.3,0-5.4-1.4-5.4-4.5v-7.5c0-2.7,2-4.5,5.4-4.5c2.9,0,5.4,1.1,5.4,4.5v1.4h-4.5V202.3z"/>
	<path class="st16" d="M87.7,201.4v-2.9h1.5v-2.9h4.5v2.9h1.9v2.9h-1.9v8.8c0,1,0,1.5,1.1,1.5h0.9v2.9H92c-2.2,0-2.8-1.2-2.8-3.4
		v-9.8H87.7z"/>
	<path class="st16" d="M216.8,87h-20.1v-4.7h7.4v-2.5h-7.4v-4.7h20.1v4.7h-9.6v2.5h9.6V87z"/>
	<path class="st16" d="M212.7,63.2c3,0,4.3,2.5,4.3,5.4c0,2.8-1.3,5.4-4.3,5.4H205c-2.9,0-4.5-1.9-4.5-5.4c0-3.5,1.6-5.4,4.5-5.4
		H212.7z M213,69.5c0.6,0,1.1-0.2,1.1-0.9c0-0.7-0.5-0.9-1.1-0.9h-8.4c-0.6,0-1.1,0.2-1.1,0.9c0,0.7,0.5,0.9,1.1,0.9H213z"/>
	<path class="st16" d="M202.8,57.6L202.8,57.6c-1.5-0.5-2.3-1.5-2.3-3.2c0-1.6,0.8-2.6,2.3-2.9v-0.1c-1.4-0.3-2.3-1.5-2.3-3.1
		c0-2.2,1.4-2.9,3.4-2.9h12.9v4.3h-11.2c-0.7,0-1.5,0.1-1.5,0.9c0,0.8,0.8,0.9,1.5,0.9h11.2v4.3h-11.2c-0.7,0-1.5,0.1-1.5,0.9
		s0.8,0.9,1.5,0.9h11.2v4.3h-16.1v-4.3H202.8z"/>
	<path class="st16" d="M209.3,39.7h3.3c1,0,1.6-0.3,1.6-0.9c0-0.7-0.6-0.9-1.6-0.9h-2.1v-4.5h2.4c3,0,4.2,2.3,4.2,5.4
		c0,2.8-1.3,5.4-4.3,5.4H205c-2.9,0-4.5-1.9-4.5-5.4c0-2.8,1.1-5.4,4.5-5.4h4.2V39.7z M206.6,37.9h-2.2c-0.6,0-1,0.3-1,0.9
		c0,0.6,0.3,0.9,1,0.9h2.2V37.9z"/>
	<path class="st16" d="M318.9,368l-16.4,11.5l-3.3-4.7c-2.1-3-2.8-5.5,0-7.5l3-2.1c2.5-1.7,5.1-0.3,6.7,2l1,1.4l6.4-4.4L318.9,368z
		 M307.5,370.3l-0.4-0.6c-0.9-1.3-1.7-0.9-3.7,0.4c-1.9,1.4-2.6,2-1.7,3.3l0.4,0.6L307.5,370.3z"/>
	<path class="st16" d="M301.8,350.8c2.4-1.7,5-0.4,6.6,2c1.6,2.3,2,5.2-0.4,6.9l-6.3,4.4c-2.4,1.7-4.8,1-6.8-1.8
		c-2-2.8-1.7-5.3,0.6-7L301.8,350.8z M305.7,355.9c0.5-0.3,0.8-0.8,0.4-1.4c-0.4-0.6-1-0.5-1.5-0.1l-6.9,4.8
		c-0.5,0.3-0.8,0.8-0.4,1.4c0.4,0.6,1,0.5,1.5,0.1L305.7,355.9z"/>
	<path class="st16" d="M290.4,351.8L290.4,351.8c-1.5,0.3-2.8,0-3.8-1.4c-1.3-1.8-0.5-3.3,0.9-4.3l4.7-3.3l2.6,3.6l-3.2,2.2
		c-0.5,0.4-1,0.9-0.6,1.5c0.4,0.6,1.1,0.4,1.6,0l9.3-6.5l2.6,3.7l-13.2,9.3l-2.6-3.7L290.4,351.8z"/>
	<path class="st16" d="M287,345.5l-2.4,1.7l-0.9-1.2l-2.4,1.7l-2.6-3.7l2.4-1.7l-1.1-1.6l2.4-1.7l1.1,1.6l7.2-5
		c0.8-0.5,1.2-0.9,0.6-1.7l-0.5-0.7l2.4-1.7l2.1,3c1.3,1.8,0.6,3-1.2,4.2l-8.1,5.6L287,345.5z"/>
	<path class="st16" d="M282.2,338.7l-2.4,1.7l-0.6-0.8l-0.9,0.6c-1,0.7-2.8,1-4-0.7l-1.6-2.3l2.4-1.7c0.6,0.9,1,0.8,1.6,0.5l-0.7-1
		l2.4-1.7l0.7,1l10.8-7.6l2.6,3.6l-10.8,7.6L282.2,338.7z"/>
	<path class="st16" d="M279.1,318.3c2.4-1.7,5-0.4,6.6,2c1.6,2.3,2,5.2-0.4,6.9l-6.3,4.4c-2.4,1.7-4.8,1-6.8-1.8
		c-2-2.8-1.8-5.4,0.6-7L279.1,318.3z M282.9,323.4c0.5-0.3,0.8-0.8,0.4-1.4s-1-0.5-1.5-0.1l-6.9,4.8c-0.5,0.3-0.8,0.8-0.4,1.4
		c0.4,0.6,1,0.5,1.5,0.1L282.9,323.4z"/>
	<path class="st16" d="M281.7,314.9l-16.4,11.5l-2.6-3.6l16.4-11.5L281.7,314.9z"/>
	<path class="st16" d="M264.3,320.1l-2.3,1.6l-2.6-3.6l2.3-1.6L264.3,320.1z M278.4,310.2l-13.2,9.3l-2.6-3.6l13.2-9.3L278.4,310.2z
		"/>
	<path class="st16" d="M265.6,299.1c2.4-1.7,5-0.4,6.6,2c1.6,2.3,2,5.2-0.4,6.9l-6.3,4.4c-2.4,1.7-4.8,1-6.8-1.8s-1.7-5.3,0.6-7
		L265.6,299.1z M269.4,304.1c0.5-0.3,0.8-0.8,0.4-1.4c-0.4-0.6-1-0.5-1.5-0.1l-6.9,4.8c-0.5,0.3-0.8,0.8-0.4,1.4s1,0.5,1.5,0.1
		L269.4,304.1z"/>
	<path class="st16" d="M114.9,380.2l-13.6-7.8l3.8-6.6l2.1,1.2l-2,3.4l3,1.7l1.9-3.3l2.1,1.2l-1.9,3.3l4.4,2.6l2-3.4l2.1,1.2
		L114.9,380.2z"/>
	<path class="st16" d="M111.2,364.6L111.2,364.6c-0.8-0.9-0.9-1.9-0.2-3.1c0.8-1.4,2.1-1.5,3.7-0.6l8.5,4.9l-1.7,3l-7.6-4.4
		c-0.5-0.3-1-0.5-1.3,0c-0.3,0.6,0.1,0.9,0.6,1.2l7.6,4.4l-1.7,3l-10.9-6.3l1.7-3L111.2,364.6z"/>
	<path class="st16" d="M126.8,357.1c3,1.7,2.1,4.4,1.3,5.7c-1.3,2.3-3.2,2.9-4.4,2.2l-1.1-0.6l1.7-3l0.7,0.4c0.4,0.2,0.8,0.2,1-0.2
		s0.1-0.8-0.3-1l-2.7-1.6l0,0.1c0.9,0.6,1.1,1.8,0.5,2.8c-1,1.8-2.5,1.7-4.1,0.8l-4.5-2.6c-1.7-1-2-2.4-1.4-3.4
		c0.7-1.2,1.6-1.5,2.8-1.4l0,0l-1.4-0.8l1.8-3L126.8,357.1z M120.8,359.3c0.4,0.2,0.9,0.3,1.2-0.2c0.3-0.5-0.1-0.9-0.5-1.1l-3.1-1.8
		c-0.4-0.2-0.9-0.3-1.2,0.2c-0.3,0.5,0.1,0.9,0.5,1.1L120.8,359.3z"/>
	<path class="st16" d="M116.7,350.1l-1.9-1.1l1.7-3l1.9,1.1L116.7,350.1z M128.4,356.9l-10.9-6.3l1.7-3l10.9,6.3L128.4,356.9z"/>
	<path class="st16" d="M122.8,344.5L122.8,344.5c-0.8-0.9-0.9-1.9-0.2-3.1c0.8-1.4,2.1-1.5,3.7-0.6l8.5,4.9l-1.7,3l-7.6-4.4
		c-0.5-0.3-1-0.5-1.3,0c-0.3,0.6,0.1,0.9,0.6,1.2l7.6,4.4l-1.7,3l-10.9-6.3l1.7-3L122.8,344.5z"/>
	<path class="st16" d="M131.9,338.9l2.2,1.3c0.6,0.4,1.2,0.4,1.4,0c0.3-0.5,0-0.9-0.7-1.2l-1.4-0.8l1.7-3l1.6,0.9
		c2.1,1.2,2,3.2,0.7,5.3c-1.1,1.9-3,3.1-5,2l-5.2-3c-2-1.1-2.3-3.1-1-5.4c1.1-1.9,2.8-3.2,5.2-1.9l2.9,1.7L131.9,338.9z
		 M130.8,336.6l-1.5-0.9c-0.4-0.2-0.8-0.2-1,0.3c-0.2,0.4-0.1,0.8,0.3,1l1.5,0.9L130.8,336.6z"/>
	<path class="st16" d="M136.6,330.8l2.2,1.3c0.6,0.4,1.2,0.4,1.4,0c0.3-0.5,0-0.9-0.7-1.2l-1.4-0.8l1.7-3l1.6,0.9
		c2.1,1.2,2,3.2,0.7,5.3c-1.1,1.9-3,3.1-5,2l-5.2-3c-2-1.1-2.3-3.1-1-5.4c1.1-1.9,2.8-3.2,5.2-1.9l2.9,1.7L136.6,330.8z
		 M135.5,328.5l-1.5-0.9c-0.4-0.2-0.8-0.2-1,0.3c-0.2,0.4-0.1,0.8,0.3,1l1.5,0.9L135.5,328.5z"/>
	<path class="st16" d="M136.9,320.2L136.9,320.2c-0.7-1-0.9-2-0.3-3.1c0.9-1.5,2.2-1.5,3.3-0.8l3.9,2.2l-1.7,3l-2.6-1.5
		c-0.4-0.3-1-0.4-1.3,0.1c-0.3,0.5,0.1,0.9,0.5,1.1l7.7,4.4l-1.7,3l-10.9-6.3l1.7-3L136.9,320.2z"/>
	<path class="st16" d="M137.7,313.8l-1.9-1.1l1.7-3l1.9,1.1L137.7,313.8z M149.4,320.5l-10.9-6.3l1.7-3l10.9,6.3L149.4,320.5z"/>
	<path class="st16" d="M143.8,308.1L143.8,308.1c-0.8-0.9-0.9-1.9-0.2-3.1c0.8-1.4,2.1-1.5,3.7-0.6l8.5,4.9l-1.7,3l-7.6-4.4
		c-0.5-0.3-1-0.5-1.3,0c-0.3,0.6,0.1,0.9,0.6,1.2l7.6,4.4l-1.7,3l-10.9-6.3l1.7-3L143.8,308.1z"/>
	<path class="st16" d="M159.4,300.6c3,1.7,2.1,4.4,1.3,5.7c-1.3,2.3-3.2,2.9-4.4,2.2l-1.1-0.6l1.7-3l0.7,0.4c0.4,0.2,0.8,0.2,1-0.2
		s0.1-0.8-0.3-1l-2.7-1.6l0,0.1c0.9,0.6,1.1,1.8,0.5,2.8c-1,1.8-2.5,1.7-4.1,0.8l-4.5-2.6c-1.7-1-2-2.4-1.4-3.4
		c0.7-1.2,1.6-1.5,2.8-1.4l0,0l-1.4-0.8l1.8-3L159.4,300.6z M153.4,302.8c0.4,0.2,0.9,0.3,1.2-0.2c0.3-0.5-0.1-0.9-0.5-1.1l-3.1-1.8
		c-0.4-0.2-0.9-0.3-1.2,0.2c-0.3,0.5,0.1,0.9,0.5,1.1L153.4,302.8z"/>
</g>
</svg>
