<svg xmlns="http://www.w3.org/2000/svg" viewBox="0 0 360 360"><title>Asset 1</title><g id="Layer_2" data-name="Layer 2"><g id="Layer_1-2" data-name="Layer 1"><path d="M350.45,154.28C356.7,160.77,360,169.67,360,180s-3.3,19.23-9.55,25.72c-6.63,6.89-13.47,12.63-26.2,12.63l-1.22,0c11.89,6.43,15.08,15,17.44,24.62,2.17,8.75.58,18.1-4.59,27.05s-12.47,15-21.13,17.5a47.75,47.75,0,0,1-13.31,2.3,31.07,31.07,0,0,1-16.74-5.09c7.09,11.51,5.53,20.57,2.8,30.05-2.5,8.65-8.55,16-17.5,21.13a38.72,38.72,0,0,1-19.31,5.53,32.09,32.09,0,0,1-7.74-.94c-9.58-2.37-18.2-5.56-24.63-17.46.38,13.52-5.49,20.6-12.6,27.43C199.23,356.7,190.33,360,180,360s-19.23-3.3-25.72-9.55c-7.11-6.83-13-13.91-12.6-27.43-6.43,11.9-15.06,15.09-24.63,17.46a32.11,32.11,0,0,1-7.75.94A38.68,38.68,0,0,1,90,335.89c-9-5.17-15-12.48-17.5-21.13-2.74-9.48-4.29-18.54,2.79-30.05-6.13,3.77-11.56,5.09-16.73,5.09a47.76,47.76,0,0,1-13.32-2.3c-8.65-2.5-16-8.55-21.13-17.5S17.36,251.7,19.52,243c2.37-9.57,5.55-18.19,17.44-24.62l-1.22,0c-12.72,0-19.57-5.74-26.2-12.63C3.3,199.23,0,190.34,0,180s3.3-19.23,9.54-25.72c6.84-7.11,13.92-13,27.43-12.6-11.9-6.43-15.08-15.05-17.45-24.63-2.16-8.74-.58-18.1,4.59-27S36.59,75,45.24,72.5c9.48-2.74,18.54-4.29,30.05,2.79-7.08-11.51-5.53-20.57-2.79-30,2.49-8.66,8.55-16,17.5-21.13s18.3-6.76,27.05-4.6c9.57,2.37,18.2,5.56,24.63,17.46-.38-13.52,5.49-20.59,12.6-27.43C160.77,3.3,169.66,0,180,0s19.23,3.3,25.72,9.55c7.11,6.84,13,13.91,12.6,27.43,6.43-11.9,15.05-15.09,24.63-17.46,8.74-2.16,18.1-.57,27.05,4.6s15,12.47,17.5,21.13c2.73,9.47,4.29,18.53-2.8,30,11.52-7.08,20.58-5.53,30.05-2.79,8.66,2.5,16,8.55,21.13,17.5s6.76,18.31,4.59,27.05c-2.37,9.58-5.55,18.2-17.45,24.63C336.54,141.3,343.61,147.17,350.45,154.28Zm6,25.72c0-9.41-3-17.47-8.56-23.29-8.51-8.84-16.77-15.13-38.89-9.27L260,160.55a81.79,81.79,0,0,1,2.32,18.17v.07c0,.4,0,.81,0,1.21s0,.81,0,1.22v.07A81.7,81.7,0,0,1,260,199.45l49.08,13.12c22.11,5.86,30.37-.44,38.88-9.28C353.53,197.47,356.49,189.41,356.49,180Zm-19.42-63.79c1.95-7.85.48-16.31-4.22-24.46s-11.3-13.64-19.07-15.88C302,72.46,291.7,71.14,275.47,87.28l-35.94,35.89a81.47,81.47,0,0,1,16.18,24.63c.11.24.2.47.3.71l.3.72c1,2.51,1.9,5.06,2.66,7.63L308,143.68C330.12,137.7,334.13,128.11,337.07,116.21Zm-4.22,152c4.7-8.15,6.17-16.61,4.22-24.46-2.94-11.9-6.95-21.48-29-27.47L259,203.14c-.76,2.58-1.64,5.12-2.66,7.63l-.3.72c-.1.24-.19.48-.3.71a81.35,81.35,0,0,1-16.18,24.63l35.94,35.9c16.23,16.13,26.53,14.81,38.31,11.41C321.55,281.9,328.14,276.4,332.85,268.25ZM272.72,84.52C288.85,68.3,287.53,58,284.13,46.22c-2.24-7.77-7.73-14.36-15.88-19.07S251.64,21,243.79,22.92c-11.91,2.95-21.49,7-27.47,29L203.13,101q3.87,1.14,7.64,2.67l.71.29.72.31a81.47,81.47,0,0,1,24.63,16.18Zm11.41,229.27c3.4-11.79,4.72-22.09-11.41-38.31l-35.89-36a81.19,81.19,0,0,1-20.29,14.21l0,0c-.73.36-1.47.7-2.21,1s-1.73.77-2.61,1.13l-.53.22-.86.34q-3.54,1.41-7.17,2.49L216.32,308c6,22.08,15.56,26.09,27.47,29,7.85,1.94,16.3.48,24.46-4.23S281.89,321.55,284.13,313.79ZM258.77,180a79.85,79.85,0,0,0-.88-11.75c0-.15-.05-.3-.07-.45l-.18-1.1-.21-1.16c0-.14-.05-.28-.08-.41q-.54-2.76-1.27-5.51c-.33-1.25-.7-2.49-1.09-3.71l-.06-.19c-.15-.48-.31-.95-.48-1.43-.1-.31-.21-.62-.32-.92s-.15-.42-.23-.62a79.23,79.23,0,0,0-33.35-40.25l-1.52-.89-.5-.28c-.58-.33-1.16-.64-1.74-1l-.33-.17c-.7-.37-1.41-.72-2.12-1.06L214,109l-1.82-.84-.53-.23q-.91-.41-1.83-.78l-.32-.13c-.73-.29-1.46-.58-2.19-.85L207,106c-.61-.22-1.21-.44-1.82-.64l-.57-.19c-.64-.21-1.27-.41-1.91-.6l-.31-.09c-.74-.22-1.49-.43-2.24-.63l-.46-.12-1.81-.44-.61-.14c-.65-.15-1.31-.29-2-.42l-.29-.06c-.76-.15-1.52-.28-2.28-.41l-.53-.08c-.6-.1-1.19-.18-1.79-.26l-.64-.09-2-.23-.27,0c-.77-.08-1.53-.14-2.3-.19l-.59,0-1.76-.08-.66,0c-.7,0-1.4,0-2.1,0h-.15c-.67,0-1.34,0-2,0l-.72,0-1.69.08-.65,0-2.26.18-.37,0-1.91.22-.71.09-1.68.25-.63.1q-1.11.18-2.22.39l-.43.09c-.61.12-1.21.25-1.81.39l-.71.16c-.56.13-1.11.26-1.66.41l-.59.15c-.73.19-1.45.39-2.17.6l-.49.15-1.7.54-.7.23-1.63.57-.55.2c-.71.26-1.4.53-2.1.81l-.51.21c-.54.23-1.08.45-1.61.69l-.69.3-1.58.73-.51.24c-.68.33-1.35.66-2,1l-.53.28-1.52.82-.65.37c-.41.23-.82.48-1.22.72a78.71,78.71,0,0,0-38.2,61.82c-.14,1.93-.22,3.87-.22,5.81a78.79,78.79,0,0,0,51.5,73.91l.61.22.93.33,1.42.47.19.07c1.23.39,2.46.75,3.71,1.09q2.76.74,5.54,1.27l.36.07,1.21.22,1.05.17.5.08c2.53.37,5.09.64,7.68.77,1.34.07,2.69.1,4.05.1a79.68,79.68,0,0,0,11.73-.87l.49-.08,1.06-.18,1.2-.21.37-.07c1.85-.36,3.7-.78,5.53-1.27.64-.17,1.27-.35,1.9-.54l1.81-.55.19-.06,1.43-.48.92-.33.62-.22a79.17,79.17,0,0,0,46.65-46.65c.08-.21.15-.42.23-.62s.22-.62.32-.93c.17-.47.33-1,.48-1.43l.06-.18c.39-1.23.76-2.46,1.09-3.71q.74-2.74,1.27-5.52c0-.13,0-.27.08-.4l.21-1.16.18-1.11c0-.15,0-.3.07-.44A80,80,0,0,0,258.77,180ZM212.56,51c5.86-22.11-.43-30.37-9.27-38.88C197.46,6.47,189.41,3.5,180,3.5s-17.47,3-23.3,8.57c-8.83,8.51-15.13,16.77-9.27,38.89L160.54,100a81.19,81.19,0,0,1,18.16-2.32h2.57A80.79,80.79,0,0,1,199.45,100Zm-9.27,297c8.84-8.5,15.13-16.76,9.27-38.88L199.45,260A81.47,81.47,0,0,1,182,262.28l-1.6,0h-.81l-1.59,0A81.65,81.65,0,0,1,160.54,260l-13.11,49.08c-5.86,22.12.44,30.38,9.27,38.88,5.83,5.61,13.88,8.57,23.3,8.57S197.46,353.54,203.29,347.93ZM156.86,101,143.67,52c-6-22.08-15.56-26.09-27.47-29-7.84-1.94-16.3-.48-24.45,4.23S78.1,38.45,75.86,46.22C72.46,58,71.14,68.3,87.27,84.53l35.89,35.94a81.68,81.68,0,0,1,24.63-16.19l.72-.29.72-.3Q153,102.16,156.86,101ZM143.68,308,156.86,259c-2.43-.72-4.82-1.55-7.19-2.5l-.83-.32-.55-.23a81.54,81.54,0,0,1-25.13-16.4l-35.89,36C71.14,291.7,72.46,302,75.86,313.79c2.24,7.76,7.74,14.36,15.89,19.06s16.61,6.17,24.45,4.23C128.11,334.13,137.69,330.12,143.68,308ZM120.47,123.17,84.52,87.28C68.3,71.14,58,72.46,46.21,75.87c-7.76,2.24-14.36,7.73-19.06,15.88S21,108.36,22.92,116.21c2.95,11.9,7,21.49,29,27.47L101,156.87c.11-.39.23-.77.35-1.16.06-.21.13-.42.2-.62.14-.46.29-.91.44-1.36,0-.13.09-.26.13-.4.18-.52.37-1,.56-1.56,0,0,0-.08,0-.12a81.77,81.77,0,0,1,6-12.78l.16-.27c.3-.52.6-1,.91-1.53l.22-.36c.3-.48.6-1,.91-1.44a.83.83,0,0,1,.08-.12A83,83,0,0,1,120.47,123.17ZM84.52,272.73l36-35.9a82.88,82.88,0,0,1-17.7-28.46.58.58,0,0,1,0-.14c-.19-.51-.37-1-.55-1.55,0-.14-.1-.27-.14-.41-.15-.45-.3-.89-.44-1.34-.07-.21-.14-.43-.2-.64-.12-.39-.24-.77-.35-1.15h0L52,216.32c-22.09,6-26.09,15.57-29,27.47-1.94,7.85-.48,16.31,4.23,24.46s11.3,13.65,19.06,15.89C58,287.54,68.3,288.86,84.52,272.73Zm15.25-111c.09-.4.19-.79.28-1.18L51,147.44c-22.12-5.86-30.38.43-38.88,9.27C6.46,162.53,3.5,170.59,3.5,180s3,17.47,8.57,23.29c8.5,8.84,16.76,15.14,38.88,9.28l49.1-13.12c-.09-.4-.19-.79-.28-1.19,0-.2-.09-.4-.13-.6-.1-.48-.21-.95-.3-1.43,0-.13,0-.25-.08-.38-.1-.55-.21-1.11-.31-1.67,0,0,0-.06,0-.09a82.58,82.58,0,0,1,0-28.17s0-.07,0-.1c.1-.56.2-1.11.31-1.66,0-.13,0-.26.08-.39.09-.47.19-1,.3-1.42C99.68,162.15,99.73,161.94,99.77,161.74Z" style="fill:#231f20"/><path d="M347.93,156.71c5.6,5.82,8.56,13.88,8.56,23.29s-3,17.47-8.56,23.29c-8.51,8.84-16.77,15.14-38.88,9.28L260,199.45a81.7,81.7,0,0,0,2.32-18.16v-.07c0-.41,0-.81,0-1.22s0-.81,0-1.21v-.07A81.79,81.79,0,0,0,260,160.55L309,147.44C331.16,141.58,339.42,147.87,347.93,156.71Z" style="fill:#febe4e"/><path d="M332.85,91.75c4.7,8.15,6.17,16.61,4.22,24.46-2.94,11.9-6.95,21.49-29,27.47L259,156.86c-.76-2.57-1.64-5.12-2.66-7.63l-.3-.72c-.1-.24-.19-.47-.3-.71a81.47,81.47,0,0,0-16.18-24.63l35.94-35.89C291.7,71.14,302,72.46,313.78,75.87,321.55,78.11,328.14,83.6,332.85,91.75Z" style="fill:#f78f42"/><path d="M337.07,243.79c1.95,7.85.48,16.31-4.22,24.46s-11.3,13.65-19.07,15.89c-11.78,3.4-22.08,4.72-38.31-11.41l-35.94-35.9a81.35,81.35,0,0,0,16.18-24.63c.11-.23.2-.47.3-.71l.3-.72c1-2.51,1.9-5.05,2.66-7.63L308,216.32C330.12,222.31,334.13,231.89,337.07,243.79Z" style="fill:#fcef56"/><path d="M284.13,46.22c3.4,11.78,4.72,22.08-11.41,38.3l-35.89,36a81.47,81.47,0,0,0-24.63-16.18l-.72-.31-.71-.29q-3.77-1.53-7.64-2.67L216.32,52c6-22.08,15.56-26.09,27.47-29,7.85-1.94,16.3-.48,24.46,4.23S281.89,38.45,284.13,46.22Z" style="fill:#f15a42"/><path d="M272.72,275.48c16.13,16.22,14.81,26.52,11.41,38.31-2.24,7.76-7.73,14.36-15.88,19.06s-16.61,6.17-24.46,4.23c-11.91-2.95-21.49-7-27.47-29L203.13,259q3.63-1.08,7.17-2.49l.86-.34.53-.22c.88-.36,1.75-.74,2.61-1.13s1.48-.68,2.21-1l0,0a81.19,81.19,0,0,0,20.29-14.21Z" style="fill:#a2cf62"/><path d="M257.89,168.25a79,79,0,0,1,0,23.51c0,.14-.05.29-.07.44l-.18,1.11-.21,1.16c0,.13-.05.27-.08.4q-.54,2.77-1.27,5.52c-.33,1.25-.7,2.48-1.09,3.71l-.06.18c-.15.48-.31,1-.48,1.43-.1.31-.21.62-.32.93s-.15.41-.23.62a79.17,79.17,0,0,1-46.65,46.65l-.62.22-.92.33-1.43.48-.19.06-1.81.55c-.63.19-1.26.37-1.9.54-1.83.49-3.68.91-5.53,1.27l-.37.07-1.2.21-1.06.18-.49.08a79.68,79.68,0,0,1-11.73.87c-1.36,0-2.71,0-4.05-.1-2.59-.13-5.15-.4-7.68-.77l-.5-.08-1.05-.17-1.21-.22-.36-.07q-2.78-.54-5.54-1.27c-1.25-.34-2.48-.7-3.71-1.09l-.19-.07-1.42-.47-.93-.33-.61-.22A78.79,78.79,0,0,1,101.25,180c0-1.94.08-3.88.22-5.81a78.71,78.71,0,0,1,38.2-61.82c.4-.24.81-.49,1.22-.72l.65-.37,1.52-.82.53-.28c.66-.35,1.33-.68,2-1l.51-.24,1.58-.73.69-.3c.53-.24,1.07-.46,1.61-.69l.51-.21c.7-.28,1.39-.55,2.1-.81l.55-.2,1.63-.57.7-.23,1.7-.54.49-.15c.72-.21,1.44-.41,2.17-.6l.59-.15c.55-.15,1.1-.28,1.66-.41l.71-.16c.6-.14,1.2-.27,1.81-.39l.43-.09q1.11-.21,2.22-.39l.63-.1,1.68-.25.71-.09,1.91-.22.37,0,2.26-.18.65,0,1.69-.08.72,0c.67,0,1.34,0,2,0H180c.7,0,1.4,0,2.1,0l.66,0,1.76.08.59,0c.77,0,1.53.11,2.3.19l.27,0,2,.23.64.09c.6.08,1.19.16,1.79.26l.53.08c.76.13,1.52.26,2.28.41l.29.06c.66.13,1.32.27,2,.42l.61.14,1.81.44.46.12c.75.2,1.5.41,2.24.63l.31.09c.64.19,1.27.39,1.91.6l.57.19c.61.2,1.21.42,1.82.64l.38.13c.73.27,1.46.56,2.19.85l.32.13q.91.38,1.83.78l.53.23L214,109l.3.15c.71.34,1.42.69,2.12,1.06l.33.17c.58.31,1.16.62,1.74,1l.5.28,1.52.89a79.23,79.23,0,0,1,33.35,40.25c.08.2.15.41.23.62s.22.61.32.92c.17.48.33,1,.48,1.43l.06.19c.39,1.22.76,2.46,1.09,3.71q.74,2.74,1.27,5.51c0,.13,0,.27.08.41l.21,1.16.18,1.1C257.84,168,257.86,168.1,257.89,168.25Zm-19,3.36.21-1.34-1.25-.54c-.25-.11-25.24-10.65-58.52-10.65s-58.28,10.54-58.53,10.65l-1.25.54.21,1.34c4.81,30.91,29.89,64,59.57,64S234.09,202.52,238.9,171.61Zm-23.85-22.86c3.45-2.09,3.73-7.94.63-13.07s-8.41-7.59-11.86-5.5-3.74,7.94-.64,13.07S211.6,150.84,215.05,148.75Zm-59.55-5.5c3.1-5.13,2.82-11-.63-13.07s-8.76.38-11.87,5.5-2.82,11,.64,13.07S152.4,148.37,155.5,143.25Z" style="fill:#fcee23"/><path d="M239.11,170.27l-.21,1.34c-4.81,30.91-29.89,64-59.56,64s-54.76-33.1-59.57-64l-.21-1.34,1.25-.54c.25-.11,25.24-10.65,58.53-10.65s58.27,10.54,58.52,10.65ZM215.68,213a85.36,85.36,0,0,0,19.53-40.58,163.17,163.17,0,0,0-111.75,0A85.35,85.35,0,0,0,143,213c10.81,12.31,23.72,19.09,36.35,19.09S204.87,225.34,215.68,213Z" style="fill:#231f20"/><path d="M235.21,172.45A85.36,85.36,0,0,1,215.68,213c-10.81,12.31-23.72,19.09-36.34,19.09S153.8,225.34,143,213a85.35,85.35,0,0,1-19.53-40.59,163.17,163.17,0,0,1,111.75,0Z" style="fill:#ed2025"/><path d="M215.68,135.68c3.1,5.13,2.82,11-.63,13.07s-8.76-.38-11.87-5.5-2.82-11,.64-13.07S212.58,130.56,215.68,135.68Zm-.83,11.86c1.15-.38,1.64-2,1.1-3.69s-1.92-2.69-3.08-2.32-1.64,2-1.1,3.69S213.7,147.92,214.85,147.54Zm-7.16-8.14c1.56-.51,2.19-2.87,1.4-5.27s-2.69-3.93-4.26-3.42-2.19,2.88-1.4,5.28S206.13,139.92,207.69,139.4Z" style="fill:#231f20"/><path d="M216,143.85c.54,1.66.05,3.31-1.1,3.69s-2.53-.66-3.08-2.32-.05-3.31,1.1-3.69S215.4,142.19,216,143.85Z" style="fill:#fff"/><path d="M203.29,12.07c8.84,8.51,15.13,16.77,9.27,38.88L199.45,100a80.79,80.79,0,0,0-18.18-2.32H178.7A81.19,81.19,0,0,0,160.54,100L147.43,51c-5.86-22.12.44-30.38,9.27-38.89,5.83-5.6,13.88-8.57,23.3-8.57S197.46,6.47,203.29,12.07Z" style="fill:#ec5aa0"/><path d="M212.56,309.05c5.86,22.12-.43,30.38-9.27,38.88-5.83,5.61-13.88,8.57-23.29,8.57s-17.47-3-23.3-8.57c-8.83-8.5-15.13-16.76-9.27-38.88L160.54,260A81.65,81.65,0,0,0,178,262.28l1.59,0h.81l1.6,0A81.47,81.47,0,0,0,199.45,260Z" style="fill:#1aaf69"/><path d="M209.09,134.13c.79,2.4.16,4.76-1.4,5.27s-3.47-1-4.26-3.41-.16-4.76,1.4-5.28S208.3,131.73,209.09,134.13Z" style="fill:#fff"/><path d="M143.67,52,156.86,101q-3.87,1.14-7.63,2.67l-.72.3-.72.29a81.68,81.68,0,0,0-24.63,16.19L87.27,84.53C71.14,68.3,72.46,58,75.86,46.22c2.24-7.77,7.74-14.36,15.89-19.07S108.36,21,116.2,22.92C128.11,25.87,137.69,29.88,143.67,52Z" style="fill:#a155a1"/><path d="M156.86,259,143.68,308c-6,22.08-15.57,26.09-27.48,29-7.84,1.94-16.3.48-24.45-4.23s-13.65-11.3-15.89-19.06c-3.4-11.79-4.72-22.09,11.41-38.31l35.89-36a81.54,81.54,0,0,0,25.13,16.4l.55.23.83.32C152,257.43,154.43,258.26,156.86,259Z" style="fill:#01b5ac"/><path d="M154.87,130.18c3.45,2.09,3.73,7.94.63,13.07s-8.41,7.59-11.86,5.5-3.74-7.94-.64-13.07S151.42,128.09,154.87,130.18Zm.38,5.81c.79-2.4.16-4.76-1.4-5.28s-3.47,1-4.26,3.42-.16,4.76,1.4,5.27S154.46,138.39,155.25,136Zm-8.34,9.23c.55-1.66.05-3.31-1.1-3.69s-2.53.66-3.07,2.32-.05,3.31,1.1,3.69S146.37,146.88,146.91,145.22Z" style="fill:#231f20"/><path d="M153.85,130.71c1.56.52,2.19,2.88,1.4,5.28s-2.69,3.93-4.26,3.41-2.19-2.87-1.4-5.27S152.29,130.2,153.85,130.71Z" style="fill:#fff"/><path d="M145.81,141.53c1.15.38,1.65,2,1.1,3.69s-1.92,2.7-3.07,2.32-1.65-2-1.1-3.69S144.66,141.16,145.81,141.53Z" style="fill:#fff"/><path d="M84.52,87.28l36,35.89a83,83,0,0,0-9.44,12,.83.83,0,0,0-.08.12c-.31.48-.61,1-.91,1.44l-.22.36c-.31.5-.61,1-.91,1.53l-.16.27a81.77,81.77,0,0,0-6,12.78s0,.08,0,.12c-.19.52-.38,1-.56,1.56,0,.14-.09.27-.13.4-.15.45-.3.9-.44,1.36-.07.2-.14.41-.2.62-.12.39-.24.77-.35,1.16L52,143.68c-22.09-6-26.09-15.57-29-27.47-1.94-7.85-.48-16.31,4.23-24.46s11.3-13.64,19.06-15.88C58,72.46,68.3,71.14,84.52,87.28Z" style="fill:#524fa1"/><path d="M120.47,236.83l-35.95,35.9C68.3,288.86,58,287.54,46.21,284.14c-7.76-2.24-14.36-7.74-19.06-15.89S21,251.64,22.92,243.79c2.95-11.9,7-21.48,29-27.47L101,203.13h0c.11.38.23.76.35,1.15.06.21.13.43.2.64.14.45.29.89.44,1.34,0,.14.09.27.14.41.18.52.36,1,.55,1.55a.58.58,0,0,0,0,.14,82.88,82.88,0,0,0,17.7,28.46Z" style="fill:#2db6ea"/><path d="M100.05,160.56c-.09.39-.19.78-.28,1.18,0,.2-.09.41-.13.61-.11.47-.21,1-.3,1.42,0,.13,0,.26-.08.39-.11.55-.21,1.1-.31,1.66,0,0,0,.06,0,.1a82.58,82.58,0,0,0,0,28.17s0,.06,0,.09c.1.56.21,1.12.31,1.67,0,.13,0,.25.08.38.09.48.2,1,.3,1.43,0,.2.09.4.13.6.09.4.19.79.28,1.19L51,212.57c-22.12,5.86-30.38-.44-38.88-9.28C6.46,197.47,3.5,189.41,3.5,180s3-17.47,8.57-23.29c8.5-8.84,16.76-15.13,38.88-9.27Z" style="fill:#2086c6"/></g></g></svg>