<svg id="Layer_1" data-name="Layer 1" xmlns="http://www.w3.org/2000/svg" xmlns:xlink="http://www.w3.org/1999/xlink" viewBox="0 0 341.37 88.34"><defs><style>.cls-1{clip-path:url(#clip-path);}.cls-2{fill:#fff;}</style><clipPath id="clip-path" transform="translate(-15.05 -77.4)"/></defs><title>cloud</title><g class="cls-1"><path class="cls-2" d="M347.73,140.32a4.09,4.09,0,0,0-5-1.46,3.75,3.75,0,0,0-3.37-2.28,3.64,3.64,0,0,0-2.69,1.21,6.63,6.63,0,0,0-5.38-2.88,6.24,6.24,0,0,0-2.2.43,6.89,6.89,0,0,0-6.37-4.74,6.71,6.71,0,0,0-5.64,3.23,10,10,0,0,0-6.13-2.12,9.91,9.91,0,0,0-3.69.73,8,8,0,0,0-7.45-5.73,7.36,7.36,0,0,0-3.44.89,8.16,8.16,0,0,0-7.82-7.42,7.43,7.43,0,0,0-4.55,1.58c-2-6.09-7.33-10.47-13.62-10.47a13.58,13.58,0,0,0-6.86,1.88,17.61,17.61,0,0,0-15.15-9.1A17.14,17.14,0,0,0,236,109.43a9.5,9.5,0,0,0-10.09,0C224.45,102.84,219,98,212.52,98a12.81,12.81,0,0,0-5.79,1.39c-2.31-6-7.78-10.28-14.18-10.28a14.41,14.41,0,0,0-7.61,2.2c-5.25-8.37-14.09-13.87-24.13-13.87-11.46,0-21.35,7.19-26.12,17.63a14.21,14.21,0,0,0-4.33-.68c-6.36,0-11.82,4.13-14.26,10.05-3.54-2.1-8.54-2.73-13.7-1.35-6.17,1.65-10.9,5.72-12.64,10.27a10,10,0,0,0-2.85-.43,10.17,10.17,0,0,0-7.1,3A10.73,10.73,0,0,0,72,112.4c-5.63,0-10.28,4.49-11.11,10.35a9.87,9.87,0,0,0-8.6-5.34c-5.51,0-10,4.85-10,10.83,0,.06,0,.12,0,.19-15.56.85-27.27,4.55-27.27,9,0,4.19,10.54,7.74,24.9,8.82a9.43,9.43,0,0,0,8,4.65,9.22,9.22,0,0,0,6.71-3,12.77,12.77,0,0,0,11,6.65,12.4,12.4,0,0,0,8.9-3.85,10.68,10.68,0,0,0,9.65,6.63,10,10,0,0,0,5.32-1.55A8.93,8.93,0,0,0,94,157a8.8,8.8,0,0,0,2.62-.4,17.13,17.13,0,0,0,3.17,1,18.46,18.46,0,0,0,12.38,4.84,18.9,18.9,0,0,0,15.29-8.09,18.5,18.5,0,0,0,12.87,5.31,18.11,18.11,0,0,0,9.6-2.77,13.82,13.82,0,0,0,15.51.74,19.87,19.87,0,0,0,15.84,8.14,19.48,19.48,0,0,0,13.51-5.55,10.62,10.62,0,0,0,6.45,2.22,10.78,10.78,0,0,0,7.86-3.48,15.12,15.12,0,0,0,12.11,6.25,15.34,15.34,0,0,0,13.22-8,9.72,9.72,0,0,0,8.28,4.84,9.32,9.32,0,0,0,5.6-1.88,35.7,35.7,0,0,0,17.85,4.45c9.92,0,18.56-3.48,23-8.63a10.39,10.39,0,0,0,8.42,4.47,10.63,10.63,0,0,0,9.51-6.33,9.88,9.88,0,0,0,3.8.77,10.39,10.39,0,0,0,8.33-4.34,6.68,6.68,0,0,0,5.49,3,6.77,6.77,0,0,0,6-3.88,5,5,0,0,0,.54.06,6.56,6.56,0,0,0,4.89-2.24,4.11,4.11,0,0,0,2.79,1.13,4.17,4.17,0,0,0,3.1-1.41,4,4,0,0,0,2.28.72,4.15,4.15,0,0,0,3.08-1.4h.31c4.81,0,8.7-1.4,8.7-3.13S352.53,140.33,347.73,140.32Z" transform="translate(-15.05 -77.4)"/></g></svg>