<svg id="Layer_1" data-name="Layer 1" xmlns="http://www.w3.org/2000/svg" viewBox="0 0 360 360"><defs><style>.cls-1{fill:#231f20;}.cls-2{fill:#febe4e;}.cls-3{fill:#f78f42;}.cls-4{fill:#fcef56;}.cls-5{fill:#f15a42;}.cls-6{fill:#a2cf62;}.cls-7{fill:#fcee23;}.cls-8{fill:#ed2025;}.cls-17,.cls-9{fill:#fff;}.cls-10{fill:#ec5aa0;}.cls-11{fill:#1aaf69;}.cls-12{fill:#a155a1;}.cls-13{fill:#01b5ac;}.cls-14{fill:#524fa1;}.cls-15{fill:#2db6ea;}.cls-16{fill:#2086c6;}.cls-17{isolation:isolate;font-size:24px;font-family:Helvetica-Compressed, Helvetica Compressed;}</style></defs><title>greenPetal</title><g id="Layer_1-2" data-name="Layer 1-2"><path class="cls-1" d="M350.45,154.28C356.7,160.77,360,169.67,360,180s-3.3,19.23-9.55,25.72c-6.63,6.89-13.47,12.63-26.2,12.63H323c11.89,6.43,15.08,15,17.44,24.62,2.17,8.75.58,18.1-4.59,27s-12.47,15-21.13,17.5a47.85,47.85,0,0,1-13.31,2.3,31.06,31.06,0,0,1-16.74-5.09c7.09,11.51,5.53,20.57,2.8,30-2.5,8.65-8.55,16-17.5,21.13a38.7,38.7,0,0,1-19.31,5.53,32,32,0,0,1-7.74-.94c-9.58-2.37-18.2-5.56-24.63-17.46.38,13.52-5.49,20.6-12.6,27.43C199.23,356.7,190.33,360,180,360s-19.23-3.3-25.72-9.55c-7.11-6.83-13-13.91-12.6-27.43-6.43,11.9-15.06,15.09-24.63,17.46a32.17,32.17,0,0,1-7.75.94A38.63,38.63,0,0,1,90,335.89c-9-5.17-15-12.48-17.5-21.13-2.74-9.48-4.29-18.54,2.79-30.05-6.13,3.77-11.56,5.09-16.73,5.09a47.86,47.86,0,0,1-13.32-2.3c-8.65-2.5-16-8.55-21.13-17.5s-6.75-18.3-4.59-27c2.37-9.57,5.55-18.19,17.44-24.62H35.74c-12.72,0-19.57-5.74-26.2-12.63C3.3,199.23,0,190.34,0,180s3.3-19.23,9.54-25.72c6.84-7.11,13.92-13,27.43-12.6-11.9-6.43-15.08-15.05-17.45-24.63-2.16-8.74-.58-18.1,4.59-27S36.59,75,45.24,72.5c9.48-2.74,18.54-4.29,30.05,2.79-7.08-11.51-5.53-20.57-2.79-30,2.49-8.66,8.55-16,17.5-21.13s18.3-6.76,27.05-4.6c9.57,2.37,18.2,5.56,24.63,17.46-.38-13.52,5.49-20.59,12.6-27.43C160.77,3.3,169.66,0,180,0s19.23,3.3,25.72,9.55c7.11,6.84,13,13.91,12.6,27.43,6.43-11.9,15.05-15.09,24.63-17.46,8.74-2.16,18.1-.57,27.05,4.6s15,12.47,17.5,21.13c2.73,9.47,4.29,18.53-2.8,30,11.52-7.08,20.58-5.53,30.05-2.79,8.66,2.5,16,8.55,21.13,17.5s6.76,18.31,4.59,27.05c-2.37,9.58-5.55,18.2-17.45,24.63C336.54,141.3,343.61,147.17,350.45,154.28Zm6,25.72c0-9.41-3-17.47-8.56-23.29-8.51-8.84-16.77-15.13-38.89-9.27l-49,13.11a81.86,81.86,0,0,1,2.32,18.17v2.57A81.77,81.77,0,0,1,260,199.45l49.08,13.12c22.11,5.86,30.37-.44,38.88-9.28,5.57-5.82,8.53-13.88,8.53-23.29ZM337,116.21c2-7.85.48-16.31-4.22-24.46s-11.3-13.64-19.07-15.88c-11.74-3.41-22-4.73-38.27,11.41l-35.94,35.89a81.33,81.33,0,0,1,16.18,24.63c.11.24.2.47.3.71l.3.72c1,2.51,1.9,5.06,2.66,7.63l49-13.18c22.12-6,26.13-15.57,29.07-27.47Zm-4.22,152c4.7-8.15,6.17-16.61,4.22-24.46-2.94-11.9-6.95-21.48-29-27.47l-49-13.14c-.76,2.58-1.64,5.12-2.66,7.63l-.3.72c-.1.24-.19.48-.3.71a81.33,81.33,0,0,1-16.18,24.63l35.94,35.9c16.23,16.13,26.53,14.81,38.31,11.41,7.74-2.24,14.33-7.74,19-15.89ZM272.72,84.52C288.85,68.3,287.53,58,284.13,46.22c-2.24-7.77-7.73-14.36-15.88-19.07S251.64,21,243.79,22.92c-11.91,2.95-21.49,7-27.47,29L203.13,101q3.87,1.14,7.64,2.67l.71.29.72.31a81.33,81.33,0,0,1,24.63,16.18Zm11.41,229.27c3.4-11.79,4.72-22.09-11.41-38.31l-35.89-36a81.14,81.14,0,0,1-20.29,14.21h0c-.73.36-1.47.7-2.21,1s-1.73.77-2.61,1.13l-.53.22-.86.34q-3.54,1.41-7.17,2.49L216.32,308c6,22.08,15.56,26.09,27.47,29,7.85,1.94,16.3.48,24.46-4.23S281.89,321.55,284.13,313.79ZM258.77,180a79.71,79.71,0,0,0-.88-11.75,3.5,3.5,0,0,0-.07-.45l-.18-1.1-.21-1.16a1.86,1.86,0,0,0-.08-.41q-.54-2.76-1.27-5.51c-.33-1.25-.7-2.49-1.09-3.71l-.06-.19c-.15-.48-.31-.95-.48-1.43-.1-.31-.21-.62-.32-.92s-.15-.42-.23-.62a79.23,79.23,0,0,0-33.35-40.25l-1.52-.89-.5-.28c-.58-.33-1.16-.64-1.74-1l-.33-.17c-.7-.37-1.41-.72-2.12-1.06L214,109l-1.82-.84-.53-.23q-.92-.41-1.83-.78l-.32-.13c-.73-.29-1.46-.58-2.19-.85L207,106c-.61-.22-1.21-.44-1.82-.64l-.57-.19c-.64-.21-1.27-.41-1.91-.6l-.31-.09c-.74-.22-1.49-.43-2.24-.63l-.46-.12-1.81-.44-.61-.14c-.65-.15-1.31-.29-2-.42l-.29-.06c-.76-.15-1.52-.28-2.28-.41l-.53-.08c-.6-.1-1.19-.18-1.79-.26l-.64-.09-2-.23h-.27c-.77-.08-1.53-.14-2.3-.19h-.59l-1.76-.08h-5.63l-1.69.08h-.65l-2.26.18h-.37l-1.91.22-.71.09-1.68.25-.63.1q-1.11.18-2.22.39l-.43.09c-.61.12-1.21.25-1.81.39l-.71.16c-.56.13-1.11.26-1.66.41l-.59.15c-.73.19-1.45.39-2.17.6l-.49.15-1.7.54-.7.23-1.63.57-.55.2c-.71.26-1.4.53-2.1.81l-.51.21c-.54.23-1.08.45-1.61.69l-.69.3-1.58.73-.51.24c-.68.33-1.35.66-2,1l-.53.28-1.52.82-.65.37c-.41.23-.82.48-1.22.72a78.72,78.72,0,0,0-38.2,61.82c-.14,1.93-.22,3.87-.22,5.81a78.79,78.79,0,0,0,51.5,73.91l.61.22.93.33,1.42.47.19.07c1.23.39,2.46.75,3.71,1.09,1.84.49,3.69.92,5.54,1.27l.36.07,1.21.22,1.05.17.5.08c2.53.37,5.09.64,7.68.77,1.34.07,2.69.1,4,.1a79.33,79.33,0,0,0,11.73-.87l.49-.08,1.06-.18,1.2-.21.37-.07c1.85-.36,3.7-.78,5.53-1.27.64-.17,1.27-.35,1.9-.54l1.81-.55.19-.06,1.43-.48.92-.33.62-.22a79.14,79.14,0,0,0,46.65-46.65c.08-.21.15-.42.23-.62s.22-.62.32-.93c.17-.47.33-1,.48-1.43L255,204c.39-1.23.76-2.46,1.09-3.71.49-1.83.92-3.67,1.27-5.52a.72.72,0,0,1,.08-.4l.21-1.16.18-1.11a1,1,0,0,1,.07-.44A78.87,78.87,0,0,0,258.77,180ZM212.56,51c5.86-22.11-.43-30.37-9.27-38.88C197.46,6.47,189.41,3.5,180,3.5s-17.47,3-23.3,8.57c-8.83,8.51-15.13,16.77-9.27,38.89l13.11,49a81.19,81.19,0,0,1,18.16-2.32h2.57A80.71,80.71,0,0,1,199.45,100Zm-9.27,297c8.84-8.5,15.13-16.76,9.27-38.88L199.45,260A81.52,81.52,0,0,1,182,262.28h-4A81.53,81.53,0,0,1,160.54,260l-13.11,49.08c-5.86,22.12.44,30.38,9.27,38.88,5.83,5.61,13.88,8.57,23.3,8.57s17.46-3,23.29-8.6ZM156.86,101,143.67,52c-6-22.08-15.56-26.09-27.47-29-7.84-1.94-16.3-.48-24.45,4.23s-13.65,11.22-15.89,19C72.46,58,71.14,68.3,87.27,84.53l35.89,35.94a81.67,81.67,0,0,1,24.63-16.19l.72-.29.72-.3C151.74,102.67,154.29,101.77,156.86,101ZM143.68,308l13.18-49c-2.43-.72-4.82-1.55-7.19-2.5l-.83-.32-.55-.23a81.52,81.52,0,0,1-25.13-16.4l-35.89,36C71.14,291.7,72.46,302,75.86,313.79c2.24,7.76,7.74,14.36,15.89,19.06s16.61,6.17,24.45,4.23C128.11,334.13,137.69,330.12,143.68,308ZM120.47,123.17,84.52,87.28C68.3,71.14,58,72.46,46.21,75.87c-7.76,2.24-14.36,7.73-19.06,15.88S21,108.36,22.92,116.21c2.95,11.9,7,21.49,29,27.47L101,156.87c.11-.39.23-.77.35-1.16.06-.21.13-.42.2-.62.14-.46.29-.91.44-1.36a1.69,1.69,0,0,1,.13-.4c.18-.52.37-1,.56-1.56v-.12a82.23,82.23,0,0,1,6-12.78l.16-.27c.3-.52.6-1,.91-1.53l.22-.36c.3-.48.6-1,.91-1.44l.08-.12A82.58,82.58,0,0,1,120.47,123.17ZM84.52,272.73l36-35.9a82.83,82.83,0,0,1-17.7-28.46.33.33,0,0,1,0-.14c-.19-.51-.37-1-.55-1.55a1.66,1.66,0,0,0-.14-.41c-.15-.45-.3-.89-.44-1.34-.07-.21-.14-.43-.2-.64-.12-.39-.24-.77-.35-1.15h0L52,216.32c-22.09,6-26.09,15.57-29,27.47-1.94,7.85-.48,16.31,4.23,24.46s11.3,13.65,19.06,15.89C58,287.54,68.3,288.86,84.52,272.73Zm15.25-111c.09-.4.19-.79.28-1.18L51,147.44c-22.12-5.86-30.38.43-38.88,9.27C6.46,162.53,3.5,170.59,3.5,180s3,17.47,8.57,23.29c8.5,8.84,16.76,15.14,38.88,9.28l49.1-13.12c-.09-.4-.19-.79-.28-1.19a3.22,3.22,0,0,0-.13-.6c-.1-.48-.21-.95-.3-1.43a.66.66,0,0,0-.08-.38c-.1-.55-.21-1.11-.31-1.67v-.09a82.75,82.75,0,0,1,0-28.17v-.1c.1-.56.2-1.11.31-1.66a.69.69,0,0,1,.08-.39c.09-.47.19-1,.3-1.42,0-.2.09-.41.13-.61Z"/><path class="cls-2" d="M347.93,156.71c5.6,5.82,8.56,13.88,8.56,23.29s-3,17.47-8.56,23.29c-8.51,8.84-16.77,15.14-38.88,9.28L260,199.45a81.77,81.77,0,0,0,2.32-18.16v-2.57A81.86,81.86,0,0,0,260,160.55l49-13.11C331.16,141.58,339.42,147.87,347.93,156.71Z"/><path class="cls-3" d="M332.85,91.75c4.7,8.15,6.17,16.61,4.22,24.46-2.94,11.9-6.95,21.49-29,27.47L259,156.86c-.76-2.57-1.64-5.12-2.66-7.63l-.3-.72c-.1-.24-.19-.47-.3-.71a81.33,81.33,0,0,0-16.18-24.63L275.5,87.28c16.2-16.14,26.5-14.82,38.28-11.41C321.55,78.11,328.14,83.6,332.85,91.75Z"/><path class="cls-4" d="M337.07,243.79c1.95,7.85.48,16.31-4.22,24.46s-11.3,13.65-19.07,15.89c-11.78,3.4-22.08,4.72-38.31-11.41l-35.94-35.9a81.33,81.33,0,0,0,16.18-24.63c.11-.23.2-.47.3-.71l.3-.72c1-2.51,1.9-5.05,2.66-7.63l49,13.18C330.12,222.31,334.13,231.89,337.07,243.79Z"/><path class="cls-5" d="M284.13,46.22c3.4,11.78,4.72,22.08-11.41,38.3l-35.89,36a81.33,81.33,0,0,0-24.63-16.18l-.72-.31-.71-.29q-3.77-1.53-7.64-2.67L216.32,52c6-22.08,15.56-26.09,27.47-29,7.85-1.94,16.3-.48,24.46,4.23S281.89,38.45,284.13,46.22Z"/><path class="cls-6" d="M272.72,275.48c16.13,16.22,14.81,26.52,11.41,38.31-2.24,7.76-7.73,14.36-15.88,19.06s-16.61,6.17-24.46,4.23c-11.91-2.95-21.49-7-27.47-29L203.13,259q3.63-1.08,7.17-2.49l.86-.34.53-.22c.88-.36,1.75-.74,2.61-1.13s1.48-.68,2.21-1h0a81.14,81.14,0,0,0,20.29-14.21Z"/><path class="cls-7" d="M257.89,168.25a79.17,79.17,0,0,1,0,23.51,3.64,3.64,0,0,1-.07.44l-.18,1.11-.21,1.16a1.89,1.89,0,0,1-.08.4q-.54,2.77-1.27,5.52c-.33,1.25-.7,2.48-1.09,3.71l-.06.18c-.15.48-.31,1-.48,1.43s-.21.62-.32.93-.15.41-.23.62a79.14,79.14,0,0,1-46.65,46.65l-.62.22-.92.33-1.43.48-.19.06-1.81.55c-.63.19-1.26.37-1.9.54-1.83.49-3.68.91-5.53,1.27l-.37.07-1.2.21-1.06.18-.49.08a79.33,79.33,0,0,1-11.73.87c-1.36,0-2.71,0-4.05-.1-2.59-.13-5.15-.4-7.68-.77l-.5-.08-1.05-.17-1.21-.22-.36-.07q-2.78-.54-5.54-1.27c-1.25-.34-2.48-.7-3.71-1.09l-.19-.07-1.42-.47-.93-.33-.61-.22A78.79,78.79,0,0,1,101.25,180c0-1.94.08-3.88.22-5.81a78.72,78.72,0,0,1,38.2-61.82c.4-.24.81-.49,1.22-.72l.65-.37,1.52-.82.53-.28c.66-.35,1.33-.68,2-1l.51-.24,1.58-.73.69-.3c.53-.24,1.07-.46,1.61-.69l.51-.21c.7-.28,1.39-.55,2.1-.81l.55-.2,1.63-.57.7-.23,1.7-.54.49-.15c.72-.21,1.44-.41,2.17-.6l.59-.15c.55-.15,1.1-.28,1.66-.41l.71-.16c.6-.14,1.2-.27,1.81-.39l.43-.09q1.11-.21,2.22-.39l.63-.1,1.68-.25.71-.09,1.91-.22h.37l2.26-.18h.65l1.69-.08h5.61l1.76.08h.59a22.28,22.28,0,0,1,2.3.19h.27l2,.23.64.09c.6.08,1.19.16,1.79.26l.53.08c.76.13,1.52.26,2.28.41l.29.06,2,.42.61.14,1.81.44.46.12c.75.2,1.5.41,2.24.63l.31.09c.64.19,1.27.39,1.91.6l.57.19c.61.2,1.21.42,1.82.64l.38.13c.73.27,1.46.56,2.19.85l.32.13q.91.38,1.83.78l.53.23L214,109l.3.15c.71.34,1.42.69,2.12,1.06l.33.17c.58.31,1.16.62,1.74,1l.5.28,1.52.89a79.23,79.23,0,0,1,33.35,40.25c.08.2.15.41.23.62s.22.61.32.92c.17.48.33,1,.48,1.43l.06.19c.39,1.22.76,2.46,1.09,3.71.49,1.83.92,3.66,1.27,5.51a.77.77,0,0,0,.08.41l.21,1.16.18,1.1A2,2,0,0,1,257.89,168.25Zm-19,3.36.21-1.34-1.25-.54c-.25-.11-25.24-10.65-58.52-10.65s-58.28,10.54-58.53,10.65l-1.25.54.21,1.34c4.81,30.91,29.89,64,59.57,64s54.76-33.09,59.57-64ZM215,148.75c3.45-2.09,3.73-7.94.63-13.07s-8.41-7.59-11.86-5.5-3.74,7.94-.64,13.07,8.43,7.59,11.88,5.5Zm-59.55-5.5c3.1-5.13,2.82-11-.63-13.07s-8.76.38-11.87,5.5-2.82,11,.64,13.07,8.77-.38,11.87-5.5Z"/><path class="cls-1" d="M239.11,170.27l-.21,1.34c-4.81,30.91-29.89,64-59.56,64s-54.76-33.1-59.57-64l-.21-1.34,1.25-.54c.25-.11,25.24-10.65,58.53-10.65s58.27,10.54,58.52,10.65ZM215.68,213a85.3,85.3,0,0,0,19.53-40.58,163.21,163.21,0,0,0-111.75,0A85.32,85.32,0,0,0,143,213c10.81,12.31,23.72,19.09,36.35,19.09S204.87,225.34,215.68,213Z"/><path class="cls-8" d="M235.21,172.45A85.43,85.43,0,0,1,215.68,213c-10.81,12.31-23.72,19.09-36.34,19.09S153.8,225.34,143,213a85.38,85.38,0,0,1-19.53-40.59,163.21,163.21,0,0,1,111.75,0Z"/><path class="cls-1" d="M215.68,135.68c3.1,5.13,2.82,11-.63,13.07s-8.76-.38-11.87-5.5-2.82-11,.64-13.07S212.58,130.56,215.68,135.68Zm-.83,11.86c1.15-.38,1.64-2,1.1-3.69s-1.92-2.69-3.08-2.32-1.64,2-1.1,3.69,1.93,2.7,3.08,2.32Zm-7.16-8.14c1.56-.51,2.19-2.87,1.4-5.27s-2.69-3.93-4.26-3.42-2.19,2.88-1.4,5.28,2.7,3.93,4.26,3.41Z"/><path class="cls-9" d="M216,143.85c.54,1.66.05,3.31-1.1,3.69s-2.53-.66-3.08-2.32,0-3.31,1.1-3.69S215.4,142.19,216,143.85Z"/><path class="cls-10" d="M203.29,12.07c8.84,8.51,15.13,16.77,9.27,38.88L199.45,100a80.71,80.71,0,0,0-18.18-2.32H178.7A81.19,81.19,0,0,0,160.54,100L147.43,51c-5.86-22.12.44-30.38,9.27-38.89,5.83-5.6,13.88-8.57,23.3-8.57S197.46,6.47,203.29,12.07Z"/><path class="cls-11" d="M212.56,309.05c5.86,22.12-.43,30.38-9.27,38.88-5.83,5.61-13.88,8.57-23.29,8.57s-17.47-3-23.3-8.57c-8.83-8.5-15.13-16.76-9.27-38.88L160.54,260A81.53,81.53,0,0,0,178,262.28h4A81.52,81.52,0,0,0,199.45,260Z"/><path class="cls-9" d="M209.09,134.13c.79,2.4.16,4.76-1.4,5.27s-3.47-1-4.26-3.41-.16-4.76,1.4-5.28S208.3,131.73,209.09,134.13Z"/><path class="cls-12" d="M143.67,52l13.19,49q-3.87,1.14-7.63,2.67l-.72.3-.72.29a81.67,81.67,0,0,0-24.63,16.19L87.27,84.53C71.14,68.3,72.46,58,75.86,46.22c2.24-7.77,7.74-14.36,15.89-19.07S108.36,21,116.2,22.92C128.11,25.87,137.69,29.88,143.67,52Z"/><path class="cls-13" d="M156.86,259l-13.18,49c-6,22.08-15.57,26.09-27.48,29-7.84,1.94-16.3.48-24.45-4.23s-13.65-11.3-15.89-19.06c-3.4-11.79-4.72-22.09,11.41-38.31l35.89-36a81.52,81.52,0,0,0,25.13,16.4l.55.23.83.32A55.42,55.42,0,0,0,156.86,259Z"/><path class="cls-1" d="M154.87,130.18c3.45,2.09,3.73,7.94.63,13.07s-8.41,7.59-11.86,5.5-3.74-7.94-.64-13.07S151.42,128.09,154.87,130.18Zm.38,5.81c.79-2.4.16-4.76-1.4-5.28s-3.47,1-4.26,3.42-.16,4.76,1.4,5.27,3.47-1,4.26-3.4Zm-8.34,9.23c.55-1.66.05-3.31-1.1-3.69s-2.53.66-3.07,2.32-.05,3.31,1.1,3.69,2.53-.66,3.07-2.32Z"/><path class="cls-9" d="M153.85,130.71c1.56.52,2.19,2.88,1.4,5.28s-2.69,3.93-4.26,3.41-2.19-2.87-1.4-5.27S152.29,130.2,153.85,130.71Z"/><path class="cls-9" d="M145.81,141.53c1.15.38,1.65,2,1.1,3.69s-1.92,2.7-3.07,2.32-1.65-2-1.1-3.69S144.66,141.16,145.81,141.53Z"/><path class="cls-14" d="M84.52,87.28l36,35.89a82.82,82.82,0,0,0-9.44,12l-.08.12c-.31.48-.61,1-.91,1.44l-.22.36c-.31.5-.61,1-.91,1.53l-.16.27a82.23,82.23,0,0,0-6,12.78v.12c-.19.52-.38,1-.56,1.56a1.44,1.44,0,0,1-.13.4c-.15.45-.3.9-.44,1.36-.07.2-.14.41-.2.62-.12.39-.24.77-.35,1.16L52,143.68c-22.09-6-26.09-15.57-29-27.47-1.94-7.85-.48-16.31,4.23-24.46s11.3-13.64,19.06-15.88C58,72.46,68.3,71.14,84.52,87.28Z"/><path class="cls-15" d="M120.47,236.83l-35.95,35.9C68.3,288.86,58,287.54,46.21,284.14c-7.76-2.24-14.36-7.74-19.06-15.89S21,251.64,22.92,243.79c2.95-11.9,7-21.48,29-27.47L101,203.13h0c.11.38.23.76.35,1.15.06.21.13.43.2.64.14.45.29.89.44,1.34a1.33,1.33,0,0,0,.14.41c.18.52.36,1,.55,1.55a.33.33,0,0,0,0,.14,82.83,82.83,0,0,0,17.7,28.46Z"/><path class="cls-16" d="M100.05,160.56c-.09.39-.19.78-.28,1.18a3.32,3.32,0,0,1-.13.61c-.11.47-.21,1-.3,1.42a.69.69,0,0,1-.08.39c-.11.55-.21,1.1-.31,1.66v.1a82.75,82.75,0,0,0,0,28.17v.09c.1.56.21,1.12.31,1.67a.66.66,0,0,0,.08.38c.09.48.2,1,.3,1.43a3.22,3.22,0,0,0,.13.6c.09.4.19.79.28,1.19L51,212.57c-22.12,5.86-30.38-.44-38.88-9.28C6.46,197.47,3.5,189.41,3.5,180s3-17.47,8.57-23.29c8.5-8.84,16.76-15.13,38.88-9.27Z"/><text class="cls-17" transform="translate(284.03 186.22)">About</text><text class="cls-17" transform="translate(185.46 74.21) rotate(-90)">Home</text><text class="cls-17" transform="translate(14.4 185.99)">Contact</text></g></svg>