<svg xmlns="http://www.w3.org/2000/svg" viewBox="0 0 877.59 853.68"><defs><style>.cls-1{fill:#fff;}.cls-2{fill:#0c8252;}.cls-3{fill:#231f20;}.cls-4{fill:#febe4e;}.cls-5{fill:#f78f42;}.cls-6{fill:#fcef56;}.cls-7{fill:#f15a42;}.cls-8{fill:#a2cf62;}.cls-9{fill:#fcee23;}.cls-10{fill:#ed2025;}.cls-11{fill:#ec5aa0;}.cls-12{fill:#1aaf69;}.cls-13{fill:#a155a1;}.cls-14{fill:#01b5ac;}.cls-15{fill:#524fa1;}.cls-16{fill:#2db6ea;}.cls-17{fill:#2086c6;}.cls-18{fill:#a5c96e;}.cls-19{fill:#99a4cd;}.cls-20{fill:#4c3a88;}.cls-21{fill:#1f776f;}</style></defs><title>Asset 3</title><g id="Layer_2" data-name="Layer 2"><g id="Layer_1-2" data-name="Layer 1"><path class="cls-1" d="M744,94a4.1,4.1,0,0,0-5-1.46,3.76,3.76,0,0,0-3.37-2.28A3.69,3.69,0,0,0,733,91.45a6.65,6.65,0,0,0-5.38-2.88,6.38,6.38,0,0,0-2.2.43A6.91,6.91,0,0,0,719,84.26a6.74,6.74,0,0,0-5.64,3.23,9.84,9.84,0,0,0-9.82-1.39,8,8,0,0,0-7.45-5.73,7.52,7.52,0,0,0-3.44.89,8.17,8.17,0,0,0-7.82-7.42,7.5,7.5,0,0,0-4.55,1.58C678.3,69.33,673,65,666.68,65a13.68,13.68,0,0,0-6.86,1.88,17.61,17.61,0,0,0-15.15-9.1,17.18,17.18,0,0,0-12.37,5.36,9.52,9.52,0,0,0-10.09,0c-1.46-6.59-6.91-11.43-13.39-11.43A13,13,0,0,0,603,53.05c-2.31-6-7.78-10.28-14.18-10.28a14.43,14.43,0,0,0-7.61,2.2C576,36.6,567.15,31.1,557.11,31.1c-11.46,0-21.35,7.19-26.12,17.63a14.46,14.46,0,0,0-4.33-.68c-6.36,0-11.82,4.13-14.26,10.05-3.54-2.1-8.54-2.73-13.7-1.35-6.17,1.65-10.9,5.72-12.64,10.27a9.84,9.84,0,0,0-9.95,2.57,10.73,10.73,0,0,0-7.81-3.53c-5.63,0-10.28,4.49-11.11,10.35a9.89,9.89,0,0,0-8.6-5.34c-5.51,0-10,4.85-10,10.83v.19c-15.56.85-27.27,4.55-27.27,9,0,4.19,10.54,7.74,24.9,8.82a9.41,9.41,0,0,0,8,4.65,9.17,9.17,0,0,0,6.71-3,12.77,12.77,0,0,0,11,6.65,12.38,12.38,0,0,0,8.9-3.85,10.66,10.66,0,0,0,9.65,6.63,9.91,9.91,0,0,0,5.32-1.55,8.92,8.92,0,0,0,4.5,1.22,8.63,8.63,0,0,0,2.62-.4,16.91,16.91,0,0,0,3.17,1,18.46,18.46,0,0,0,12.38,4.84A18.86,18.86,0,0,0,523.76,108a18.47,18.47,0,0,0,12.87,5.31,18,18,0,0,0,9.6-2.77,13.8,13.8,0,0,0,15.51.74,19.86,19.86,0,0,0,15.84,8.14,19.39,19.39,0,0,0,13.51-5.55,10.63,10.63,0,0,0,6.45,2.22,10.77,10.77,0,0,0,7.86-3.48,15.11,15.11,0,0,0,12.11,6.25,15.32,15.32,0,0,0,13.22-8,9.71,9.71,0,0,0,8.28,4.84,9.28,9.28,0,0,0,5.6-1.88,35.6,35.6,0,0,0,17.85,4.45c9.92,0,18.56-3.48,23-8.63a10.37,10.37,0,0,0,8.42,4.47,10.62,10.62,0,0,0,9.51-6.33,9.78,9.78,0,0,0,3.8.77,10.33,10.33,0,0,0,8.33-4.34,6.66,6.66,0,0,0,5.49,3,6.75,6.75,0,0,0,6-3.88l.54.06a6.5,6.5,0,0,0,4.89-2.24,4.06,4.06,0,0,0,5.89-.28,4,4,0,0,0,2.28.72,4.09,4.09,0,0,0,3.08-1.4H744c4.81,0,8.7-1.4,8.7-3.13S748.83,94,744,94Z"/><path class="cls-1" d="M639.48,62.88a4.1,4.1,0,0,0-5-1.46,3.75,3.75,0,0,0-3.37-2.28,3.66,3.66,0,0,0-2.69,1.21A6.64,6.64,0,0,0,623,57.47a6.38,6.38,0,0,0-2.2.43,6.88,6.88,0,0,0-6.37-4.74,6.7,6.7,0,0,0-5.64,3.23,10,10,0,0,0-6.13-2.12A9.91,9.91,0,0,0,599,55a8,8,0,0,0-7.45-5.73,7.4,7.4,0,0,0-3.44.89,8.16,8.16,0,0,0-7.82-7.42,7.43,7.43,0,0,0-4.55,1.58c-2-6.09-7.33-10.47-13.62-10.47a13.58,13.58,0,0,0-6.86,1.88,17.61,17.61,0,0,0-15.15-9.1A17.14,17.14,0,0,0,527.75,32a9.52,9.52,0,0,0-10.09,0c-1.46-6.59-6.91-11.43-13.39-11.43A12.8,12.8,0,0,0,498.48,22c-2.31-6-7.78-10.28-14.18-10.28a14.43,14.43,0,0,0-7.61,2.2C471.44,5.5,462.6,0,452.56,0c-11.46,0-21.35,7.19-26.12,17.63a14.15,14.15,0,0,0-4.33-.68c-6.36,0-11.82,4.13-14.26,10.05-3.54-2.1-8.54-2.73-13.7-1.35-6.17,1.65-10.9,5.72-12.64,10.27a9.9,9.9,0,0,0-2.85-.43,10.18,10.18,0,0,0-7.1,3A10.73,10.73,0,0,0,363.75,35c-5.63,0-10.28,4.49-11.11,10.35A9.86,9.86,0,0,0,344,40c-5.51,0-10,4.85-10,10.83V51c-15.56.85-27.27,4.55-27.27,9,0,4.19,10.54,7.74,24.9,8.82a9.44,9.44,0,0,0,8,4.65,9.24,9.24,0,0,0,6.71-3,12.78,12.78,0,0,0,11,6.65,12.38,12.38,0,0,0,8.9-3.85,10.68,10.68,0,0,0,9.65,6.63,10,10,0,0,0,5.32-1.55,8.86,8.86,0,0,0,7.12.82,16.68,16.68,0,0,0,3.17,1A18.47,18.47,0,0,0,403.92,85a18.9,18.9,0,0,0,15.29-8.09,18.49,18.49,0,0,0,12.87,5.31,18,18,0,0,0,9.6-2.77,13.82,13.82,0,0,0,15.51.74A19.86,19.86,0,0,0,473,88.33a19.5,19.5,0,0,0,13.51-5.55A10.61,10.61,0,0,0,493,85a10.79,10.79,0,0,0,7.86-3.48A15.1,15.1,0,0,0,513,87.77a15.34,15.34,0,0,0,13.22-8,9.71,9.71,0,0,0,8.28,4.84,9.28,9.28,0,0,0,5.6-1.88,35.68,35.68,0,0,0,17.85,4.45c9.92,0,18.56-3.48,23-8.63A10.38,10.38,0,0,0,589.33,83a10.62,10.62,0,0,0,9.51-6.33,9.7,9.7,0,0,0,3.8.77A10.4,10.4,0,0,0,611,73.12a6.67,6.67,0,0,0,5.49,3,6.78,6.78,0,0,0,6-3.88,5,5,0,0,0,.54.06,6.57,6.57,0,0,0,4.89-2.24,4.08,4.08,0,0,0,2.79,1.13,4.18,4.18,0,0,0,3.1-1.41,4,4,0,0,0,2.28.72,4.16,4.16,0,0,0,3.08-1.4h.31c4.81,0,8.7-1.4,8.7-3.13S644.28,62.89,639.48,62.88Z"/><path class="cls-1" d="M868.92,308.45a4.1,4.1,0,0,0-5-1.46,3.75,3.75,0,0,0-3.37-2.28,3.66,3.66,0,0,0-2.69,1.21,6.64,6.64,0,0,0-5.38-2.88,6.33,6.33,0,0,0-2.2.43,6.9,6.9,0,0,0-6.37-4.74,6.7,6.7,0,0,0-5.64,3.23,10,10,0,0,0-6.13-2.12,9.91,9.91,0,0,0-3.69.73,8,8,0,0,0-7.45-5.73,7.34,7.34,0,0,0-3.44.89,8.16,8.16,0,0,0-7.82-7.42,7.43,7.43,0,0,0-4.55,1.58c-2-6.09-7.33-10.47-13.62-10.47a13.65,13.65,0,0,0-6.86,1.88,17.64,17.64,0,0,0-15.15-9.1,17.13,17.13,0,0,0-12.37,5.36,9.52,9.52,0,0,0-10.09,0c-1.46-6.59-6.91-11.43-13.39-11.43a12.77,12.77,0,0,0-5.79,1.39c-2.31-6-7.78-10.28-14.18-10.28a14.4,14.4,0,0,0-7.61,2.2c-5.25-8.37-14.09-13.87-24.13-13.87-11.46,0-21.35,7.19-26.12,17.63a14.15,14.15,0,0,0-4.33-.68c-6.36,0-11.82,4.13-14.26,10.05-3.54-2.1-8.54-2.73-13.7-1.35-6.17,1.65-10.9,5.72-12.64,10.27a9.84,9.84,0,0,0-10,2.57,10.73,10.73,0,0,0-7.81-3.53c-5.63,0-10.28,4.49-11.11,10.35a9.86,9.86,0,0,0-8.6-5.34c-5.51,0-10,4.85-10,10.83v.19c-15.56.85-27.27,4.55-27.27,9,0,4.19,10.54,7.74,24.9,8.82a9.42,9.42,0,0,0,8,4.65,9.24,9.24,0,0,0,6.71-3,12.74,12.74,0,0,0,11,6.65,12.39,12.39,0,0,0,8.9-3.85,10.68,10.68,0,0,0,9.65,6.63,9.94,9.94,0,0,0,5.32-1.55,8.89,8.89,0,0,0,4.5,1.22,8.63,8.63,0,0,0,2.62-.4,16.68,16.68,0,0,0,3.17,1,18.42,18.42,0,0,0,12.38,4.84,18.9,18.9,0,0,0,15.29-8.09,18.49,18.49,0,0,0,12.87,5.31,18,18,0,0,0,9.6-2.77,13.82,13.82,0,0,0,15.51.74,19.86,19.86,0,0,0,15.84,8.14A19.52,19.52,0,0,0,716,328.35a10.59,10.59,0,0,0,6.45,2.22,10.79,10.79,0,0,0,7.86-3.48,15.1,15.1,0,0,0,12.11,6.25,15.36,15.36,0,0,0,13.22-8,9.7,9.7,0,0,0,8.28,4.84,9.3,9.3,0,0,0,5.6-1.88,35.68,35.68,0,0,0,17.85,4.45c9.92,0,18.56-3.48,23-8.63a10.37,10.37,0,0,0,8.42,4.47,10.62,10.62,0,0,0,9.51-6.33,9.7,9.7,0,0,0,3.8.77,10.4,10.4,0,0,0,8.33-4.34,6.67,6.67,0,0,0,5.49,3,6.78,6.78,0,0,0,6-3.88l.54.06a6.57,6.57,0,0,0,4.89-2.24,4.08,4.08,0,0,0,2.79,1.13,4.2,4.2,0,0,0,3.1-1.41,4,4,0,0,0,2.28.72,4.16,4.16,0,0,0,3.08-1.4h.31c4.81,0,8.7-1.4,8.7-3.13S873.72,308.46,868.92,308.45Z"/><rect class="cls-2" x="451.52" y="427.68" width="11.72" height="426"/><g id="Layer_1-2-2" data-name="Layer 1-2"><path class="cls-3" d="M629.51,222c6.25,6.49,9.55,15.39,9.55,25.72s-3.3,19.23-9.55,25.72C622.88,280.29,616,286,603.31,286h-1.22c11.89,6.43,15.08,15,17.44,24.62,2.17,8.75.58,18.1-4.59,27.05s-12.47,15-21.13,17.5a47.36,47.36,0,0,1-13.31,2.3,31,31,0,0,1-16.74-5.09c7.09,11.51,5.53,20.57,2.8,30-2.5,8.65-8.55,16-17.5,21.13a38.7,38.7,0,0,1-19.31,5.53,31.54,31.54,0,0,1-7.74-.94c-9.58-2.37-18.2-5.56-24.63-17.46.38,13.52-5.49,20.6-12.6,27.43-6.49,6.23-15.39,9.53-25.72,9.53s-19.23-3.3-25.72-9.55c-7.11-6.83-13-13.91-12.6-27.43-6.43,11.9-15.06,15.09-24.63,17.46a31.62,31.62,0,0,1-7.75.94,38.66,38.66,0,0,1-19.3-5.53c-9-5.17-15-12.48-17.5-21.13-2.74-9.48-4.29-18.54,2.79-30.05-6.13,3.77-11.56,5.09-16.73,5.09a47.56,47.56,0,0,1-13.32-2.3c-8.65-2.5-16-8.55-21.13-17.5s-6.75-18.3-4.59-27c2.37-9.57,5.55-18.19,17.44-24.62H314.8c-12.72,0-19.57-5.74-26.2-12.63-6.24-6.52-9.54-15.41-9.54-25.75s3.3-19.23,9.54-25.72c6.84-7.11,13.92-13,27.43-12.6-11.9-6.43-15.08-15.05-17.45-24.63-2.16-8.74-.58-18.1,4.59-27s12.48-15,21.13-17.55c9.48-2.74,18.54-4.29,30.05,2.79-7.08-11.51-5.53-20.57-2.79-30,2.49-8.66,8.55-16,17.5-21.13s18.3-6.76,27.05-4.6c9.57,2.37,18.2,5.56,24.63,17.46-.38-13.52,5.49-20.59,12.6-27.43,6.49-6.29,15.38-9.59,25.72-9.59s19.23,3.3,25.72,9.55c7.11,6.84,13,13.91,12.6,27.43,6.43-11.9,15-15.09,24.63-17.46,8.74-2.16,18.1-.57,27,4.6s15,12.47,17.5,21.13c2.73,9.47,4.29,18.53-2.8,30,11.52-7.08,20.58-5.53,30-2.79,8.66,2.5,16,8.55,21.13,17.5s6.76,18.31,4.59,27.05c-2.37,9.58-5.55,18.2-17.45,24.63C615.6,209,622.67,214.85,629.51,222Zm6,25.72c0-9.41-3-17.47-8.56-23.29-8.51-8.84-16.77-15.13-38.89-9.27l-49,13.11a81.86,81.86,0,0,1,2.32,18.17V249a81.62,81.62,0,0,1-2.32,18.16l49.08,13.12c22.11,5.86,30.37-.44,38.88-9.28,5.57-5.82,8.53-13.88,8.53-23.29Zm-19.42-63.79c1.95-7.85.48-16.31-4.22-24.46s-11.3-13.64-19.07-15.88c-11.74-3.41-22-4.73-38.27,11.41l-35.94,35.89a81.45,81.45,0,0,1,16.18,24.63c.11.24.2.47.3.71l.3.72c1,2.51,1.9,5.06,2.66,7.63l49-13.18c22.12-6,26.13-15.57,29.07-27.47Zm-4.22,152c4.7-8.15,6.17-16.61,4.22-24.46-2.94-11.9-7-21.48-29-27.47l-49-13.14c-.76,2.58-1.64,5.12-2.66,7.63l-.3.72c-.1.24-.19.48-.3.71a81.21,81.21,0,0,1-16.18,24.63l35.94,35.9c16.23,16.13,26.53,14.81,38.31,11.41,7.74-2.24,14.33-7.74,19-15.89ZM551.78,152.2c16.13-16.22,14.81-26.52,11.41-38.3-2.24-7.77-7.73-14.36-15.88-19.07s-16.61-6.15-24.46-4.23c-11.91,3-21.49,7-27.47,29l-13.19,49.08q3.87,1.14,7.64,2.67l.71.29.72.31a81.7,81.7,0,0,1,24.63,16.18Zm11.41,229.27c3.4-11.79,4.72-22.09-11.41-38.31l-35.89-36a81,81,0,0,1-20.29,14.21h0c-.73.36-1.47.7-2.21,1s-1.73.77-2.61,1.13l-.53.22-.86.34q-3.54,1.41-7.17,2.49l13.16,49.13c6,22.08,15.56,26.09,27.47,29,7.85,1.94,16.3.48,24.46-4.23S561,389.23,563.19,381.47ZM537.83,247.68a79.71,79.71,0,0,0-.88-11.75,3.5,3.5,0,0,0-.07-.45l-.18-1.1-.21-1.16a1.86,1.86,0,0,0-.08-.41c-.36-1.84-.78-3.67-1.27-5.51-.33-1.25-.7-2.49-1.09-3.71l-.06-.19c-.15-.48-.31-1-.48-1.43-.1-.31-.21-.62-.32-.92s-.15-.42-.23-.62a79.23,79.23,0,0,0-33.35-40.25l-1.52-.89-.5-.28c-.58-.33-1.16-.64-1.74-1l-.33-.17c-.7-.37-1.41-.72-2.12-1.06l-.34-.1-1.82-.84-.53-.23q-.9-.41-1.83-.78l-.32-.13c-.73-.29-1.46-.58-2.19-.85l-.31-.17c-.61-.22-1.21-.44-1.82-.64l-.57-.19c-.64-.21-1.27-.41-1.91-.6l-.31-.09c-.74-.22-1.49-.43-2.24-.63l-.46-.12-1.81-.44-.61-.14c-.65-.15-1.31-.29-2-.42l-.29-.06c-.76-.15-1.52-.28-2.28-.41l-.53-.08c-.6-.1-1.19-.18-1.79-.26l-.64-.09-2-.23h-.27c-.77-.08-1.53-.14-2.3-.19h-.59l-1.76-.08h-5.63l-1.69.08h-.65l-2.26.18h-.37l-1.91.22-.71.09-1.68.25-.63.1-2.22.39-.43.09c-.61.12-1.21.25-1.81.39l-.71.16c-.56.13-1.11.26-1.66.41l-.59.15c-.73.19-1.45.39-2.17.6l-.49.15-1.7.54-.7.23-1.63.57-.55.2c-.71.26-1.4.53-2.1.81l-.51.21c-.54.23-1.08.45-1.61.69l-.69.3-1.58.73-.51.24c-.68.33-1.35.66-2,1l-.53.28-1.52.82-.65.37c-.41.23-.82.48-1.22.72a78.74,78.74,0,0,0-38.2,61.82c-.14,1.93-.22,3.87-.22,5.81a78.79,78.79,0,0,0,51.5,73.91l.61.22.93.33,1.42.47.19.07c1.23.39,2.46.75,3.71,1.09q2.76.75,5.54,1.27l.36.07,1.21.22,1.05.17.5.08c2.53.37,5.09.64,7.68.77,1.34.07,2.69.1,4.05.1a79.33,79.33,0,0,0,11.73-.87l.49-.08,1.06-.18,1.2-.21L474,325c1.85-.36,3.7-.78,5.53-1.27.64-.17,1.27-.35,1.9-.54l1.81-.55.19-.06,1.43-.48.92-.33.62-.22A79.14,79.14,0,0,0,533,274.87c.08-.21.15-.42.23-.62s.22-.62.32-.93c.17-.47.33-1,.48-1.43l.06-.18c.39-1.23.76-2.46,1.09-3.71q.75-2.73,1.27-5.52a.72.72,0,0,1,.08-.4l.21-1.16.18-1.11a1,1,0,0,1,.07-.44A78.77,78.77,0,0,0,537.83,247.68Zm-46.21-129c5.86-22.11-.43-30.37-9.27-38.88-5.83-5.65-13.88-8.62-23.29-8.62s-17.47,3-23.3,8.57c-8.83,8.51-15.13,16.77-9.27,38.89l13.11,49a81.77,81.77,0,0,1,18.16-2.32h2.57a81.29,81.29,0,0,1,18.18,2.32Zm-9.27,297c8.84-8.5,15.13-16.76,9.27-38.88l-13.11-49.12A80.89,80.89,0,0,1,461.06,330h-4a81,81,0,0,1-17.46-2.28l-13.11,49.08c-5.86,22.12.44,30.38,9.27,38.88,5.83,5.61,13.88,8.57,23.3,8.57s17.46-3,23.29-8.6Zm-46.43-247-13.19-49c-6-22.08-15.56-26.09-27.47-29-7.84-1.94-16.3-.48-24.45,4.23s-13.65,11.22-15.89,19c-3.4,11.78-4.72,22.08,11.41,38.31l35.89,35.94A81.86,81.86,0,0,1,426.85,172l.72-.29.72-.3C430.81,170.35,433.35,169.46,435.92,168.68Zm-13.18,207,13.18-49c-2.43-.72-4.82-1.55-7.19-2.5l-.83-.32-.55-.23a81.34,81.34,0,0,1-25.13-16.4l-35.89,36c-16.13,16.15-14.81,26.45-11.41,38.24,2.24,7.76,7.74,14.36,15.89,19.06s16.61,6.17,24.45,4.23C407.17,401.81,416.75,397.8,422.74,375.68ZM399.53,190.85,363.58,155c-16.22-16.14-26.52-14.82-38.31-11.41-7.76,2.24-14.36,7.73-19.06,15.88S300.06,176,302,183.89c2.95,11.9,7,21.49,29,27.47l49.08,13.19c.11-.39.23-.77.35-1.16.06-.21.13-.42.2-.62.14-.46.29-.91.44-1.36a1.69,1.69,0,0,1,.13-.4c.18-.52.37-1,.56-1.56v-.12a82.66,82.66,0,0,1,6-12.78l.16-.27c.3-.52.6-1,.91-1.53l.22-.36c.3-.48.6-1,.91-1.44l.08-.12A84.38,84.38,0,0,1,399.53,190.85ZM363.58,340.41l36-35.9a82.89,82.89,0,0,1-17.7-28.46v-.14c-.19-.51-.37-1-.55-1.55a1.66,1.66,0,0,0-.14-.41c-.15-.45-.3-.89-.44-1.34-.07-.21-.14-.43-.2-.64-.12-.39-.24-.77-.35-1.15h0L331.06,284c-22.09,6-26.09,15.57-29,27.47-1.94,7.85-.48,16.31,4.23,24.46s11.3,13.65,19.06,15.89C337.06,355.22,347.36,356.54,363.58,340.41Zm15.25-111c.09-.4.19-.79.28-1.18l-49.05-13.11c-22.12-5.86-30.38.43-38.88,9.27-5.66,5.82-8.62,13.88-8.62,23.29s3,17.47,8.57,23.29c8.5,8.84,16.76,15.14,38.88,9.28l49.1-13.12c-.09-.4-.19-.79-.28-1.19a3.22,3.22,0,0,0-.13-.6c-.1-.48-.21-.95-.3-1.43a.66.66,0,0,0-.08-.38c-.1-.55-.21-1.11-.31-1.67v-.09a82.75,82.75,0,0,1,0-28.17v-.1c.1-.56.2-1.11.31-1.66a.69.69,0,0,1,.08-.39c.09-.47.19-1,.3-1.42,0-.2.09-.41.13-.61Z"/><path class="cls-4" d="M627,224.39c5.6,5.82,8.56,13.88,8.56,23.29s-3,17.47-8.56,23.29c-8.51,8.84-16.77,15.14-38.88,9.28l-49.05-13.12A81.62,81.62,0,0,0,541.38,249V246.4a81.86,81.86,0,0,0-2.32-18.17l49-13.11C610.22,209.26,618.48,215.55,627,224.39Z"/><path class="cls-5" d="M611.91,159.43c4.7,8.15,6.17,16.61,4.22,24.46-2.94,11.9-7,21.49-29,27.47l-49.07,13.18c-.76-2.57-1.64-5.12-2.66-7.63l-.3-.72c-.1-.24-.19-.47-.3-.71a81.45,81.45,0,0,0-16.18-24.63L554.56,155c16.2-16.14,26.5-14.82,38.28-11.41C600.61,145.79,607.2,151.28,611.91,159.43Z"/><path class="cls-6" d="M616.13,311.47c2,7.85.48,16.31-4.22,24.46s-11.3,13.65-19.07,15.89c-11.78,3.4-22.08,4.72-38.31-11.41l-35.94-35.9a81.21,81.21,0,0,0,16.18-24.63c.11-.23.2-.47.3-.71l.3-.72c1-2.51,1.9-5.05,2.66-7.63l49,13.18C609.18,290,613.19,299.57,616.13,311.47Z"/><path class="cls-7" d="M563.19,113.9c3.4,11.78,4.72,22.08-11.41,38.3l-35.89,36A81.7,81.7,0,0,0,491.26,172l-.72-.31-.71-.29q-3.76-1.53-7.64-2.67l13.19-49.07c6-22.08,15.56-26.09,27.47-29,7.85-1.94,16.3-.48,24.46,4.23S561,106.13,563.19,113.9Z"/><path class="cls-8" d="M551.78,343.16c16.13,16.22,14.81,26.52,11.41,38.31-2.24,7.76-7.73,14.36-15.88,19.06s-16.61,6.17-24.46,4.23c-11.91-2.95-21.49-7-27.47-29l-13.19-49.08q3.63-1.08,7.17-2.49l.86-.34.53-.22c.88-.36,1.75-.74,2.61-1.13s1.48-.68,2.21-1h0a81,81,0,0,0,20.29-14.21Z"/><path class="cls-9" d="M537,235.93a79.17,79.17,0,0,1,0,23.51,3.64,3.64,0,0,1-.07.44L536.7,261l-.21,1.16a1.89,1.89,0,0,1-.08.4q-.54,2.77-1.27,5.52c-.33,1.25-.7,2.48-1.09,3.71L534,272c-.15.48-.31,1-.48,1.43s-.21.62-.32.93-.15.41-.23.62a79.14,79.14,0,0,1-46.65,46.65l-.62.22-.92.33-1.43.48-.19.06-1.81.55c-.63.19-1.26.37-1.9.54-1.83.49-3.68.91-5.53,1.27l-.37.07-1.2.21-1.06.18-.49.08a79.33,79.33,0,0,1-11.73.87c-1.36,0-2.71,0-4.05-.1-2.59-.13-5.15-.4-7.68-.77l-.5-.08-1.05-.17-1.21-.22-.36-.07q-2.77-.54-5.54-1.27c-1.25-.34-2.48-.7-3.71-1.09l-.19-.07-1.42-.47-.93-.33-.61-.22a78.79,78.79,0,0,1-51.5-73.91c0-1.94.08-3.88.22-5.81a78.74,78.74,0,0,1,38.2-61.82c.4-.24.81-.49,1.22-.72l.65-.37,1.52-.82.53-.28c.66-.35,1.33-.68,2-1l.51-.24,1.58-.73.69-.3c.53-.24,1.07-.46,1.61-.69l.51-.21c.7-.28,1.39-.55,2.1-.81l.55-.2,1.63-.57.7-.23,1.7-.54.49-.15c.72-.21,1.44-.41,2.17-.6l.59-.15c.55-.15,1.1-.28,1.66-.41l.71-.16c.6-.14,1.2-.27,1.81-.39l.43-.09,2.22-.39.63-.1,1.68-.25.71-.09,1.91-.22h.37l2.26-.18h.65l1.69-.08h5.61l1.76.08h.59a22.28,22.28,0,0,1,2.3.19h.27l2,.23.64.09c.6.08,1.19.16,1.79.26l.53.08c.76.13,1.52.26,2.28.41l.29.06,2,.42.61.14,1.81.44.46.12c.75.2,1.5.41,2.24.63l.31.09c.64.19,1.27.39,1.91.6l.57.19c.61.2,1.21.42,1.82.64l.38.13c.73.27,1.46.56,2.19.85l.32.13,1.83.78.53.23,1.81.81.3.15c.71.34,1.42.69,2.12,1.06l.33.17c.58.31,1.16.62,1.74,1l.5.28,1.52.89a79.23,79.23,0,0,1,33.35,40.25c.08.2.15.41.23.62s.22.61.32.92c.17.48.33,1,.48,1.43l.06.19c.39,1.22.76,2.46,1.09,3.71q.75,2.75,1.27,5.51a.77.77,0,0,0,.08.41l.21,1.16.18,1.1A2,2,0,0,1,537,235.93Zm-19,3.36.21-1.34-1.25-.54c-.25-.11-25.24-10.65-58.52-10.65s-58.28,10.54-58.53,10.65l-1.25.54.21,1.34c4.81,30.91,29.89,64,59.57,64s54.76-33.09,59.57-64ZM494.1,216.43c3.45-2.09,3.73-7.94.63-13.07s-8.41-7.59-11.86-5.5-3.74,7.94-.64,13.07,8.43,7.59,11.88,5.5Zm-59.55-5.5c3.1-5.13,2.82-11-.63-13.07s-8.76.38-11.87,5.5-2.82,11,.64,13.07,8.77-.38,11.87-5.5Z"/><path class="cls-3" d="M518.17,238l-.21,1.34c-4.81,30.91-29.89,64-59.56,64s-54.76-33.1-59.57-64l-.21-1.34,1.25-.54c.25-.11,25.24-10.65,58.53-10.65s58.27,10.54,58.52,10.65Zm-23.43,42.73a85.26,85.26,0,0,0,19.53-40.58,163.21,163.21,0,0,0-111.75,0,85.27,85.27,0,0,0,19.54,40.58c10.81,12.31,23.72,19.09,36.35,19.09S483.93,293,494.74,280.68Z"/><path class="cls-10" d="M514.27,240.13a85.29,85.29,0,0,1-19.53,40.55C483.93,293,471,299.77,458.4,299.77s-25.54-6.75-36.34-19.09a85.38,85.38,0,0,1-19.53-40.59,163.21,163.21,0,0,1,111.75,0Z"/><path class="cls-3" d="M494.74,203.36c3.1,5.13,2.82,11-.63,13.07s-8.76-.38-11.87-5.5-2.82-11,.64-13.07S491.64,198.24,494.74,203.36Zm-.83,11.86c1.15-.38,1.64-2,1.1-3.69s-1.92-2.69-3.08-2.32-1.64,2-1.1,3.69,1.93,2.7,3.08,2.32Zm-7.16-8.14c1.56-.51,2.19-2.87,1.4-5.27s-2.69-3.93-4.26-3.42-2.19,2.88-1.4,5.28,2.7,3.93,4.26,3.41Z"/><path class="cls-1" d="M495.06,211.53c.54,1.66.05,3.31-1.1,3.69s-2.53-.66-3.08-2.32-.05-3.31,1.1-3.69S494.46,209.87,495.06,211.53Z"/><path class="cls-11" d="M482.35,79.75c8.84,8.51,15.13,16.77,9.27,38.88l-13.11,49.05a81.29,81.29,0,0,0-18.18-2.32h-2.57a81.77,81.77,0,0,0-18.16,2.32l-13.11-49c-5.86-22.12.44-30.38,9.27-38.89,5.83-5.6,13.88-8.57,23.3-8.57S476.52,74.15,482.35,79.75Z"/><path class="cls-12" d="M491.62,376.73c5.86,22.12-.43,30.38-9.27,38.88-5.83,5.61-13.88,8.57-23.29,8.57s-17.47-3-23.3-8.57c-8.83-8.5-15.13-16.76-9.27-38.88l13.11-49.05A81,81,0,0,0,457.06,330h4a80.89,80.89,0,0,0,17.45-2.28Z"/><path class="cls-1" d="M488.15,201.81c.79,2.4.16,4.76-1.4,5.27s-3.47-1-4.26-3.41-.16-4.76,1.4-5.28S487.36,199.41,488.15,201.81Z"/><path class="cls-13" d="M422.73,119.68l13.19,49q-3.87,1.14-7.63,2.67l-.72.3-.72.29a81.86,81.86,0,0,0-24.63,16.19l-35.89-35.92C350.2,136,351.52,125.68,354.92,113.9c2.24-7.77,7.74-14.36,15.89-19.07s16.61-6.15,24.45-4.23C407.17,93.55,416.75,97.56,422.73,119.68Z"/><path class="cls-14" d="M435.92,326.68l-13.18,49c-6,22.08-15.57,26.09-27.48,29-7.84,1.94-16.3.48-24.45-4.23s-13.65-11.3-15.89-19.06c-3.4-11.79-4.72-22.09,11.41-38.31l35.89-36a81.34,81.34,0,0,0,25.13,16.4l.55.23.83.32A55.42,55.42,0,0,0,435.92,326.68Z"/><path class="cls-3" d="M433.93,197.86c3.45,2.09,3.73,7.94.63,13.07s-8.41,7.59-11.86,5.5-3.74-7.94-.64-13.07S430.48,195.77,433.93,197.86Zm.38,5.81c.79-2.4.16-4.76-1.4-5.28s-3.47,1-4.26,3.42-.16,4.76,1.4,5.27,3.47-1,4.26-3.4ZM426,212.9c.55-1.66,0-3.31-1.1-3.69s-2.53.66-3.07,2.32-.05,3.31,1.1,3.69,2.53-.66,3.07-2.32Z"/><path class="cls-1" d="M432.91,198.39c1.56.52,2.19,2.88,1.4,5.28s-2.69,3.93-4.26,3.41-2.19-2.87-1.4-5.27S431.35,197.88,432.91,198.39Z"/><path class="cls-1" d="M424.87,209.21c1.15.38,1.65,2,1.1,3.69s-1.92,2.7-3.07,2.32-1.65-2-1.1-3.69S423.72,208.84,424.87,209.21Z"/><path class="cls-15" d="M363.58,155l36,35.89a83.37,83.37,0,0,0-9.44,12l-.08.12c-.31.48-.61,1-.91,1.44l-.22.36c-.31.5-.61,1-.91,1.53l-.16.27a82.66,82.66,0,0,0-6,12.78v.12c-.19.52-.38,1-.56,1.56a1.44,1.44,0,0,1-.13.4c-.15.45-.3.9-.44,1.36-.07.2-.14.41-.2.62-.12.39-.24.77-.35,1.16l-49.12-13.21c-22.09-6-26.09-15.57-29-27.47-1.94-7.85-.48-16.31,4.23-24.46s11.3-13.64,19.06-15.88C337.06,140.14,347.36,138.82,363.58,155Z"/><path class="cls-16" d="M399.53,304.51l-35.95,35.9c-16.22,16.13-26.52,14.81-38.31,11.41-7.76-2.24-14.36-7.74-19.06-15.89s-6.15-16.61-4.23-24.46c2.95-11.9,7-21.48,29-27.47l49.08-13.19h0c.11.38.23.76.35,1.15.06.21.13.43.2.64.14.45.29.89.44,1.34a1.33,1.33,0,0,0,.14.41c.18.52.36,1,.55,1.55V276a82.89,82.89,0,0,0,17.7,28.46Z"/><path class="cls-17" d="M379.11,228.24c-.09.39-.19.78-.28,1.18a3.32,3.32,0,0,1-.13.61c-.11.47-.21,1-.3,1.42a.69.69,0,0,1-.08.39c-.11.55-.21,1.1-.31,1.66v.1a82.75,82.75,0,0,0,0,28.17v.09c.1.56.21,1.12.31,1.67a.66.66,0,0,0,.08.38c.09.48.2,1,.3,1.43a3.22,3.22,0,0,0,.13.6c.09.4.19.79.28,1.19l-49.05,13.12c-22.12,5.86-30.38-.44-38.88-9.28-5.66-5.82-8.62-13.88-8.62-23.29s3-17.47,8.57-23.29c8.5-8.84,16.76-15.13,38.88-9.27Z"/></g><rect class="cls-18" x="451.52" y="427.68" width="3.42" height="426"/><rect class="cls-18" x="463.24" y="427.68" width="3.42" height="426"/><path class="cls-19" d="M605.05,612.9c-17.5,11.63-34.27,24.6-52.74,34.42-12.16,6.46-26.76,8.4-40.26,12.36l-3.12.33-4.45.18-3.42.21-2.11.65-2.33,0-11,.07-6.15-.43-.55-1.35c6.39-2.64,12.76-5.33,19.17-7.9q51.8-20.71,103.6-41.36c2.16-.87,4.34-1.66,6.52-2.48l.42,2.44Z"/><path class="cls-20" d="M602.64,603.92,481,652.34C512.8,615,555.2,603.37,602.64,603.92Z"/><path class="cls-21" d="M624.48,595.06c-21.3,1.91-42.72,3.08-63.85,6.15-32.07,4.67-59,20-81.78,42.55-2.78,2.75-4.92,6.13-7.36,9.22l-1.22,1.57-1.66,1-1.29.53.16.15q-.42,2.81-.82,5.61l.38.18c-.13.3-.24.61-.38.94l43.13.73,4.67-.34,6-1.22,1.35-.22.27.08a27.65,27.65,0,0,0,3.77-.26c33.11-6.88,59.53-25.44,84.14-47.16l-2-.8,0,0-3,0-.6-.53c-17.21,11.42-33.71,24.14-51.88,33.79-11.89,6.3-26.16,8.22-39.39,12.07l-.22-.07-3.07.32-4.37.18-3.37.21-2.08.63-2.29-.05-10.83.07-6.06-.42-.54-1.32c6.29-2.59,12.55-5.24,18.86-7.76q51-20.34,101.91-40.6c2.13-.85,4.28-1.62,6.42-2.43l.42,2.39h0l-3.51,2.86.6.53h3l0,0,2,.8.12-.19,4.12-3.54,0,0c.53-.46,1.06-.92,1.6-1.37l2-1.59,13.2-11C627.56,595.82,626,594.93,624.48,595.06ZM481,652.34c31.83-37.31,74.23-49,121.67-48.42Z"/><path class="cls-1" d="M332.71,124.06a4.07,4.07,0,0,0-5-1.46,3.75,3.75,0,0,0-3.37-2.28,3.6,3.6,0,0,0-2.69,1.21,6.61,6.61,0,0,0-5.38-2.88,6.15,6.15,0,0,0-2.2.43,6.88,6.88,0,0,0-6.37-4.74,6.7,6.7,0,0,0-5.64,3.23,10,10,0,0,0-6.13-2.12,9.71,9.71,0,0,0-3.69.73,8,8,0,0,0-7.45-5.73,7.28,7.28,0,0,0-3.44.89,8.16,8.16,0,0,0-7.82-7.42A7.37,7.37,0,0,0,269,105.5C267,99.41,261.65,95,255.36,95a13.48,13.48,0,0,0-6.86,1.88,17.57,17.57,0,0,0-15.15-9.1A17.11,17.11,0,0,0,221,93.17a9.47,9.47,0,0,0-10.09,0c-1.46-6.59-6.91-11.43-13.39-11.43a12.67,12.67,0,0,0-5.79,1.39c-2.31-6-7.78-10.28-14.18-10.28a14.34,14.34,0,0,0-7.61,2.2c-5.25-8.37-14.09-13.87-24.13-13.87-11.46,0-21.35,7.19-26.12,17.63a14.15,14.15,0,0,0-4.33-.68c-6.36,0-11.82,4.13-14.26,10.05-3.54-2.1-8.54-2.73-13.7-1.35-6.17,1.65-10.9,5.72-12.64,10.27a9.79,9.79,0,0,0-2.85-.43,10.14,10.14,0,0,0-7.1,3A10.73,10.73,0,0,0,57,96.14c-5.63,0-10.28,4.49-11.11,10.35a9.86,9.86,0,0,0-8.6-5.34c-5.51,0-10,4.85-10,10.83v.19C11.71,113,0,116.72,0,121.17c0,4.19,10.54,7.74,24.9,8.82a9.44,9.44,0,0,0,8,4.65,9.24,9.24,0,0,0,6.71-3,12.78,12.78,0,0,0,11,6.65,12.46,12.46,0,0,0,8.9-3.85,10.7,10.7,0,0,0,9.65,6.63,10.11,10.11,0,0,0,5.32-1.55,9.12,9.12,0,0,0,4.5,1.22,9,9,0,0,0,2.62-.4,17.43,17.43,0,0,0,3.17,1,18.49,18.49,0,0,0,12.38,4.84,18.93,18.93,0,0,0,15.29-8.09,18.54,18.54,0,0,0,12.87,5.31,18.2,18.2,0,0,0,9.6-2.77,13.83,13.83,0,0,0,15.51.74,19.89,19.89,0,0,0,15.84,8.14A19.5,19.5,0,0,0,179.77,144a10.56,10.56,0,0,0,14.31-1.26A15.17,15.17,0,0,0,206.19,149a15.34,15.34,0,0,0,13.22-8,9.75,9.75,0,0,0,8.28,4.84,9.41,9.41,0,0,0,5.6-1.88,35.78,35.78,0,0,0,17.85,4.45c9.92,0,18.56-3.48,23-8.63a10.42,10.42,0,0,0,8.42,4.47,10.66,10.66,0,0,0,9.51-6.33,10.07,10.07,0,0,0,3.8.77,10.4,10.4,0,0,0,8.33-4.34,6.55,6.55,0,0,0,11.49-.88,5,5,0,0,0,.54.06,6.57,6.57,0,0,0,4.89-2.24,4.13,4.13,0,0,0,2.79,1.13A4.18,4.18,0,0,0,327,131a4.11,4.11,0,0,0,2.28.72,4.16,4.16,0,0,0,3.08-1.4h.31c4.81,0,8.7-1.4,8.7-3.13S337.51,124.07,332.71,124.06Z"/><path class="cls-19" d="M605.05,479.36C587.55,491,570.78,504,552.31,513.77c-12.16,6.46-26.76,8.4-40.26,12.36l-3.12.33-4.45.18-3.42.22-2.11.64-2.33,0-11,.07-6.15-.42-.55-1.36c6.39-2.63,12.76-5.33,19.17-7.9q51.8-20.72,103.6-41.36c2.16-.86,4.34-1.66,6.52-2.48l.42,2.44Z"/><path class="cls-20" d="M602.64,470.37,481,518.79C512.8,481.48,555.2,469.82,602.64,470.37Z"/><path class="cls-21" d="M624.48,461.52c-21.3,1.9-42.72,3.07-63.85,6.14-32.07,4.67-59,20-81.78,42.55-2.78,2.75-4.92,6.13-7.36,9.22L470.27,521l-1.66,1-1.29.53.16.16q-.42,2.79-.82,5.6l.38.18c-.13.3-.24.61-.38.95l43.13.72,4.67-.34,6-1.21,1.35-.23.27.08a26.14,26.14,0,0,0,3.77-.26C559,521.28,585.37,502.72,610,481l-2-.8,0,0h-3l-.6-.53c-17.21,11.41-33.71,24.13-51.88,33.78-11.89,6.3-26.16,8.22-39.39,12.07l-.22-.07-3.07.32-4.37.18-3.37.21-2.08.63-2.29,0-10.83.07-6.06-.42-.54-1.32c6.29-2.59,12.55-5.24,18.86-7.76Q550,497,601,476.73c2.13-.85,4.28-1.62,6.42-2.43l.42,2.39h0l-3.51,2.86.6.53,3,0,0,0,2,.8.12-.19,4.12-3.54,0,0,1.6-1.37,2-1.59,13.2-11C627.56,462.27,626,461.38,624.48,461.52ZM481,518.79c31.83-37.31,74.23-49,121.67-48.42Z"/><path class="cls-19" d="M313.13,611.66c17.5,11.63,34.27,24.6,52.75,34.42,12.15,6.46,26.75,8.4,40.26,12.36l3.11.33,4.45.18,3.43.21,2.11.65,2.32,0,11,.07,6.16-.42.54-1.36c-6.39-2.64-12.75-5.33-19.17-7.9q-51.78-20.71-103.59-41.36c-2.16-.87-4.35-1.66-6.52-2.48-.15.81-.29,1.62-.43,2.44Z"/><path class="cls-20" d="M315.54,602.68,437.21,651.1C405.39,613.79,363,602.13,315.54,602.68Z"/><path class="cls-21" d="M293.7,593.83c21.3,1.9,42.72,3.07,63.86,6.14,32.07,4.67,59,20,81.77,42.55,2.78,2.75,4.93,6.13,7.36,9.22l1.22,1.57,1.66,1,1.3.53-.16.16.81,5.6-.37.18.37.94-43.13.73-4.66-.34-6-1.21-1.35-.23-.28.08a27.65,27.65,0,0,1-3.77-.26c-33.1-6.88-59.53-25.44-84.13-47.16l2-.8,0,0h3l.6-.53c17.21,11.41,33.72,24.13,51.89,33.78,11.89,6.3,26.16,8.22,39.38,12.07l.22-.07,3.07.32,4.38.18,3.37.21,2.07.63,2.29,0,10.84.07,6.05-.42.54-1.32c-6.28-2.59-12.54-5.24-18.86-7.76Q368.16,629.32,317.19,609c-2.12-.85-4.27-1.62-6.41-2.43l-.42,2.39h0l3.5,2.86-.6.53-3,0,0,0-2,.8-.13-.19L304,609.45l0,0-1.59-1.37-2-1.59-13.2-11C290.63,594.58,292.21,593.69,293.7,593.83ZM437.21,651.1c-31.82-37.31-74.23-49-121.67-48.42Z"/><path class="cls-19" d="M313.13,479.36C330.63,491,347.4,504,365.88,513.77c12.15,6.46,26.75,8.4,40.26,12.36l3.11.33,4.45.18,3.43.22,2.11.64,2.32,0,11,.07,6.16-.42.54-1.36c-6.39-2.63-12.75-5.33-19.17-7.9q-51.78-20.72-103.59-41.36c-2.16-.86-4.35-1.66-6.52-2.48-.15.81-.29,1.63-.43,2.44Q311.36,477.9,313.13,479.36Z"/><path class="cls-20" d="M315.54,470.37l121.67,48.42C405.39,481.48,363,469.82,315.54,470.37Z"/><path class="cls-21" d="M293.7,461.52c21.3,1.9,42.72,3.07,63.86,6.14,32.07,4.67,59,20,81.77,42.55,2.78,2.75,4.93,6.13,7.36,9.22l1.22,1.57,1.66,1,1.3.53-.16.16.81,5.6-.37.18.37.95-43.13.72-4.66-.34-6-1.21-1.35-.23-.28.08a26.14,26.14,0,0,1-3.77-.26c-33.1-6.88-59.53-25.44-84.13-47.16l2-.8,0,0h3l.6-.53c17.21,11.41,33.72,24.13,51.89,33.78,11.89,6.3,26.16,8.22,39.38,12.07l.22-.07,3.07.32,4.38.18,3.37.21,2.07.63,2.29,0,10.84.07,6.05-.42.54-1.32c-6.28-2.59-12.54-5.24-18.86-7.76Q368.16,497,317.19,476.73c-2.12-.85-4.27-1.62-6.41-2.43l-.42,2.39h0l3.5,2.86-.6.53-3,0,0,0-2,.8-.13-.19L304,477.14l0,0-1.59-1.37-2-1.59c-4-3.31-7.93-6.62-13.2-11C290.63,462.27,292.21,461.38,293.7,461.52Zm143.51,57.27c-31.82-37.31-74.23-49-121.67-48.42Z"/></g></g></svg>