<?xml version="1.0" encoding="utf-8"?>
<!-- Generator: Adobe Illustrator 23.0.3, SVG Export Plug-In . SVG Version: 6.00 Build 0)  -->
<svg version="1.1" id="Layer_1" xmlns="http://www.w3.org/2000/svg" xmlns:xlink="http://www.w3.org/1999/xlink" x="0px" y="0px"
	 viewBox="0 0 422.9 844.5" style="enable-background:new 0 0 422.9 844.5;" xml:space="preserve">
<style type="text/css">
	.st0{fill:#0C8252;}
	.st1{fill:#A5C96E;}
	.st2{fill:#99A4CD;}
	.st3{fill:#4C3A88;}
	.st4{fill:#1F776F;}
	.st5{fill:#FEBE4E;}
	.st6{fill:#F78F42;}
	.st7{fill:#FCEF56;}
	.st8{fill:#F15A42;}
	.st9{fill:#A2CF62;}
	.st10{fill:#FCEE23;}
	.st11{fill:#231F20;}
	.st12{fill:#ED2025;}
	.st13{fill:#FFFFFF;}
	.st14{fill:#EC5AA0;}
	.st15{fill:#1AAF69;}
	.st16{fill:#A155A1;}
	.st17{fill:#01B5AC;}
	.st18{fill:#524FA1;}
	.st19{fill:#2DB6EA;}
	.st20{fill:#2086C6;}
	.st21{enable-background:new    ;}
</style>
<title>Asset 1</title>
<rect x="205.5" y="418.5" class="st0" width="11.7" height="426"/>
<rect x="205.5" y="418.5" class="st1" width="3.4" height="426"/>
<rect x="217.3" y="418.5" class="st1" width="3.4" height="426"/>
<g>
	<path class="st2" d="M359.1,603.7c-17.5,11.6-34.3,24.6-52.7,34.4c-12.2,6.5-26.8,8.4-40.3,12.4c-1,0.1-2.1,0.2-3.1,0.3
		c-1.5,0.1-3,0.1-4.4,0.2c-1.1,0.1-2.3,0.1-3.4,0.2c-0.7,0.2-1.4,0.4-2.1,0.6c-0.8,0-1.6,0-2.3-0.1c-3.7,0-7.3,0.1-11,0.1
		c-2.1-0.1-4.1-0.3-6.2-0.4c-0.2-0.5-0.4-0.9-0.5-1.4c6.4-2.6,12.8-5.3,19.2-7.9c34.5-13.8,69.1-27.6,103.6-41.4
		c2.2-0.9,4.3-1.7,6.5-2.5c0.1,0.8,0.3,1.6,0.4,2.4C361.4,601.8,360.3,602.7,359.1,603.7z"/>
	<path class="st3" d="M356.7,594.7c-40.6,16.1-81.1,32.3-121.7,48.4C266.8,605.8,309.2,594.2,356.7,594.7z"/>
	<path class="st4" d="M378.5,585.9c-21.3,1.9-42.7,3.1-63.9,6.1c-32.1,4.7-59,20-81.8,42.5c-2.8,2.8-4.9,6.1-7.4,9.2
		c-0.4,0.5-0.8,1.1-1.2,1.6c-0.6,0.3-1.1,0.7-1.7,1c-0.4,0.2-0.9,0.4-1.3,0.5l0.2,0.2c-0.3,1.9-0.5,3.7-0.8,5.6
		c0.1,0.1,0.2,0.1,0.4,0.2c-0.1,0.3-0.2,0.6-0.4,0.9c15.1,0.3,29.1,0.5,43.1,0.7c1.6-0.1,3.1-0.2,4.7-0.3c2-0.4,4-0.8,6-1.2
		c0.4-0.1,0.9-0.2,1.3-0.2c0.1,0,0.2,0.1,0.3,0.1c1.3-0.1,2.5,0,3.8-0.3c33.1-6.9,59.5-25.4,84.1-47.2c-0.7-0.3-1.3-0.5-2-0.8l0,0
		c-1,0-2,0-3,0c-0.2-0.2-0.4-0.4-0.6-0.5c-17.2,11.4-33.7,24.1-51.9,33.8c-11.9,6.3-26.2,8.2-39.4,12.1c-0.1,0-0.1,0-0.2-0.1
		c-1,0.1-2,0.2-3.1,0.3c-1.5,0.1-2.9,0.1-4.4,0.2c-1.1,0.1-2.2,0.1-3.4,0.2c-0.7,0.2-1.4,0.4-2.1,0.6c-0.8,0-1.5,0-2.3-0.1
		c-3.6,0-7.2,0-10.8,0.1c-2-0.1-4-0.3-6.1-0.4c-0.2-0.4-0.4-0.9-0.5-1.3c6.3-2.6,12.5-5.2,18.9-7.8c34-13.6,67.9-27.1,101.9-40.6
		c2.1-0.8,4.3-1.6,6.4-2.4c0.1,0.8,0.3,1.6,0.4,2.4c0,0,0,0,0,0c-1.2,1-2.3,1.9-3.5,2.9c0.2,0.2,0.4,0.4,0.6,0.5c1,0,2,0,3,0
		c0,0,0,0,0,0c0.7,0.3,1.3,0.5,2,0.8c0,0,0.1-0.2,0.1-0.2c1.4-1.2,2.7-2.4,4.1-3.5c0,0,0,0,0,0c0.5-0.5,1.1-0.9,1.6-1.4
		c0.7-0.5,1.3-1.1,2-1.6c4-3.3,7.9-6.6,13.2-11C381.6,586.6,380,585.7,378.5,585.9z M235,643.1c31.8-37.3,74.2-49,121.7-48.4
		C316.1,610.9,275.5,627,235,643.1z"/>
</g>
<g>
	<path class="st2" d="M359.1,470.2c-17.5,11.6-34.3,24.6-52.7,34.4c-12.2,6.5-26.8,8.4-40.3,12.4c-1,0.1-2.1,0.2-3.1,0.3
		c-1.5,0.1-3,0.1-4.4,0.2c-1.1,0.1-2.3,0.1-3.4,0.2c-0.7,0.2-1.4,0.4-2.1,0.6c-0.8,0-1.6,0-2.3-0.1c-3.7,0-7.3,0.1-11,0.1
		c-2.1-0.1-4.1-0.3-6.2-0.4c-0.2-0.5-0.4-0.9-0.5-1.4c6.4-2.6,12.8-5.3,19.2-7.9c34.5-13.8,69.1-27.6,103.6-41.4
		c2.2-0.9,4.3-1.7,6.5-2.5c0.1,0.8,0.3,1.6,0.4,2.4C361.4,468.2,360.3,469.2,359.1,470.2z"/>
	<path class="st3" d="M356.7,461.2c-40.6,16.1-81.1,32.3-121.7,48.4C266.8,472.3,309.2,460.6,356.7,461.2z"/>
	<path class="st4" d="M378.5,452.3c-21.3,1.9-42.7,3.1-63.9,6.1c-32.1,4.7-59,20-81.8,42.5c-2.8,2.8-4.9,6.1-7.4,9.2
		c-0.4,0.5-0.8,1.1-1.2,1.6c-0.6,0.3-1.1,0.7-1.7,1c-0.4,0.2-0.9,0.4-1.3,0.5l0.2,0.2c-0.3,1.9-0.5,3.7-0.8,5.6
		c0.1,0.1,0.2,0.1,0.4,0.2c-0.1,0.3-0.2,0.6-0.4,0.9c15.1,0.3,29.1,0.5,43.1,0.7c1.6-0.1,3.1-0.2,4.7-0.3c2-0.4,4-0.8,6-1.2
		c0.4-0.1,0.9-0.2,1.3-0.2c0.1,0,0.2,0.1,0.3,0.1c1.3-0.1,2.5,0,3.8-0.3c33.1-6.9,59.5-25.4,84.1-47.2c-0.7-0.3-1.3-0.5-2-0.8l0,0
		c-1,0-2,0-3,0c-0.2-0.2-0.4-0.4-0.6-0.5c-17.2,11.4-33.7,24.1-51.9,33.8c-11.9,6.3-26.2,8.2-39.4,12.1c-0.1,0-0.1,0-0.2-0.1
		c-1,0.1-2,0.2-3.1,0.3c-1.5,0.1-2.9,0.1-4.4,0.2c-1.1,0.1-2.2,0.1-3.4,0.2c-0.7,0.2-1.4,0.4-2.1,0.6c-0.8,0-1.5,0-2.3-0.1
		c-3.6,0-7.2,0-10.8,0.1c-2-0.1-4-0.3-6.1-0.4c-0.2-0.4-0.4-0.9-0.5-1.3c6.3-2.6,12.5-5.2,18.9-7.8c34-13.6,67.9-27.1,101.9-40.6
		c2.1-0.8,4.3-1.6,6.4-2.4c0.1,0.8,0.3,1.6,0.4,2.4c0,0,0,0,0,0c-1.2,1-2.3,1.9-3.5,2.9c0.2,0.2,0.4,0.4,0.6,0.5c1,0,2,0,3,0
		c0,0,0,0,0,0c0.7,0.3,1.3,0.5,2,0.8c0,0,0.1-0.2,0.1-0.2c1.4-1.2,2.7-2.4,4.1-3.5c0,0,0,0,0,0c0.5-0.5,1.1-0.9,1.6-1.4
		c0.7-0.5,1.3-1.1,2-1.6c4-3.3,7.9-6.6,13.2-11C381.6,453.1,380,452.2,378.5,452.3z M235,509.6c31.8-37.3,74.2-49,121.7-48.4
		C316.1,477.3,275.5,493.5,235,509.6z"/>
</g>
<g>
	<path class="st2" d="M67.2,602.5c17.5,11.6,34.3,24.6,52.7,34.4c12.2,6.5,26.8,8.4,40.3,12.4c1,0.1,2.1,0.2,3.1,0.3
		c1.5,0.1,3,0.1,4.4,0.2c1.1,0.1,2.3,0.1,3.4,0.2c0.7,0.2,1.4,0.4,2.1,0.6c0.8,0,1.6,0,2.3-0.1c3.7,0,7.3,0.1,11,0.1
		c2.1-0.1,4.1-0.3,6.2-0.4c0.2-0.5,0.4-0.9,0.5-1.4c-6.4-2.6-12.8-5.3-19.2-7.9c-34.5-13.8-69.1-27.6-103.6-41.4
		c-2.2-0.9-4.3-1.7-6.5-2.5c-0.1,0.8-0.3,1.6-0.4,2.4C64.8,600.5,66,601.5,67.2,602.5z"/>
	<path class="st3" d="M69.6,593.5c40.6,16.1,81.1,32.3,121.7,48.4C159.4,604.6,117,592.9,69.6,593.5z"/>
	<path class="st4" d="M47.7,584.6c21.3,1.9,42.7,3.1,63.9,6.1c32.1,4.7,59,20,81.8,42.5c2.8,2.8,4.9,6.1,7.4,9.2
		c0.4,0.5,0.8,1.1,1.2,1.6c0.6,0.3,1.1,0.7,1.7,1c0.4,0.2,0.9,0.4,1.3,0.5l-0.2,0.2c0.3,1.9,0.5,3.7,0.8,5.6
		c-0.1,0.1-0.2,0.1-0.4,0.2c0.1,0.3,0.2,0.6,0.4,0.9c-15.1,0.3-29.1,0.5-43.1,0.7c-1.6-0.1-3.1-0.2-4.7-0.3c-2-0.4-4-0.8-6-1.2
		c-0.4-0.1-0.9-0.2-1.3-0.2c-0.1,0-0.2,0.1-0.3,0.1c-1.3-0.1-2.5,0-3.8-0.3c-33.1-6.9-59.5-25.4-84.1-47.2c0.7-0.3,1.3-0.5,2-0.8
		l0,0c1,0,2,0,3,0c0.2-0.2,0.4-0.4,0.6-0.5c17.2,11.4,33.7,24.1,51.9,33.8c11.9,6.3,26.2,8.2,39.4,12.1c0.1,0,0.1,0,0.2-0.1
		c1,0.1,2,0.2,3.1,0.3c1.5,0.1,2.9,0.1,4.4,0.2c1.1,0.1,2.2,0.1,3.4,0.2c0.7,0.2,1.4,0.4,2.1,0.6c0.8,0,1.5,0,2.3-0.1
		c3.6,0,7.2,0,10.8,0.1c2-0.1,4-0.3,6.1-0.4c0.2-0.4,0.4-0.9,0.5-1.3c-6.3-2.6-12.5-5.2-18.9-7.8c-34-13.6-67.9-27.1-101.9-40.6
		c-2.1-0.8-4.3-1.6-6.4-2.4c-0.1,0.8-0.3,1.6-0.4,2.4c0,0,0,0,0,0c1.2,1,2.3,1.9,3.5,2.9c-0.2,0.2-0.4,0.4-0.6,0.5c-1,0-2,0-3,0
		c0,0,0,0,0,0c-0.7,0.3-1.3,0.5-2,0.8c0,0-0.1-0.2-0.1-0.2c-1.4-1.2-2.7-2.4-4.1-3.5c0,0,0,0,0,0c-0.5-0.5-1.1-0.9-1.6-1.4
		c-0.7-0.5-1.3-1.1-2-1.6c-4-3.3-7.9-6.6-13.2-11C44.6,585.4,46.2,584.5,47.7,584.6z M191.2,641.9c-31.8-37.3-74.2-49-121.7-48.4
		C110.1,609.6,150.7,625.8,191.2,641.9z"/>
</g>
<g>
	<path class="st2" d="M67.2,470.2c17.5,11.6,34.3,24.6,52.7,34.4c12.2,6.5,26.8,8.4,40.3,12.4c1,0.1,2.1,0.2,3.1,0.3
		c1.5,0.1,3,0.1,4.4,0.2c1.1,0.1,2.3,0.1,3.4,0.2c0.7,0.2,1.4,0.4,2.1,0.6c0.8,0,1.6,0,2.3-0.1c3.7,0,7.3,0.1,11,0.1
		c2.1-0.1,4.1-0.3,6.2-0.4c0.2-0.5,0.4-0.9,0.5-1.4c-6.4-2.6-12.8-5.3-19.2-7.9c-34.5-13.8-69.1-27.6-103.6-41.4
		c-2.2-0.9-4.3-1.7-6.5-2.5c-0.1,0.8-0.3,1.6-0.4,2.4C64.8,468.2,66,469.2,67.2,470.2z"/>
	<path class="st3" d="M69.6,461.2c40.6,16.1,81.1,32.3,121.7,48.4C159.4,472.3,117,460.6,69.6,461.2z"/>
	<path class="st4" d="M47.7,452.3c21.3,1.9,42.7,3.1,63.9,6.1c32.1,4.7,59,20,81.8,42.5c2.8,2.8,4.9,6.1,7.4,9.2
		c0.4,0.5,0.8,1.1,1.2,1.6c0.6,0.3,1.1,0.7,1.7,1c0.4,0.2,0.9,0.4,1.3,0.5l-0.2,0.2c0.3,1.9,0.5,3.7,0.8,5.6
		c-0.1,0.1-0.2,0.1-0.4,0.2c0.1,0.3,0.2,0.6,0.4,0.9c-15.1,0.3-29.1,0.5-43.1,0.7c-1.6-0.1-3.1-0.2-4.7-0.3c-2-0.4-4-0.8-6-1.2
		c-0.4-0.1-0.9-0.2-1.3-0.2c-0.1,0-0.2,0.1-0.3,0.1c-1.3-0.1-2.5,0-3.8-0.3c-33.1-6.9-59.5-25.4-84.1-47.2c0.7-0.3,1.3-0.5,2-0.8
		l0,0c1,0,2,0,3,0c0.2-0.2,0.4-0.4,0.6-0.5c17.2,11.4,33.7,24.1,51.9,33.8c11.9,6.3,26.2,8.2,39.4,12.1c0.1,0,0.1,0,0.2-0.1
		c1,0.1,2,0.2,3.1,0.3c1.5,0.1,2.9,0.1,4.4,0.2c1.1,0.1,2.2,0.1,3.4,0.2c0.7,0.2,1.4,0.4,2.1,0.6c0.8,0,1.5,0,2.3-0.1
		c3.6,0,7.2,0,10.8,0.1c2-0.1,4-0.3,6.1-0.4c0.2-0.4,0.4-0.9,0.5-1.3c-6.3-2.6-12.5-5.2-18.9-7.8c-34-13.6-67.9-27.1-101.9-40.6
		c-2.1-0.8-4.3-1.6-6.4-2.4c-0.1,0.8-0.3,1.6-0.4,2.4c0,0,0,0,0,0c1.2,1,2.3,1.9,3.5,2.9c-0.2,0.2-0.4,0.4-0.6,0.5c-1,0-2,0-3,0
		c0,0,0,0,0,0c-0.7,0.3-1.3,0.5-2,0.8c0,0-0.1-0.2-0.1-0.2c-1.4-1.2-2.7-2.4-4.1-3.5c0,0,0,0,0,0c-0.5-0.5-1.1-0.9-1.6-1.4
		c-0.7-0.5-1.3-1.1-2-1.6c-4-3.3-7.9-6.6-13.2-11C44.6,453.1,46.2,452.2,47.7,452.3z M191.2,509.6c-31.8-37.3-74.2-49-121.7-48.4
		C110.1,477.3,150.7,493.5,191.2,509.6z"/>
</g>
<g>
	<g id="Layer_1-2_1_">
		<path class="st5" d="M408.7,184.1c6.6,6.8,10.1,16.3,10.1,27.4c0,11.1-3.5,20.5-10.1,27.4c-10,10.4-19.7,17.8-45.7,10.9
			l-57.6-15.4c1.7-7,2.6-14.1,2.7-21.3v-0.1c0-0.5,0-1,0-1.4s0-1,0-1.4v-0.1c-0.1-7.2-1-14.4-2.7-21.3l57.6-15.4
			C389,166.3,398.7,173.7,408.7,184.1z"/>
		<path class="st6" d="M391,107.8c5.5,9.6,7.2,19.5,5,28.7c-3.5,14-8.2,25.2-34.1,32.3l-57.6,15.5c-0.9-3-1.9-6-3.1-9l-0.4-0.8
			c-0.1-0.3-0.2-0.6-0.4-0.8c-4.5-10.7-11-20.5-19-28.9l42.2-42.2c19-19,31.1-17.4,45-13.4C377.7,91.7,385.4,98.2,391,107.8z"/>
		<path class="st7" d="M395.9,286.4c2.3,9.2,0.6,19.2-5,28.7c-5.5,9.6-13.3,16-22.4,18.7c-13.8,4-25.9,5.5-45-13.4l-42.2-42.2
			c8-8.4,14.5-18.2,19-28.9c0.1-0.3,0.2-0.6,0.4-0.8l0.4-0.8c1.2-2.9,2.2-5.9,3.1-9l57.6,15.5C387.8,261.1,392.5,272.4,395.9,286.4z
			"/>
		<path class="st8" d="M333.7,54.3c4,13.8,5.5,25.9-13.4,45l-42.2,42.3c-8.4-8-18.2-14.5-28.9-19l-0.8-0.4l-0.8-0.3
			c-3-1.2-5.9-2.2-9-3.1l15.5-57.6c7-25.9,18.3-30.6,32.3-34.1c9.2-2.3,19.1-0.6,28.7,5C324.7,37.5,331.1,45.2,333.7,54.3z"/>
		<path class="st9" d="M320.3,323.6c18.9,19.1,17.4,31.2,13.4,45c-2.6,9.1-9.1,16.9-18.7,22.4c-9.6,5.5-19.5,7.2-28.7,5
			c-14-3.5-25.2-8.2-32.3-34.1l-15.5-57.7c2.8-0.8,5.6-1.8,8.4-2.9l1-0.4l0.6-0.3c1-0.4,2.1-0.9,3.1-1.3c1-0.5,1.7-0.8,2.6-1.2l0,0
			c8.8-4.3,16.8-9.9,23.8-16.7L320.3,323.6z"/>
		<path class="st10" d="M302.9,197.6c1.4,9.2,1.4,18.5,0,27.6c0,0.2-0.1,0.3-0.1,0.5l-0.2,1.3l-0.2,1.4c0,0.2-0.1,0.3-0.1,0.5
			c-0.4,2.2-0.9,4.3-1.5,6.5c-0.4,1.5-0.8,2.9-1.3,4.4l-0.1,0.2c-0.2,0.6-0.4,1.2-0.6,1.7c-0.1,0.4-0.2,0.7-0.4,1.1
			s-0.2,0.5-0.3,0.7c-9.4,25.4-29.4,45.4-54.8,54.8l-0.7,0.3l-1.1,0.4l-1.7,0.6l-0.2,0.1l-2.1,0.6c-0.7,0.2-1.5,0.4-2.2,0.6
			c-2.1,0.6-4.3,1.1-6.5,1.5l-0.4,0.1l-1.4,0.2l-1.2,0.2l-0.6,0.1c-4.6,0.7-9.2,1-13.8,1c-1.6,0-3.2,0-4.8-0.1c-3-0.2-6-0.5-9-0.9
			l-0.6-0.1l-1.2-0.2l-1.4-0.3l-0.4-0.1c-2.2-0.4-4.3-0.9-6.5-1.5c-1.5-0.4-2.9-0.8-4.4-1.3l-0.2-0.1l-1.7-0.6l-1.1-0.4l-0.7-0.3
			c-36.4-13.4-60.5-48.1-60.5-86.8c0-2.3,0.1-4.6,0.3-6.8c2.2-30.1,19-57.2,44.9-72.6c0.5-0.3,1-0.6,1.4-0.8l0.8-0.4l1.8-1l0.6-0.3
			c0.8-0.4,1.6-0.8,2.3-1.2l0.6-0.3l1.9-0.9l0.8-0.4c0.6-0.3,1.3-0.5,1.9-0.8l0.6-0.2c0.8-0.3,1.6-0.6,2.5-1l0.6-0.2l1.9-0.7
			l0.8-0.3l2-0.6l0.6-0.2c0.8-0.2,1.7-0.5,2.5-0.7l0.7-0.2c0.6-0.2,1.3-0.3,1.9-0.5l0.8-0.2c0.7-0.2,1.4-0.3,2.1-0.5l0.5-0.1
			c0.9-0.2,1.7-0.3,2.6-0.5l0.7-0.1l2-0.3l0.8-0.1l2.2-0.3h0.4l2.7-0.2h0.8l2-0.1h0.8c0.8,0,1.6,0,2.3,0h0.2c0.8,0,1.6,0,2.5,0h0.8
			l2.1,0.1h0.7c0.9,0,1.8,0.1,2.7,0.2h0.3l2.3,0.3l0.8,0.1c0.7,0.1,1.4,0.2,2.1,0.3l0.6,0.1c0.9,0.2,1.8,0.3,2.7,0.5l0.3,0.1
			c0.8,0.2,1.6,0.3,2.3,0.5l0.7,0.2l2.1,0.5l0.5,0.1c0.9,0.2,1.8,0.5,2.6,0.7l0.4,0.1c0.8,0.2,1.5,0.5,2.2,0.7l0.7,0.2
			c0.7,0.2,1.4,0.5,2.1,0.8l0.4,0.2c0.9,0.3,1.7,0.7,2.6,1l0.4,0.2c0.7,0.3,1.4,0.6,2.1,0.9l0.6,0.3l2.1,1l0.4,0.2
			c0.8,0.4,1.7,0.8,2.5,1.2l0.4,0.2c0.7,0.4,1.4,0.7,2,1.2l0.6,0.3l1.8,1c18,10.9,31.8,27.5,39.2,47.3c0.1,0.2,0.2,0.5,0.3,0.7
			c0.1,0.2,0.3,0.7,0.4,1.1c0.2,0.6,0.4,1.2,0.6,1.7l0.1,0.2c0.5,1.4,0.9,2.9,1.3,4.4c0.6,2.1,1.1,4.3,1.5,6.5c0,0.2,0,0.3,0.1,0.5
			l0.2,1.4l0.2,1.3C302.9,197.3,302.9,197.5,302.9,197.6z M280.6,201.6l0.2-1.6l-1.5-0.6c-0.3-0.1-29.6-12.5-68.7-12.5
			s-68.5,12.4-68.8,12.5l-1.5,0.6l0.2,1.6c5.6,36.3,35.1,75.2,70,75.2S275,237.9,280.6,201.6L280.6,201.6z M252.6,174.7
			c4.1-2.5,4.4-9.3,0.7-15.4c-3.6-6-9.9-8.9-13.9-6.5s-4.4,9.3-0.8,15.4C242.3,174.3,248.5,177.2,252.6,174.7L252.6,174.7z
			 M182.6,168.3c3.6-6,3.3-12.9-0.7-15.4c-4.1-2.4-10.3,0.4-13.9,6.5c-3.7,6-3.3,12.9,0.8,15.4C172.8,177.2,179,174.3,182.6,168.3
			L182.6,168.3z"/>
		<path class="st11" d="M280.9,200l-0.2,1.6c-5.6,36.3-35.1,75.2-70,75.2s-64.3-38.9-70-75.2l-0.2-1.6l1.5-0.6
			c0.3-0.1,29.6-12.5,68.8-12.5s68.4,12.4,68.7,12.5L280.9,200z M253.3,250.2c11.8-13.5,19.7-30,22.9-47.7
			c-42.4-15.5-88.9-15.5-131.3,0c3.2,17.7,11.2,34.1,23,47.7c12.7,14.5,27.9,22.4,42.7,22.4S240.6,264.7,253.3,250.2z"/>
		<path class="st12" d="M276.3,202.6c-3.2,17.6-11.2,34.1-22.9,47.6c-12.7,14.5-27.9,22.4-42.7,22.4c-14.8,0-30-7.9-42.7-22.4
			c-11.8-13.6-19.7-30-22.9-47.7C187.4,187.1,233.9,187.1,276.3,202.6L276.3,202.6z"/>
		<path class="st11" d="M253.3,159.4c3.6,6,3.3,12.9-0.7,15.4c-4.1,2.4-10.3-0.4-13.9-6.5c-3.7-6-3.3-12.9,0.8-15.4
			C243.5,150.5,249.7,153.4,253.3,159.4z M252.4,173.3c1.4-0.4,1.9-2.3,1.3-4.3c-0.6-2-2.3-3.2-3.6-2.7c-1.4,0.4-1.9,2.3-1.3,4.3
			C249.4,172.6,251,173.7,252.4,173.3L252.4,173.3z M244,163.7c1.8-0.6,2.6-3.4,1.6-6.2c-0.9-2.8-3.2-4.6-5-4
			c-1.8,0.6-2.6,3.4-1.6,6.2C239.9,162.6,242.1,164.4,244,163.7L244,163.7z"/>
		<path class="st13" d="M253.7,169c0.6,1.9,0.1,3.9-1.3,4.3c-1.4,0.4-3-0.8-3.6-2.7c-0.6-1.9-0.1-3.9,1.3-4.3
			C251.4,165.8,253,167,253.7,169z"/>
		<path class="st14" d="M238.8,14.2c10.4,10,17.8,19.7,10.9,45.7l-15.4,57.6c-7-1.7-14.2-2.6-21.4-2.7h-3c-7.2,0.1-14.3,1-21.3,2.7
			l-15.4-57.6c-6.9-26,0.5-35.7,10.9-45.7c6.8-6.6,16.3-10.1,27.4-10.1S231.9,7.6,238.8,14.2z"/>
		<path class="st15" d="M249.7,363c6.9,26-0.5,35.7-10.9,45.7c-6.8,6.6-16.3,10.1-27.4,10.1c-11.1,0-20.5-3.5-27.4-10.1
			c-10.4-10-17.8-19.7-10.9-45.7l15.4-57.6c6.7,1.6,13.6,2.5,20.5,2.7h1.9h1h1.9c6.9-0.1,13.8-1,20.5-2.7L249.7,363z"/>
		<path class="st13" d="M245.6,157.6c0.9,2.8,0.2,5.6-1.6,6.2c-1.8,0.6-4.1-1.2-5-4c-0.9-2.8-0.2-5.6,1.6-6.2
			C242.4,152.9,244.7,154.7,245.6,157.6z"/>
		<path class="st16" d="M168.8,61.1l15.5,57.6c-3,0.9-6,1.9-9,3.1l-0.8,0.4l-0.8,0.3c-10.7,4.5-20.5,11-28.9,19l-42.2-42.2
			c-18.9-19.1-17.4-31.2-13.4-45c2.6-9.1,9.1-16.9,18.7-22.4s19.5-7.2,28.7-5C150.5,30.4,161.7,35.1,168.8,61.1z"/>
		<path class="st17" d="M184.3,304.2l-15.5,57.6c-7,25.9-18.3,30.6-32.3,34.1c-9.2,2.3-19.1,0.6-28.7-5c-9.6-5.5-16-13.3-18.7-22.4
			c-4-13.8-5.5-25.9,13.4-45l42.2-42.3c8.6,8.2,18.6,14.7,29.5,19.3l0.6,0.3l1,0.4C178.5,302.4,181.4,303.4,184.3,304.2z"/>
		<path class="st11" d="M181.9,152.9c4.1,2.5,4.4,9.3,0.7,15.4c-3.6,6-9.9,8.9-13.9,6.5s-4.4-9.3-0.8-15.4
			C171.6,153.3,177.9,150.5,181.9,152.9z M182.4,159.7c0.9-2.8,0.2-5.6-1.6-6.2c-1.8-0.6-4.1,1.2-5,4c-0.9,2.8-0.2,5.6,1.6,6.2
			S181.4,162.6,182.4,159.7L182.4,159.7z M172.6,170.6c0.6-1.9,0.1-3.9-1.3-4.3c-1.4-0.4-3,0.8-3.6,2.7c-0.6,1.9-0.1,3.9,1.3,4.3
			C170.3,173.7,171.9,172.5,172.6,170.6L172.6,170.6z"/>
		<path class="st13" d="M180.7,153.5c1.8,0.6,2.6,3.4,1.6,6.2c-0.9,2.8-3.2,4.6-5,4c-1.8-0.6-2.6-3.4-1.6-6.2
			C176.6,154.7,178.9,152.9,180.7,153.5z"/>
		<path class="st13" d="M171.3,166.2c1.4,0.4,1.9,2.3,1.3,4.3c-0.6,2-2.3,3.2-3.6,2.7c-1.4-0.4-1.9-2.3-1.3-4.3
			C168.3,167,169.9,165.8,171.3,166.2z"/>
		<path class="st18" d="M99.3,102.5l42.3,42.2c-4.1,4.3-7.8,9.1-11.1,14.1c0,0-0.1,0.1-0.1,0.1c-0.4,0.6-0.7,1.2-1.1,1.7l-0.3,0.4
			c-0.4,0.6-0.7,1.2-1.1,1.8l-0.2,0.3c-2.8,4.8-5.1,9.8-7,15c0,0,0,0.1,0,0.1c-0.2,0.6-0.4,1.2-0.7,1.8c0,0.2-0.1,0.3-0.2,0.5
			c-0.2,0.5-0.4,1.1-0.5,1.6c-0.1,0.2-0.2,0.5-0.2,0.7c-0.1,0.5-0.3,0.9-0.4,1.4l-57.7-15.5c-25.9-7-30.6-18.3-34.1-32.3
			c-2.3-9.2-0.6-19.2,5-28.7s13.3-16,22.4-18.7C68.1,85.1,80.2,83.6,99.3,102.5z"/>
		<path class="st19" d="M141.5,278.2l-42.2,42.2c-19.1,18.9-31.2,17.4-45,13.4c-9.1-2.6-16.9-9.1-22.4-18.7
			c-5.5-9.6-7.2-19.5-5-28.7c3.5-14,8.2-25.2,34.1-32.3l57.7-15.5l0,0c0.1,0.4,0.3,0.9,0.4,1.4c0.1,0.2,0.2,0.5,0.2,0.8
			c0.2,0.5,0.3,1,0.5,1.6c0,0.2,0.1,0.3,0.2,0.5c0.2,0.6,0.4,1.2,0.6,1.8c0,0.1,0,0.1,0,0.2c4.6,12.4,11.7,23.8,20.8,33.4
			L141.5,278.2z"/>
		<path class="st20" d="M117.5,188.6c-0.1,0.5-0.2,0.9-0.3,1.4c0,0.2-0.1,0.5-0.2,0.7c-0.1,0.6-0.2,1.2-0.4,1.7c0,0.2,0,0.3-0.1,0.5
			c-0.1,0.6-0.2,1.3-0.4,1.9c0,0,0,0.1,0,0.1c-1.9,10.9-1.9,22.1,0,33.1c0,0,0,0.1,0,0.1c0.1,0.7,0.2,1.3,0.4,2c0,0.2,0,0.3,0.1,0.4
			c0.1,0.6,0.2,1.2,0.4,1.7c0,0.2,0.1,0.5,0.2,0.7c0.1,0.5,0.2,0.9,0.3,1.4l-57.6,15.4c-26,6.9-35.7-0.5-45.7-10.9
			C7.6,232,4.1,222.5,4.1,211.4s3.5-20.5,10.1-27.4c10-10.4,19.7-17.8,45.7-10.9L117.5,188.6z"/>
		<g class="st21">
			<path class="st13" d="M343.5,198.4l2.6,20.1h-4.7l-0.5-4.9h-2.5l-0.8,4.9h-3.9l3.4-20.1H343.5z M340.6,210.5l-0.8-8.9h-0.1
				l-0.8,8.9H340.6z"/>
			<path class="st13" d="M347,198.4h4.5v6.1h0.1c0.4-1.5,1.5-2.4,3.2-2.4c2.3,0,3.1,1.5,3.1,3.6v8.9c0,1.9-0.7,4-3.2,4
				c-1.6,0-2.8-0.6-3.1-2.2h-0.1v2H347V198.4z M351.5,213.9c0,0.7,0.4,1.1,0.9,1.1c0.5,0,0.9-0.4,0.9-1.1v-7c0-0.7-0.4-1.1-0.9-1.1
				c-0.5,0-0.9,0.4-0.9,1.1V213.9z"/>
			<path class="st13" d="M369.8,214.4c0,3-2.5,4.3-5.4,4.3c-2.8,0-5.4-1.3-5.4-4.3v-7.7c0-2.9,1.9-4.5,5.4-4.5
				c3.5,0,5.4,1.6,5.4,4.5V214.4z M363.5,214.6c0,0.6,0.2,1.1,0.9,1.1s0.9-0.5,0.9-1.1v-8.4c0-0.6-0.2-1.1-0.9-1.1s-0.9,0.5-0.9,1.1
				V214.6z"/>
			<path class="st13" d="M377.4,216.5L377.4,216.5c-0.5,1.4-1.6,2.2-3.3,2.2c-2,0-3-1.4-3-3.7v-12.6h4.5v11.2c0,0.7,0.1,1.5,0.9,1.5
				c0.8,0,1-0.8,1-1.5v-11.2h4.5v16.1h-4.5V216.5z"/>
			<path class="st13" d="M382.7,205.3v-2.9h1.5v-2.9h4.5v2.9h1.9v2.9h-1.9v8.8c0,1,0,1.5,1.1,1.5h0.9v2.9h-3.6
				c-2.2,0-2.8-1.2-2.8-3.4v-9.8H382.7z"/>
		</g>
		<g class="st21">
			<path class="st13" d="M34.4,210.7v2.7c0,3.8-2,5.6-6,5.6c-3.1,0-5.9-1.3-5.9-5.9v-9.1c0-4.6,2.8-5.9,5.9-5.9c3.4,0,6,1,6,5.4v2.2
				h-4.7v-2.8c0-0.8-0.3-1.6-1.3-1.6c-1,0-1.2,0.8-1.2,1.6v11.3c0,0.8,0.3,1.6,1.2,1.6c1,0,1.3-0.8,1.3-1.6l0-3.4H34.4z"/>
			<path class="st13" d="M46.4,214.4c0,3-2.5,4.3-5.4,4.3s-5.4-1.3-5.4-4.3v-7.7c0-2.9,1.9-4.5,5.4-4.5s5.4,1.6,5.4,4.5V214.4z
				 M40.1,214.6c0,0.6,0.2,1.1,0.9,1.1c0.7,0,0.9-0.5,0.9-1.1v-8.4c0-0.6-0.2-1.1-0.9-1.1c-0.7,0-0.9,0.5-0.9,1.1V214.6z"/>
			<path class="st13" d="M52.1,204.3L52.1,204.3c0.5-1.4,1.6-2.2,3.3-2.2c2,0,3,1.4,3,3.7v12.6h-4.5v-11.2c0-0.7-0.1-1.5-0.9-1.5
				c-0.8,0-1,0.8-1,1.5v11.2h-4.5v-16.1h4.5V204.3z"/>
			<path class="st13" d="M59.2,205.3v-2.9h1.5v-2.9h4.5v2.9h1.9v2.9h-1.9v8.8c0,1,0,1.5,1.1,1.5h0.9v2.9h-3.6
				c-2.2,0-2.8-1.2-2.8-3.4v-9.8H59.2z"/>
			<path class="st13" d="M74.3,216.6L74.3,216.6c-0.6,1.2-1.4,2.1-3.2,2.1c-1.9,0-3.1-1.2-3.1-3.3V213c0-4.2,6.3-3.7,6.3-6.7
				c0-0.6-0.2-1.2-0.9-1.2c-0.7,0-0.9,0.5-0.9,1.2v1.8H68v-1.5c0-3.2,2.7-4.4,5.4-4.4c2.7,0,5.4,1.2,5.4,4.4v11.9h-4.5V216.6z
				 M72.4,214.3c0,0.6,0.4,0.8,0.8,0.8c0.9,0,1-0.6,1-2.1v-2.8c-0.9,0.6-1.9,1-1.9,2.3V214.3z"/>
			<path class="st13" d="M86.3,206.2c0-0.6-0.2-1.1-0.9-1.1s-0.9,0.5-0.9,1.1v8.4c0,0.6,0.2,1.1,0.9,1.1s0.9-0.5,0.9-1.1v-2.5h4.5
				v2.4c0,3-2.3,4.2-5.4,4.2c-3.3,0-5.4-1.4-5.4-4.5v-7.5c0-2.7,2-4.5,5.4-4.5c2.9,0,5.4,1.1,5.4,4.5v1.4h-4.5V206.2z"/>
			<path class="st13" d="M91.6,205.3v-2.9h1.5v-2.9h4.5v2.9h1.9v2.9h-1.9v8.8c0,1,0,1.5,1.1,1.5h0.9v2.9h-3.6
				c-2.2,0-2.8-1.2-2.8-3.4v-9.8H91.6z"/>
		</g>
		<g class="st21">
			<path class="st13" d="M220.7,90.9h-20.1v-4.7h7.4v-2.5h-7.4v-4.7h20.1v4.7h-9.6v2.5h9.6V90.9z"/>
			<path class="st13" d="M216.6,67.1c3,0,4.3,2.5,4.3,5.4c0,2.8-1.3,5.4-4.3,5.4h-7.7c-2.9,0-4.5-1.9-4.5-5.4c0-3.5,1.6-5.4,4.5-5.4
				H216.6z M216.8,73.4c0.6,0,1.1-0.2,1.1-0.9c0-0.7-0.5-0.9-1.1-0.9h-8.4c-0.6,0-1.1,0.2-1.1,0.9c0,0.7,0.5,0.9,1.1,0.9H216.8z"/>
			<path class="st13" d="M206.7,61.5L206.7,61.5c-1.5-0.5-2.3-1.5-2.3-3.2c0-1.6,0.8-2.6,2.3-2.9v-0.1c-1.4-0.3-2.3-1.5-2.3-3.1
				c0-2.2,1.4-2.9,3.4-2.9h12.9v4.3h-11.2c-0.7,0-1.5,0.1-1.5,0.9c0,0.8,0.8,0.9,1.5,0.9h11.2v4.3h-11.2c-0.7,0-1.5,0.1-1.5,0.9
				s0.8,0.9,1.5,0.9h11.2v4.3h-16.1v-4.3H206.7z"/>
			<path class="st13" d="M213.1,43.6h3.3c1,0,1.6-0.3,1.6-0.9c0-0.7-0.6-0.9-1.6-0.9h-2.1v-4.5h2.4c3,0,4.2,2.3,4.2,5.4
				c0,2.8-1.3,5.4-4.3,5.4h-7.7c-2.9,0-4.5-1.9-4.5-5.4c0-2.8,1.1-5.4,4.5-5.4h4.2V43.6z M210.4,41.8h-2.2c-0.6,0-1,0.3-1,0.9
				c0,0.6,0.3,0.9,1,0.9h2.2V41.8z"/>
		</g>
		<g class="st21">
			<path class="st13" d="M322.7,371.9l-16.4,11.5l-3.3-4.7c-2.1-3-2.8-5.5,0-7.5l3-2.1c2.5-1.7,5.1-0.3,6.7,2l1,1.4l6.4-4.4
				L322.7,371.9z M311.3,374.2l-0.4-0.6c-0.9-1.3-1.7-0.9-3.7,0.4c-1.9,1.4-2.6,2-1.7,3.3l0.4,0.6L311.3,374.2z"/>
			<path class="st13" d="M305.7,354.7c2.4-1.7,5-0.4,6.6,2c1.6,2.3,2,5.2-0.4,6.9l-6.3,4.4c-2.4,1.7-4.8,1-6.8-1.8
				c-2-2.8-1.7-5.3,0.6-7L305.7,354.7z M309.5,359.8c0.5-0.3,0.8-0.8,0.4-1.4c-0.4-0.6-1-0.5-1.5-0.1l-6.9,4.8
				c-0.5,0.3-0.8,0.8-0.4,1.4c0.4,0.6,1,0.5,1.5,0.1L309.5,359.8z"/>
			<path class="st13" d="M294.3,355.8L294.3,355.8c-1.5,0.3-2.8,0-3.8-1.4c-1.3-1.8-0.5-3.3,0.9-4.3l4.7-3.3l2.6,3.6l-3.2,2.2
				c-0.5,0.4-1,0.9-0.6,1.5c0.4,0.6,1.1,0.4,1.6,0l9.3-6.5l2.6,3.7l-13.2,9.3l-2.6-3.7L294.3,355.8z"/>
			<path class="st13" d="M290.9,349.4l-2.4,1.7l-0.9-1.2l-2.4,1.7l-2.6-3.7l2.4-1.7l-1.1-1.6l2.4-1.7l1.1,1.6l7.2-5
				c0.8-0.5,1.2-0.9,0.6-1.7l-0.5-0.7l2.4-1.7l2.1,3c1.3,1.8,0.6,3-1.2,4.2l-8.1,5.6L290.9,349.4z"/>
			<path class="st13" d="M286.1,342.6l-2.4,1.7l-0.6-0.8l-0.9,0.6c-1,0.7-2.8,1-4-0.7l-1.6-2.3l2.4-1.7c0.6,0.9,1,0.8,1.6,0.5
				l-0.7-1l2.4-1.7l0.7,1l10.8-7.6l2.6,3.6l-10.8,7.6L286.1,342.6z"/>
			<path class="st13" d="M283,322.2c2.4-1.7,5-0.4,6.6,2c1.6,2.3,2,5.2-0.4,6.9l-6.3,4.4c-2.4,1.7-4.8,1-6.8-1.8
				c-2-2.8-1.8-5.4,0.6-7L283,322.2z M286.8,327.3c0.5-0.3,0.8-0.8,0.4-1.4s-1-0.5-1.5-0.1l-6.9,4.8c-0.5,0.3-0.8,0.8-0.4,1.4
				c0.4,0.6,1,0.5,1.5,0.1L286.8,327.3z"/>
			<path class="st13" d="M285.6,318.9l-16.4,11.5l-2.6-3.6l16.4-11.5L285.6,318.9z"/>
			<path class="st13" d="M268.2,324l-2.3,1.6l-2.6-3.6l2.3-1.6L268.2,324z M282.3,314.1l-13.2,9.3l-2.6-3.6l13.2-9.3L282.3,314.1z"
				/>
			<path class="st13" d="M269.5,303c2.4-1.7,5-0.4,6.6,2c1.6,2.3,2,5.2-0.4,6.9l-6.3,4.4c-2.4,1.7-4.8,1-6.8-1.8s-1.7-5.3,0.6-7
				L269.5,303z M273.3,308c0.5-0.3,0.8-0.8,0.4-1.4c-0.4-0.6-1-0.5-1.5-0.1l-6.9,4.8c-0.5,0.3-0.8,0.8-0.4,1.4s1,0.5,1.5,0.1
				L273.3,308z"/>
		</g>
		<g class="st21">
			<path class="st13" d="M118.8,384.1l-13.6-7.8l3.8-6.6l2.1,1.2l-2,3.4l3,1.7l1.9-3.3l2.1,1.2l-1.9,3.3l4.4,2.6l2-3.4l2.1,1.2
				L118.8,384.1z"/>
			<path class="st13" d="M115,368.5L115,368.5c-0.8-0.9-0.9-1.9-0.2-3.1c0.8-1.4,2.1-1.5,3.7-0.6l8.5,4.9l-1.7,3l-7.6-4.4
				c-0.5-0.3-1-0.5-1.3,0c-0.3,0.6,0.1,0.9,0.6,1.2l7.6,4.4l-1.7,3l-10.9-6.3l1.7-3L115,368.5z"/>
			<path class="st13" d="M130.7,361c3,1.7,2.1,4.4,1.3,5.7c-1.3,2.3-3.2,2.9-4.4,2.2l-1.1-0.6l1.7-3l0.7,0.4c0.4,0.2,0.8,0.2,1-0.2
				s0.1-0.8-0.3-1l-2.7-1.6l0,0.1c0.9,0.6,1.1,1.8,0.5,2.8c-1,1.8-2.5,1.7-4.1,0.8L119,364c-1.7-1-2-2.4-1.4-3.4
				c0.7-1.2,1.6-1.5,2.8-1.4l0,0l-1.4-0.8l1.8-3L130.7,361z M124.7,363.2c0.4,0.2,0.9,0.3,1.2-0.2c0.3-0.5-0.1-0.9-0.5-1.1l-3.1-1.8
				c-0.4-0.2-0.9-0.3-1.2,0.2c-0.3,0.5,0.1,0.9,0.5,1.1L124.7,363.2z"/>
			<path class="st13" d="M120.6,354l-1.9-1.1l1.7-3l1.9,1.1L120.6,354z M132.2,360.8l-10.9-6.3l1.7-3l10.9,6.3L132.2,360.8z"/>
			<path class="st13" d="M126.7,348.4L126.7,348.4c-0.8-0.9-0.9-1.9-0.2-3.1c0.8-1.4,2.1-1.5,3.7-0.6l8.5,4.9l-1.7,3l-7.6-4.4
				c-0.5-0.3-1-0.5-1.3,0c-0.3,0.6,0.1,0.9,0.6,1.2l7.6,4.4l-1.7,3l-10.9-6.3l1.7-3L126.7,348.4z"/>
			<path class="st13" d="M135.8,342.8l2.2,1.3c0.6,0.4,1.2,0.4,1.4,0c0.3-0.5,0-0.9-0.7-1.2l-1.4-0.8l1.7-3l1.6,0.9
				c2.1,1.2,2,3.2,0.7,5.3c-1.1,1.9-3,3.1-5,2l-5.2-3c-2-1.1-2.3-3.1-1-5.4c1.1-1.9,2.8-3.2,5.2-1.9l2.9,1.7L135.8,342.8z
				 M134.7,340.5l-1.5-0.9c-0.4-0.2-0.8-0.2-1,0.3c-0.2,0.4-0.1,0.8,0.3,1l1.5,0.9L134.7,340.5z"/>
			<path class="st13" d="M140.5,334.7l2.2,1.3c0.6,0.4,1.2,0.4,1.4,0c0.3-0.5,0-0.9-0.7-1.2l-1.4-0.8l1.7-3l1.6,0.9
				c2.1,1.2,2,3.2,0.7,5.3c-1.1,1.9-3,3.1-5,2l-5.2-3c-2-1.1-2.3-3.1-1-5.4c1.1-1.9,2.8-3.2,5.2-1.9l2.9,1.7L140.5,334.7z
				 M139.4,332.4l-1.5-0.9c-0.4-0.2-0.8-0.2-1,0.3c-0.2,0.4-0.1,0.8,0.3,1l1.5,0.9L139.4,332.4z"/>
			<path class="st13" d="M140.8,324.1L140.8,324.1c-0.7-1-0.9-2-0.3-3.1c0.9-1.5,2.2-1.5,3.3-0.8l3.9,2.2l-1.7,3l-2.6-1.5
				c-0.4-0.3-1-0.4-1.3,0.1c-0.3,0.5,0.1,0.9,0.5,1.1l7.7,4.4l-1.7,3l-10.9-6.3l1.7-3L140.8,324.1z"/>
			<path class="st13" d="M141.6,317.7l-1.9-1.1l1.7-3l1.9,1.1L141.6,317.7z M153.2,324.4l-10.9-6.3l1.7-3l10.9,6.3L153.2,324.4z"/>
			<path class="st13" d="M147.6,312L147.6,312c-0.8-0.9-0.9-1.9-0.2-3.1c0.8-1.4,2.1-1.5,3.7-0.6l8.5,4.9l-1.7,3l-7.6-4.4
				c-0.5-0.3-1-0.5-1.3,0c-0.3,0.6,0.1,0.9,0.6,1.2l7.6,4.4l-1.7,3l-10.9-6.3l1.7-3L147.6,312z"/>
			<path class="st13" d="M163.3,304.5c3,1.7,2.1,4.4,1.3,5.7c-1.3,2.3-3.2,2.9-4.4,2.2l-1.1-0.6l1.7-3l0.7,0.4
				c0.4,0.2,0.8,0.2,1-0.2s0.1-0.8-0.3-1l-2.7-1.6l0,0.1c0.9,0.6,1.1,1.8,0.5,2.8c-1,1.8-2.5,1.7-4.1,0.8l-4.5-2.6
				c-1.7-1-2-2.4-1.4-3.4c0.7-1.2,1.6-1.5,2.8-1.4l0,0l-1.4-0.8l1.8-3L163.3,304.5z M157.3,306.7c0.4,0.2,0.9,0.3,1.2-0.2
				c0.3-0.5-0.1-0.9-0.5-1.1l-3.1-1.8c-0.4-0.2-0.9-0.3-1.2,0.2c-0.3,0.5,0.1,0.9,0.5,1.1L157.3,306.7z"/>
		</g>
	</g>
</g>
</svg>
